<svg width="146" height="183" viewBox="0 0 146 183" fill="none" xmlns="http://www.w3.org/2000/svg">
<path d="M0 70.0676L72.1705 100.568L116.966 0L135.216 70.0676L124.432 84.0811L136.875 95.6216L146 170.635L121.114 138.486L96.2273 119.089L114.477 183L68.8523 127.77V122.698L0 70.0676Z" fill="#D9E084"/>
<path d="M0 70.0676L72.1705 100.568L74.6591 102.216L77.1477 104.218L84.6136 110.037L96.2273 119.089L121.114 138.486L136.875 95.6216L146 170.635L121.114 138.486L96.2273 119.089L114.477 183L68.8523 127.77V122.698L0 70.0676Z" fill="#AADBB7"/>
<path d="M75.4887 127.77L83.3751 112.444L68.8523 99.1653L72.1705 100.568L74.6591 102.216L77.1478 104.218L124.432 84.0811L129.196 88.5L79.4338 106L84.6137 110.037L86.6875 111.654L96.2273 119.089L98.2007 126L85.4438 114.336L75.4887 135.804L68.8523 127.77V122.698L75.4887 127.77Z" fill="#48A7A1"/>
</svg>
