<svg width="160" height="172" viewBox="0 0 160 172" fill="none" xmlns="http://www.w3.org/2000/svg">
<mask id="mask0_345_12961" style="mask-type:alpha" maskUnits="userSpaceOnUse" x="0" y="0" width="160" height="172">
<path d="M25.6995 90.5263L12.4352 81.4737L0 0L35.6477 30.4498L64.6632 74.5999L129.326 47.7321L160 43.6172L111.088 112.746L104.456 114.392V123.445L69.6373 172L55.544 128.383L55.7499 123.445L29.8446 167.885L18.2383 98.756L25.6995 90.5263Z" fill="#D9E084"/>
</mask>
<g mask="url(#mask0_345_12961)">
<path d="M25.6995 90.5263L12.4352 81.4737L0 0L35.6477 30.4498L64.6632 74.5999L129.326 47.7321L160 43.6172L111.088 112.746L104.456 114.392V123.445L69.6373 172L55.544 128.383L55.7499 123.445L29.8446 167.885L18.2383 98.756L25.6995 90.5263Z" fill="#D9E084"/>
<path d="M25.6995 90.5263L12.4352 81.4737L64.6632 74.5999L111.088 112.746L104.456 114.392V123.445L69.6373 172L55.544 128.383L55.7499 123.445L29.8446 167.885L18.2383 98.756L55.7499 123.445L97.8238 116.038L64.6632 74.5999L25.6995 90.5263Z" fill="#AADBB7"/>
<path d="M64.6632 74.5999L97.8238 116.038L104.456 114.392V117L94 119.5L64.6632 74.5999L57 133L55.5 128.5L55.7499 123.445L64.6632 74.5999L18.2383 98.756L25.6995 90.5263L64.6632 74.5999Z" fill="#48A7A1"/>
</g>
</svg>
