<svg width="182" height="177" viewBox="0 0 182 177" fill="none" xmlns="http://www.w3.org/2000/svg">
<path d="M163.059 99.2523L150.706 110.832L154.824 114.967L126 172.037L108.912 95.1168L100.471 129.028V177L59.2941 117.449L57.8319 88.5L55.1765 90.1542L24.7059 81.0561L0 0L120.235 49.6262H182L163.059 99.2523Z" fill="#AADBB7"/>
<path d="M120.235 49.6262L133.412 90.1542L150.706 110.832L130.5 92L120.235 49.6262L111.501 106.999L108.912 95.1168L120.235 49.6262L58.375 99.2523L57.8319 88.5L120.235 49.6262Z" fill="#125867"/>
<path d="M133.412 90.1542L120.235 49.6262L108.912 95.1168L116 126.5L154.824 114.967L126 172.037L116 126.5L108.912 95.1168L100.471 129.028V177L59.2941 117.449L100.471 129.028L108.912 95.1168L120.235 49.6262L57.8319 88.5L55.1765 90.1542L24.7059 81.0561L120.235 49.6262L163.059 99.2523L150.706 110.832L133.412 90.1542Z" fill="#48A7A1"/>
</svg>
