<svg width="359" height="209" viewBox="0 0 359 209" fill="none" xmlns="http://www.w3.org/2000/svg">
<path d="M0 208.094V116.59H31.0682C57.2049 116.59 78.6568 137.099 78.6568 162.342C78.6568 187.585 57.2049 208.094 31.0682 208.094H0ZM31.0682 191.225C47.7119 191.225 61.2734 178.24 61.2734 162.342C61.2734 146.444 47.7119 133.459 31.0682 133.459H17.2601V191.225H31.0682Z" fill="#26467E"/>
<path d="M95.123 173.039V116.59H112.259V173.039C112.016 183.106 120.037 191.495 130.246 191.735C140.455 191.975 148.962 184.065 149.205 173.997C149.205 173.638 149.205 173.398 149.205 173.039V116.59H166.463V173.039C166.463 182.387 162.695 191.255 156.011 197.847C142.035 211.51 119.43 211.51 105.575 197.847C98.8906 191.255 95.123 182.387 95.123 173.039Z" fill="#26467E"/>
<path d="M251.452 208.094L217.878 160.215L203.369 174.19V208.094H186.582V116.59H203.369V150.858L239.461 116.59H263.683L230.708 148.306L272.556 208.094H251.452Z" fill="#26467E"/>
<path d="M285.359 208.094V116.59H345.724V133.238H302.641V146.727H340.126V163.861H302.641V191.081H344.507V208.094H285.359Z" fill="#26467E"/>
<path d="M54.7036 93.3344V49.9245H17.699V93.3344H0.470703V3.66016H17.699V33.393H54.7036V3.66016H71.8106V93.3344H54.7036Z" fill="#26467E"/>
<path d="M199.817 91.4255C194.141 89.0132 189.068 85.5154 184.72 81.1733C180.252 76.8312 176.749 71.7654 174.455 65.9759C171.918 60.1864 170.59 53.7939 170.59 47.522C170.831 21.2281 192.088 0 218.296 0C233.272 0 247.402 7.11623 256.34 19.1776L258.393 21.7105L244.745 31.8421L242.813 29.3092C237.136 21.5899 227.958 17.0066 218.296 17.0066C201.387 17.0066 187.619 30.636 187.619 47.6426C187.619 64.6492 201.266 78.2785 218.296 78.2785C227.958 78.2785 237.016 73.6952 242.813 65.9759L244.745 63.5636L258.272 73.5746L256.219 76.1075C247.281 88.0483 233.272 95.1645 218.296 95.1645C212.015 95.1645 205.735 93.8378 199.817 91.4255Z" fill="#26467E"/>
<path d="M337.927 93.3344L304.399 46.4755L289.911 60.0337V93.3344H273.027V3.66016H289.911V37.3177L325.833 3.66016H350.14L317.092 34.8202L359.001 93.3344H337.927Z" fill="#26467E"/>
<path d="M132.468 3.66016H117.255L82.7891 93.3344H100.735L110.124 69.1914L124.861 30.7765L139.717 69.1914L148.869 93.3344H166.934L132.468 3.66016Z" fill="#26467E"/>
</svg>
