<svg width="538" height="830" viewBox="0 0 538 830" fill="none" xmlns="http://www.w3.org/2000/svg">
<mask id="mask0_345_12791" style="mask-type:alpha" maskUnits="userSpaceOnUse" x="2" y="306" width="536" height="208">
<path d="M411.402 326.962L537.999 435.473V513.049L306.699 419.768V349.33L411.402 326.962Z" fill="#DFECFE"/>
<path d="M75.7192 388.025L43.7846 383.121L2.10571 411.201V513.049L306.699 419.768V349.33L190.37 306.497L75.7192 388.025Z" fill="#DFECFE"/>
</mask>
<g mask="url(#mask0_345_12791)">
<path d="M411.402 326.962L537.999 435.473V513.049L306.699 419.768V349.33L411.402 326.962Z" fill="#F2F7FF"/>
<path d="M75.7192 388.025L43.7846 383.121L2.10571 411.201V513.049L306.699 419.768V349.33L190.37 306.497L75.7192 388.025Z" fill="#F2F7FF"/>
<path d="M107.811 365.698L190.381 306.497L177.913 335.729L221.72 353.576L190.487 455.385L81.3269 488.773L107.811 365.698Z" fill="#DFECFE"/>
<path d="M71.3883 389.308L43.4177 383.354L1.90308 411.201V462.601L53.796 429.02L71.3883 389.308Z" fill="#DFECFE"/>
<path d="M306.698 349.33L398.076 329.818L373.216 365.013L405.665 414.092L384.284 450.945L306.698 419.768V349.33Z" fill="#DFECFE"/>
<path d="M177.997 335.529L190.371 306.498L198.462 309.353L191.254 330.568L229.309 355.518L217.146 450.597L181.949 460.362L200.278 355.518L177.997 335.529Z" fill="#ACCBF9"/>
<path d="M177.997 335.529L190.371 306.498L198.462 309.353L191.254 330.568L229.309 355.518L217.146 450.597L181.949 460.362L200.278 355.518L177.997 335.529Z" fill="url(#paint0_linear_345_12791)"/>
<path d="M195.606 307.449L184.968 332.809M184.968 332.809L184.533 333.813L211.7 356.47L191.048 455.728C194.006 455.431 197.262 455.132 200.754 454.84L221.695 356.47L184.968 332.809Z" stroke="#7DA7E7" stroke-linejoin="bevel"/>
<path d="M180.217 335.654L193.139 307.449L198.374 309.353L191.254 330.568L229.309 355.518L217.146 450.597L181.949 460.362L200.278 355.518L180.217 335.654Z" fill="url(#paint1_linear_345_12791)"/>
</g>
<path d="M233.406 606.331L2.10547 513.049L306.698 419.768L537.999 513.049L233.406 606.331Z" fill="#AADBB7"/>
<path d="M233.406 606.331L2.10547 513.049L306.698 419.768L537.999 513.049L233.406 606.331Z" fill="url(#paint2_linear_345_12791)" fill-opacity="0.8"/>
<path d="M59.2871 536.5L77.2871 519.5L188.67 562.302L147.287 572L59.2871 536.5Z" fill="url(#paint3_linear_345_12791)" fill-opacity="0.8"/>
<path d="M2.10645 513.049L233.408 606.33V661.538L2.10645 568.256V513.049Z" fill="url(#paint4_linear_345_12791)"/>
<path d="M538 513.049L233.407 606.33V661.538L538 568.264V513.049Z" fill="url(#paint5_linear_345_12791)"/>
<path d="M229.949 829.094L0 736.792L305.509 644.49L535.458 736.792L229.949 829.094Z" fill="url(#paint6_radial_345_12791)" fill-opacity="0.75"/>
<ellipse cx="301.195" cy="438.785" rx="36.7048" ry="10.7955" fill="url(#paint7_radial_345_12791)"/>
<ellipse cx="104.716" cy="505.178" rx="36.7048" ry="10.2557" fill="url(#paint8_radial_345_12791)"/>
<ellipse cx="159.232" cy="483.048" rx="19.9717" ry="5.39776" fill="url(#paint9_radial_345_12791)" fill-opacity="0.5"/>
<ellipse cx="195.938" cy="472.792" rx="19.9717" ry="5.93754" fill="url(#paint10_radial_345_12791)" fill-opacity="0.5"/>
<ellipse cx="426.963" cy="500.319" rx="76.1084" ry="21.591" fill="url(#paint11_radial_345_12791)"/>
<mask id="mask1_345_12791" style="mask-type:alpha" maskUnits="userSpaceOnUse" x="177" y="306" width="214" height="402">
<path d="M177.997 335.529L190.371 306.497L198.462 309.353L191.255 330.567L229.31 355.517L217.146 450.597C263.805 448.291 280.257 442.052 312.622 450.597C349.665 460.376 339.929 468.904 373.71 490.064C390.649 500.675 392.077 519.355 388.274 559.214V617.753V676.292L285.945 707.703V591.101C300.699 557.786 310.342 560.047 316.667 543.508C321.702 530.342 334.237 513.045 316.667 496.981C298.867 480.706 296.439 468.906 262.861 467.686C235.999 466.709 204.875 457.649 181.95 460.362L200.278 355.517L177.997 335.529Z" fill="#ACCBF9"/>
<path d="M177.997 335.529L190.371 306.497L198.462 309.353L191.255 330.567L229.31 355.517L217.146 450.597C263.805 448.291 280.257 442.052 312.622 450.597C349.665 460.376 339.929 468.904 373.71 490.064C390.649 500.675 392.077 519.355 388.274 559.214V617.753V676.292L285.945 707.703V591.101C300.699 557.786 310.342 560.047 316.667 543.508C321.702 530.342 334.237 513.045 316.667 496.981C298.867 480.706 296.439 468.906 262.861 467.686C235.999 466.709 204.875 457.649 181.95 460.362L200.278 355.517L177.997 335.529Z" fill="url(#paint12_linear_345_12791)"/>
</mask>
<g mask="url(#mask1_345_12791)">
<path d="M262.861 467.686C235.998 466.71 204.875 457.65 181.95 460.362L217.146 450.597C263.805 448.291 280.257 442.053 312.622 450.597C349.665 460.377 339.929 468.904 373.71 490.064C390.649 500.675 392.077 519.355 388.274 559.214V617.753V676.292L285.945 707.703V591.101C300.699 557.787 310.342 560.048 316.667 543.509C321.702 530.343 334.237 513.046 316.667 496.981C298.867 480.706 296.439 468.907 262.861 467.686Z" fill="#ACCBF9"/>
<path d="M262.861 467.686C235.998 466.71 204.875 457.65 181.95 460.362L217.146 450.597C263.805 448.291 280.257 442.053 312.622 450.597C349.665 460.377 339.929 468.904 373.71 490.064C390.649 500.675 392.077 519.355 388.274 559.214V617.753V676.292L285.945 707.703V591.101C300.699 557.787 310.342 560.048 316.667 543.509C321.702 530.343 334.237 513.046 316.667 496.981C298.867 480.706 296.439 468.907 262.861 467.686Z" fill="url(#paint13_linear_345_12791)"/>
<path d="M263.112 452.436C286.232 452.773 299.271 450.227 316.448 460.587C335.416 472.029 357.197 483.14 371.136 506.862C376.312 515.671 378.275 542.556 373.041 564.68C371.612 566.353 369.796 641.549 372.175 684.859M263.112 452.436C279.398 455.153 305.048 460.799 314.819 471.167C327.034 484.128 350.411 482.774 357.569 515.316C362.724 538.747 354.917 543.508 346.984 571.971C342.58 587.769 345.523 662.49 345.523 691.046M263.112 452.436C241.593 452.123 218.223 453.381 200.754 454.839C197.262 455.131 194.006 455.43 191.048 455.727C227.012 456.807 284.409 449.599 303.827 473.548C319.26 492.584 342.985 489.225 336.398 536.733C334.769 548.479 326.462 553.503 314.819 581.287C308.314 596.812 311.733 671.533 311.733 700.564" stroke="#7DA7E7" stroke-width="2" stroke-linejoin="bevel"/>
<path d="M262.861 467.686C235.998 466.71 204.875 457.65 181.95 460.362L217.146 450.597C263.805 448.291 280.257 442.053 312.622 450.597C349.665 460.377 339.929 468.904 373.71 490.064C390.649 500.675 392.077 519.355 388.274 559.214V617.753V676.292L285.945 707.703V591.101C300.699 557.787 310.342 560.048 316.667 543.509C321.702 530.343 334.237 513.046 316.667 496.981C298.867 480.706 296.439 468.907 262.861 467.686Z" fill="url(#paint14_linear_345_12791)"/>
</g>
<path d="M99.3991 472.971L101.432 472.898L101.536 477.52L102.194 477.852L102.336 483.377L104.177 484.047L103.669 500.811L102.336 500.573L97.9518 499.723L86.8213 466.295L90.3688 471.772L98.5448 479.326L98.7064 475.927L99.1214 476.16L99.3991 472.971Z" fill="#AADBB7"/>
<path d="M99.3991 472.971L101.432 472.898L101.536 477.52L102.194 477.852L102.336 483.377L104.177 484.047L103.669 500.811L102.336 500.573L97.9518 499.723L86.8213 466.295L90.3688 471.772L98.5448 479.326L98.7064 475.927L99.1214 476.16L99.3991 472.971Z" fill="url(#paint15_linear_345_12791)"/>
<path d="M99.3293 472.905H101.426L101.536 477.52L102.194 477.867L102.334 483.252L104.193 484.044L103.669 500.811L102.336 500.573L102.479 490.469L98.3203 484.047L90.3688 471.771L98.5448 479.326L98.7194 475.947L99.1214 476.16L99.3293 472.905Z" fill="#48A7A1"/>
<path d="M102.336 500.573L102.479 490.469L98.3203 484.047L90.3688 471.772L98.5448 479.326L98.3203 484.047L102.479 490.469L102.334 483.252L104.193 484.044L103.669 500.811L102.336 500.573Z" fill="#48A7A1"/>
<path d="M102.336 500.573L102.479 490.469L98.3203 484.047L90.3688 471.772L97.72 482.234L97.958 478.784L98.5448 479.326L98.3656 483.094L102.479 488.569L102.336 483.235L103.257 483.641L102.765 500.649L102.336 500.573Z" fill="#25938C"/>
<path d="M99.1214 476.16L101.536 477.52L101.527 477.138L99.1478 475.756L99.1214 476.16Z" fill="#25938C"/>
<path d="M99.4991 472.905L92.1039 467.883L90.5947 459.873L92.4813 455.152L93.8018 457.796L97.2353 452.13L98.3295 453.641L99.0841 452.319L101.914 455.405L102.103 454.339H103.612L107.762 461.951L101.31 472.905H99.4991Z" fill="#F6E4A1"/>
<path d="M98.3294 453.641L101.537 457.796L101.914 455.405L99.084 452.319L98.3294 453.641Z" fill="#EBC644"/>
<path d="M101.344 472.905H99.5331L98.3727 472.117L101.065 472.374L100.143 470.622L93.8358 457.796L94.2961 457.036L99.9295 469.326L100.984 457.036L98.3634 453.641L98.4679 453.458L101.069 456.346L101.276 454.655L101.948 455.405L101.69 457.036L101.571 457.796L100.179 470.302L101.544 472.565L101.344 472.905Z" fill="#EBC644"/>
<path d="M268.804 467.316L267.141 467.256L267.056 471.046L266.518 471.318L266.401 475.849L264.895 476.398L265.311 490.145L266.401 489.949L269.989 489.252L279.095 461.841L276.193 466.332L269.504 472.527L269.371 469.739L269.032 469.931L268.804 467.316Z" fill="#AADBB7"/>
<path d="M268.804 467.316L267.141 467.256L267.056 471.046L266.518 471.318L266.401 475.849L264.895 476.398L265.311 490.145L266.401 489.949L269.989 489.252L279.095 461.841L276.193 466.332L269.504 472.527L269.371 469.739L269.032 469.931L268.804 467.316Z" fill="url(#paint16_linear_345_12791)"/>
<path d="M268.862 467.261H267.146L267.056 471.046L266.518 471.33L266.403 475.746L264.883 476.396L265.311 490.145L266.401 489.949L266.284 481.664L269.687 476.398L276.193 466.332L269.504 472.527L269.361 469.756L269.032 469.931L268.862 467.261Z" fill="#48A7A1"/>
<path d="M266.401 489.949L266.284 481.664L269.687 476.398L276.193 466.332L269.504 472.527L269.687 476.398L266.284 481.664L266.403 475.746L264.883 476.396L265.311 490.145L266.401 489.949Z" fill="#48A7A1"/>
<path d="M266.401 489.949L266.284 481.664L269.687 476.398L276.193 466.332L270.178 474.912L269.984 472.082L269.504 472.527L269.65 475.616L266.284 480.106L266.401 475.732L265.648 476.065L266.051 490.012L266.401 489.949Z" fill="#25938C"/>
<path d="M269.032 469.931L267.056 471.046L267.063 470.732L269.01 469.6L269.032 469.931Z" fill="#25938C"/>
<path d="M268.723 467.261L274.773 463.144L276.008 456.576L274.465 452.704L273.384 454.872L270.575 450.226L269.68 451.465L269.062 450.381L266.747 452.911L266.593 452.038H265.358L261.962 458.279L267.241 467.261H268.723Z" fill="#FBE6DC"/>
<path d="M269.68 451.465L267.056 454.872L266.747 452.911L269.062 450.381L269.68 451.465Z" fill="#FFB1B1"/>
<path d="M267.213 467.261H268.695L269.644 466.615L267.441 466.826L268.196 465.39L273.356 454.872L272.98 454.249L268.37 464.327L267.508 454.249L269.652 451.465L269.566 451.315L267.438 453.683L267.269 452.296L266.719 452.911L266.93 454.249L267.028 454.872L268.166 465.127L267.049 466.983L267.213 467.261Z" fill="#FFB1B1"/>
<path d="M273.787 253.156L277.931 254.072L282.075 253.156L288.281 269.195L300.493 249.948L307.411 260.946L322.161 231.159L323.976 227.493L318.451 263.446L370.021 251.781L357.129 261.863L315.688 276.259L311.083 304.939L302.335 300.815L296.485 301.273L293.586 306.772L290.363 296.753L284.377 302.648L277.715 264.818L274.707 272.861L274.332 264.818L235.108 228.868L253.066 238.033L273.829 254.072L273.787 253.156Z" fill="#FBE6DC"/>
<path d="M299.111 267.82L294.507 284.776L294.488 285.234L294.091 294.718L305.81 276.259L370.021 251.781L357.129 261.863L315.688 276.259L311.083 304.939L302.335 300.815L296.485 301.273L293.586 306.772L290.363 296.753L284.377 302.648L277.715 264.818L278.991 261.405L294.091 294.718L294.488 285.234L288.281 269.195L300.493 249.948L299.572 267.716L310.162 265.321L309.241 263.857L307.411 260.946L322.161 231.159L309.241 263.857L310.162 265.321L299.572 267.716L299.111 267.82Z" fill="#F7A9A8"/>
<path d="M274.332 264.818L235.108 228.868L253.066 242.616L274.129 260.488L274.332 264.818Z" fill="#F7A9A8"/>
<path d="M299.112 267.82L294.507 284.776L294.488 285.234L293.586 306.772L296.485 301.273L308.321 278.818L315.688 276.259L315.277 278.818L308.948 281.723L302.335 300.815L296.485 301.273L293.586 306.772L290.363 296.753L289.22 297.879L278.074 263.857L278.991 261.405L282.075 253.156L282.623 254.572L280.089 264.818L290.363 296.753L293.586 306.772L294.488 285.234L288.281 269.195L289.22 267.716L294.331 284.714L298.418 266.981L299.637 266.454L309.241 263.857L307.411 260.946L308.199 259.354L309.737 262.603L318.742 261.552L318.451 263.446L310.162 265.321L299.572 267.716L299.112 267.82Z" fill="#EF798A"/>
<path d="M381.949 398.421L359.8 417.257L385.305 406.823L400.071 462.328L404.583 457.268L407.421 465.461L430.274 452.237L447.789 458.292L457.881 439.818L516.855 441.474L490.679 422.639H468.531L514.171 354.023L456.358 417.832L453.926 415.239L454.436 393.712L416.85 326.485L397.96 402.748L409.629 423.657L406.111 426.226L392.688 403.803L381.949 398.421Z" fill="#D2D4F8"/>
<path d="M404.583 457.268L407.421 465.461L412.284 439.818L413.371 438.291L430.274 452.237L447.789 458.292L457.881 439.818L516.855 441.474L437.763 428.424L414.458 436.765L440.341 400.439L453.926 415.239L454.436 393.712L416.85 326.485L431.897 406.823L409.629 423.657L406.111 426.226L413.274 437.855L412.284 439.818L407.421 465.461L404.583 457.268L388.661 405.45L385.305 406.823L400.071 462.328L404.583 457.268Z" fill="#A491DD"/>
<path d="M392.687 403.803L388.66 405.45L388.445 405.538L387.882 405.769L385.304 406.823L385.736 408.448L388.253 407.029L403.428 458.562L403.69 458.268L404.582 457.268L407.421 465.461L412.283 439.818L413.37 438.291L416.849 438.398L430.512 445.411L429.44 452.719L430.273 452.237L430.887 452.45L432.655 445.411L442.354 439.183L436.405 441.661L431.615 444.838L423.548 440.59L416.849 438.398L413.37 438.291L414.306 436.977L414.458 436.765L451.079 423.657L453.925 422.639H468.53L470.154 420.233L453.211 421.304L456.357 417.832L455.69 417.121L453.925 415.239L438.012 396.126L409.628 423.657L440.34 400.439L453.925 415.239L455.69 417.121L414.786 436.304L414.458 436.765L414.306 436.977L413.337 435.633L406.405 426.011L406.111 426.226L412.528 436.893L410.155 440.59L407.421 465.461L404.582 457.268L389.013 406.6L393.012 404.346L392.687 403.803Z" fill="#6D4685"/>
<path d="M392.687 403.803L388.66 405.45L388.445 405.538L387.882 405.769L385.304 406.823L385.736 408.448L388.253 407.029L403.428 458.562L403.69 458.268L404.582 457.268L407.421 465.461L412.283 439.818L455.995 443.268L457.88 439.818L442.354 439.183L416.849 438.398L413.37 438.291L414.306 436.977L414.458 436.765L451.079 423.657L453.925 422.639H468.53L470.154 420.233L453.211 421.304L456.357 417.832L455.69 417.121L453.925 415.239L438.012 396.126L409.628 423.657L440.34 400.439L453.925 415.239L455.69 417.121L414.786 436.304L414.458 436.765L414.306 436.977L438.012 403.626L412.283 434.169L406.405 426.011L406.111 426.226L412.528 436.893L410.155 440.59L407.421 465.461L404.582 457.268L389.013 406.6L393.012 404.346L392.687 403.803Z" fill="#6D4685"/>
<path d="M414.458 436.765L440.34 400.439L432.654 406.305L416.849 326.485L430.512 407.87L432.654 406.305L440.34 400.439L414.458 436.765L436.404 428.91L516.854 441.474L439.619 427.759L436.404 428.91L414.458 436.765Z" fill="#6D4685"/>
<path d="M98.6565 268.424L108.89 292.148H88.423L98.6565 268.424Z" fill="#EBC644"/>
<path d="M129.923 281.146L105.911 290.686L120.384 305.158L129.923 281.146Z" fill="#EBC644"/>
<path d="M98.6565 356.412L108.89 332.688H88.423L98.6565 356.412Z" fill="#EBC644"/>
<path d="M129.195 342.779L119.655 318.767L105.183 333.239L129.195 342.779Z" fill="#EBC644"/>
<path d="M142.105 311.87L118.381 301.637V322.104L142.105 311.87Z" fill="#EBC644"/>
<path d="M67.9265 342.779L91.9383 333.24L77.4658 318.767L67.9265 342.779Z" fill="#EBC644"/>
<path d="M55.2056 311.873L78.9298 322.106V301.639L55.2056 311.873Z" fill="#EBC644"/>
<path d="M67.9263 281.143L77.4657 305.154L91.9381 290.682L67.9263 281.143Z" fill="#EBC644"/>
<path d="M88.4548 287.671L98.612 287.671L108.769 287.671L123.134 302.036L123.134 312.193L123.134 322.35L108.769 336.714L98.612 336.714L88.4548 336.714L74.0903 322.35L74.0903 312.193L74.0903 302.036L88.4548 287.671Z" fill="#F6E4A1"/>
<path d="M208.658 596.336C221.032 601.571 215.321 599.191 231.503 605.378C233.406 606.806 242.925 602.999 250.54 601.095C242.449 598.24 243.48 595.86 230.075 595.86C216.67 595.86 208.658 592.919 208.658 596.336Z" fill="url(#paint17_radial_345_12791)" fill-opacity="0.4"/>
<path d="M20.1915 520.413C32.5656 525.648 26.8544 523.268 43.0359 529.455C44.9396 530.883 54.4582 527.075 62.073 525.172C53.9823 522.316 55.0134 519.936 41.6082 519.936C28.203 519.936 20.1915 516.996 20.1915 520.413Z" fill="url(#paint18_radial_345_12791)" fill-opacity="0.4"/>
<path d="M270.053 564.924C271.481 558.737 271.481 549.056 287.662 542.869C289.566 541.441 296.978 544.149 297.454 546.365C288.412 564.45 287.46 566.829 278.144 570.16C274.134 568.731 272.23 570.159 270.053 564.924Z" fill="url(#paint19_radial_345_12791)" fill-opacity="0.4"/>
<path d="M402.158 549.595C405.284 542.08 408.345 538.749 413.622 530.416C414.943 529.174 420.389 533.49 420.719 535.417C418.815 540.652 417.065 554.147 407.769 554.147C404.798 556.631 399.302 556.834 402.158 549.595Z" fill="url(#paint20_radial_345_12791)" fill-opacity="0.4"/>
<path d="M515.819 512.673C513.254 518.053 513.254 526.472 484.18 531.851C480.76 533.093 468.514 528.448 465.658 525.899C460.422 518.76 477.197 508.12 501.282 508.12C508.978 505.637 520.95 504.811 515.819 512.673Z" fill="url(#paint21_radial_345_12791)" fill-opacity="0.4"/>
<path d="M322.199 456.501C323.179 452.91 323.179 447.292 334.278 443.702C335.583 442.873 340.258 445.973 341.348 447.674C343.347 452.439 336.943 459.539 327.749 459.539C324.811 461.196 320.241 461.748 322.199 456.501Z" fill="url(#paint22_radial_345_12791)" fill-opacity="0.4"/>
<path d="M98.9925 276.989L99.0056 0" stroke="#EBC644"/>
<path d="M299.975 251.289V28.5555" stroke="#F7A9A8"/>
<path d="M440.708 400.873V29.5074" stroke="#A491DD"/>
<path d="M299.39 519.56L188.09 359.884L76.7902 519.676L124.82 538.264L188.09 562.51L254.131 538.264L299.39 519.56Z" fill="url(#paint23_linear_345_12791)"/>
<path d="M188.09 359.884L76.7901 519.676L124.82 538.264L188.09 562.51V359.884Z" fill="url(#paint24_linear_345_12791)"/>
<path d="M124.819 538.264L188.09 359.884L254.131 538.264" stroke="#25938C" stroke-width="1.5" stroke-linejoin="bevel"/>
<g filter="url(#filter0_d_345_12791)">
<path d="M239.813 430.71L187.973 357L136.479 431.123L153.221 415.883L150.969 442.266L167.884 411.149V443.708L178.852 416.691L184.74 432.046L189.306 408.814L196.608 450.173L200.904 416.691L209.995 438.009L208.986 408.814L229.999 441.514L220.878 413.689L239.813 430.71Z" fill="#FEFEFE"/>
</g>
<path d="M184.74 432.046L189.306 408.814L187.973 357L136.48 431.123L153.221 415.883L150.969 442.266L167.884 411.149V443.708L178.852 416.691L184.74 432.046Z" fill="#C7DBF5"/>
<path d="M416.716 502.485L414.036 502.388L413.899 508.489L413.032 508.927L412.844 516.221L410.417 517.105L411.087 539.233L412.844 538.919L418.624 537.797L433.296 493.672L428.619 500.901L417.842 510.873L417.629 506.386L417.082 506.694L416.716 502.485Z" fill="#AADBB7"/>
<path d="M416.716 502.485L414.036 502.388L413.899 508.489L413.032 508.927L412.844 516.221L410.417 517.105L411.087 539.233L412.844 538.919L418.624 537.797L433.296 493.672L428.619 500.901L417.842 510.873L417.629 506.386L417.082 506.694L416.716 502.485Z" fill="url(#paint25_linear_345_12791)"/>
<path d="M416.808 502.397H414.045L413.899 508.489L413.031 508.947L412.847 516.055L410.397 517.101L411.087 539.233L412.844 538.919L412.655 525.581L418.138 517.105L428.619 500.901L417.842 510.873L417.612 506.412L417.082 506.694L416.808 502.397Z" fill="#48A7A1"/>
<path d="M412.844 538.919L412.655 525.581L418.138 517.105L428.619 500.901L417.842 510.873L418.138 517.105L412.655 525.581L412.847 516.055L410.397 517.101L411.087 539.233L412.844 538.919Z" fill="#48A7A1"/>
<path d="M412.844 538.919L412.655 525.581L418.138 517.105L428.619 500.901L418.929 514.712L418.615 510.157L417.842 510.873L418.078 515.846L412.655 523.074L412.844 516.032L411.631 516.569L412.279 539.02L412.844 538.919Z" fill="#25938C"/>
<path d="M417.082 506.694L413.899 508.489L413.91 507.984L417.047 506.161L417.082 506.694Z" fill="#25938C"/>
<path d="M416.584 502.397L426.332 495.768L428.322 485.196L425.835 478.963L424.094 482.453L419.568 474.974L418.126 476.969L417.131 475.224L413.401 479.297L413.152 477.891H411.163L405.692 487.938L414.197 502.397H416.584Z" fill="#F6E4A1"/>
<path d="M418.126 476.969L413.898 482.453L413.401 479.297L417.131 475.224L418.126 476.969Z" fill="#EBC644"/>
<path d="M414.152 502.397H416.539L418.069 501.357L414.52 501.697L415.735 499.384L424.049 482.453L423.443 481.451L416.017 497.673L414.626 481.451L418.081 476.969L417.943 476.727L414.515 480.54L414.242 478.307L413.356 479.297L413.696 481.451L413.853 482.453L415.688 498.961L413.888 501.948L414.152 502.397Z" fill="#EBC644"/>
<path d="M489.631 494.745L487.506 494.67L487.397 499.476L486.71 499.822L486.561 505.568L484.636 506.265L485.167 523.699L486.561 523.451L491.145 522.567L502.781 487.802L499.072 493.498L490.525 501.354L490.356 497.819L489.922 498.062L489.631 494.745Z" fill="#AADBB7"/>
<path d="M489.631 494.745L487.506 494.67L487.397 499.476L486.71 499.822L486.561 505.568L484.636 506.265L485.167 523.699L486.561 523.451L491.145 522.567L502.781 487.802L499.072 493.498L490.525 501.354L490.356 497.819L489.922 498.062L489.631 494.745Z" fill="url(#paint26_linear_345_12791)"/>
<path d="M489.704 494.676H487.513L487.397 499.476L486.709 499.837L486.563 505.437L484.62 506.261L485.167 523.699L486.561 523.451L486.411 512.943L490.759 506.265L499.072 493.498L490.525 501.354L490.342 497.84L489.922 498.062L489.704 494.676Z" fill="#48A7A1"/>
<path d="M486.561 523.451L486.411 512.943L490.759 506.265L499.072 493.498L490.525 501.354L490.759 506.265L486.411 512.943L486.563 505.437L484.62 506.261L485.167 523.699L486.561 523.451Z" fill="#48A7A1"/>
<path d="M486.561 523.451L486.411 512.943L490.759 506.265L499.072 493.498L491.387 504.379L491.138 500.791L490.525 501.354L490.712 505.273L486.411 510.968L486.561 505.419L485.598 505.842L486.113 523.531L486.561 523.451Z" fill="#25938C"/>
<path d="M489.922 498.062L487.397 499.476L487.406 499.078L489.894 497.642L489.922 498.062Z" fill="#25938C"/>
<path d="M489.527 494.676L497.258 489.454L498.836 481.124L496.864 476.213L495.483 478.963L491.894 473.071L490.75 474.642L489.961 473.267L487.003 476.476L486.805 475.368H485.227L480.888 483.284L487.634 494.676H489.527Z" fill="#F6E4A1"/>
<path d="M490.75 474.642L487.397 478.963L487.002 476.476L489.961 473.267L490.75 474.642Z" fill="#EBC644"/>
<path d="M487.598 494.676H489.491L490.705 493.857L487.89 494.125L488.853 492.302L495.448 478.963L494.966 478.173L489.077 490.955L487.974 478.173L490.714 474.642L490.605 474.452L487.886 477.455L487.669 475.696L486.967 476.476L487.236 478.173L487.361 478.963L488.816 491.97L487.389 494.323L487.598 494.676Z" fill="#EBC644"/>
<path d="M295.073 519.612L293.04 519.539L292.936 524.161L292.279 524.493L292.136 530.018L290.295 530.688L290.803 547.452L292.136 547.214L296.521 546.364L307.651 512.935L304.104 518.412L295.928 525.967L295.766 522.567L295.351 522.801L295.073 519.612Z" fill="#AADBB7"/>
<path d="M295.073 519.612L293.04 519.539L292.936 524.161L292.279 524.493L292.136 530.018L290.295 530.688L290.803 547.452L292.136 547.214L296.521 546.364L307.651 512.935L304.104 518.412L295.928 525.967L295.766 522.567L295.351 522.801L295.073 519.612Z" fill="url(#paint27_linear_345_12791)"/>
<path d="M295.143 519.545H293.047L292.936 524.161L292.278 524.507L292.138 529.892L290.28 530.685L290.803 547.452L292.136 547.214L291.993 537.109L296.152 530.688L304.104 518.412L295.928 525.967L295.753 522.587L295.351 522.801L295.143 519.545Z" fill="#48A7A1"/>
<path d="M292.136 547.214L291.993 537.109L296.152 530.688L304.104 518.412L295.928 525.967L296.152 530.688L291.993 537.109L292.138 529.893L290.28 530.685L290.803 547.452L292.136 547.214Z" fill="#48A7A1"/>
<path d="M292.136 547.214L291.993 537.109L296.152 530.688L304.104 518.412L296.752 528.875L296.514 525.425L295.928 525.967L296.107 529.734L291.993 535.21L292.136 529.875L291.215 530.282L291.708 547.29L292.136 547.214Z" fill="#25938C"/>
<path d="M295.351 522.801L292.936 524.161L292.945 523.778L295.325 522.397L295.351 522.801Z" fill="#25938C"/>
<path d="M294.973 519.545L302.368 514.524L303.878 506.514L301.991 501.793L300.671 504.437L297.237 498.771L296.143 500.282L295.388 498.96L292.559 502.045L292.37 500.98H290.861L286.71 508.592L293.162 519.545H294.973Z" fill="#D2D4F8"/>
<path d="M296.143 500.282L292.936 504.437L292.559 502.045L295.388 498.96L296.143 500.282Z" fill="#A491DD"/>
<path d="M293.128 519.545H294.939L296.1 518.757L293.407 519.015L294.329 517.263L300.637 504.437L300.176 503.677L294.543 515.967L293.488 503.677L296.109 500.282L296.005 500.099L293.404 502.987L293.197 501.295L292.525 502.045L292.782 503.677L292.902 504.437L294.293 516.943L292.928 519.205L293.128 519.545Z" fill="#A491DD"/>
<path d="M281.017 519.5L283.79 519.4L283.932 525.686L284.828 526.138L285.023 533.652L287.533 534.563L286.84 557.362L285.023 557.038L279.044 555.882L263.866 510.42L268.703 517.868L279.852 528.142L280.073 523.519L280.639 523.837L281.017 519.5Z" fill="#AADBB7"/>
<path d="M281.017 519.5L283.79 519.4L283.932 525.686L284.828 526.138L285.023 533.652L287.533 534.563L286.84 557.362L285.023 557.038L279.044 555.882L263.866 510.42L268.703 517.868L279.852 528.142L280.073 523.519L280.639 523.837L281.017 519.5Z" fill="url(#paint28_linear_345_12791)"/>
<path d="M280.922 519.409H283.781L283.932 525.686L284.829 526.158L285.019 533.481L287.554 534.559L286.84 557.362L285.023 557.038L285.218 543.296L279.546 534.563L268.703 517.868L279.852 528.142L280.09 523.546L280.639 523.837L280.922 519.409Z" fill="#48A7A1"/>
<path d="M285.023 557.038L285.218 543.296L279.546 534.563L268.703 517.868L279.852 528.142L279.546 534.563L285.218 543.296L285.019 533.481L287.554 534.559L286.84 557.362L285.023 557.038Z" fill="#48A7A1"/>
<path d="M285.023 557.038L285.218 543.296L279.546 534.563L268.703 517.868L278.728 532.097L279.052 527.405L279.852 528.142L279.608 533.266L285.218 540.713L285.023 533.458L286.278 534.011L285.607 557.142L285.023 557.038Z" fill="#25938C"/>
<path d="M280.639 523.837L283.932 525.686L283.92 525.166L280.675 523.287L280.639 523.837Z" fill="#25938C"/>
<path d="M281.154 519.409L271.069 512.58L269.011 501.687L271.584 495.266L273.385 498.861L278.067 491.156L279.559 493.211L280.588 491.413L284.446 495.609L284.704 494.161H286.762L292.421 504.512L283.623 519.409H281.154Z" fill="#F6E4A1"/>
<path d="M279.559 493.211L283.932 498.861L284.446 495.609L280.588 491.413L279.559 493.211Z" fill="#EBC644"/>
<path d="M283.67 519.409H281.2L279.618 518.338L283.289 518.688L282.032 516.305L273.431 498.861L274.059 497.828L281.741 514.543L283.179 497.828L279.605 493.211L279.747 492.962L283.294 496.89L283.576 494.589L284.493 495.609L284.142 497.828L283.978 498.861L282.081 515.87L283.943 518.947L283.67 519.409Z" fill="#EBC644"/>
<path d="M474.99 483.504L477.3 483.42L477.418 488.689L478.165 489.068L478.328 495.367L480.42 496.131L479.842 515.241L478.328 514.97L473.345 514L460.697 475.892L464.728 482.136L474.019 490.748L474.203 486.873L474.674 487.139L474.99 483.504Z" fill="#AADBB7"/>
<path d="M474.99 483.504L477.3 483.42L477.418 488.689L478.165 489.068L478.328 495.367L480.42 496.131L479.842 515.241L478.328 514.97L473.345 514L460.697 475.892L464.728 482.136L474.019 490.748L474.203 486.873L474.674 487.139L474.99 483.504Z" fill="url(#paint29_linear_345_12791)"/>
<path d="M474.91 483.428H477.293L477.418 488.689L478.166 489.085L478.325 495.224L480.437 496.127L479.842 515.241L478.328 514.97L478.49 503.451L473.764 496.131L464.728 482.136L474.019 490.748L474.217 486.896L474.674 487.139L474.91 483.428Z" fill="#48A7A1"/>
<path d="M478.328 514.97L478.49 503.451L473.764 496.131L464.728 482.136L474.019 490.748L473.764 496.131L478.49 503.451L478.325 495.224L480.437 496.127L479.842 515.241L478.328 514.97Z" fill="#48A7A1"/>
<path d="M478.328 514.97L478.49 503.451L473.764 496.131L464.728 482.136L473.082 494.063L473.352 490.13L474.019 490.748L473.815 495.043L478.49 501.286L478.328 495.204L479.374 495.667L478.814 515.057L478.328 514.97Z" fill="#25938C"/>
<path d="M474.674 487.139L477.418 488.689L477.408 488.253L474.704 486.678L474.674 487.139Z" fill="#25938C"/>
<path d="M475.103 483.428L466.7 477.703L464.985 468.572L467.128 463.19L468.629 466.204L472.531 459.745L473.774 461.467L474.632 459.96L477.847 463.478L478.062 462.263H479.777L484.493 470.94L477.161 483.428H475.103Z" fill="#D2D4F8"/>
<path d="M473.774 461.467L477.419 466.204L477.847 463.478L474.632 459.96L473.774 461.467Z" fill="#A491DD"/>
<path d="M477.2 483.428H475.142L473.823 482.53L476.883 482.823L475.836 480.826L468.668 466.204L469.191 465.338L475.593 479.348L476.791 465.338L473.813 461.467L473.932 461.259L476.887 464.551L477.123 462.623L477.886 463.478L477.594 465.338L477.457 466.204L475.876 480.461L477.428 483.04L477.2 483.428Z" fill="#A491DD"/>
<path d="M51.3989 495.816L49.3659 495.743L49.2619 500.364L48.6044 500.696L48.4616 506.222L46.6208 506.892L47.129 523.655L48.4616 523.417L52.8463 522.567L63.9768 489.139L60.4293 494.616L52.2533 502.17L52.0917 498.771L51.6766 499.005L51.3989 495.816Z" fill="#AADBB7"/>
<path d="M51.3989 495.816L49.3659 495.743L49.2619 500.364L48.6044 500.696L48.4616 506.222L46.6208 506.892L47.129 523.655L48.4616 523.417L52.8463 522.567L63.9768 489.139L60.4293 494.616L52.2533 502.17L52.0917 498.771L51.6766 499.005L51.3989 495.816Z" fill="url(#paint30_linear_345_12791)"/>
<path d="M51.4688 495.749H49.3725L49.2619 500.364L48.6039 500.711L48.4641 506.096L46.6055 506.889L47.129 523.655L48.4616 523.417L48.3186 513.313L52.4778 506.892L60.4293 494.616L52.2533 502.17L52.0786 498.791L51.6766 499.004L51.4688 495.749Z" fill="#48A7A1"/>
<path d="M48.4616 523.417L48.3186 513.313L52.4778 506.892L60.4293 494.616L52.2533 502.17L52.4778 506.892L48.3186 513.313L48.4641 506.096L46.6055 506.889L47.129 523.655L48.4616 523.417Z" fill="#48A7A1"/>
<path d="M48.4616 523.417L48.3186 513.313L52.4778 506.892L60.4293 494.616L53.0781 505.079L52.8401 501.628L52.2533 502.17L52.4325 505.938L48.3186 511.414L48.4616 506.079L47.5412 506.485L48.0333 523.494L48.4616 523.417Z" fill="#25938C"/>
<path d="M51.6766 499.005L49.2619 500.364L49.2707 499.982L51.6503 498.601L51.6766 499.005Z" fill="#25938C"/>
<path d="M51.299 495.749L58.6941 490.727L60.2034 482.718L58.3168 477.996L56.9963 480.64L53.5628 474.974L52.4686 476.485L51.714 475.163L48.8842 478.249L48.6955 477.184H47.1863L43.036 484.795L49.4879 495.749H51.299Z" fill="#D2D4F8"/>
<path d="M52.4687 476.485L49.2616 480.64L48.8843 478.249L51.714 475.163L52.4687 476.485Z" fill="#A491DD"/>
<path d="M49.454 495.749H51.265L52.4254 494.961L49.7331 495.219L50.6548 493.466L56.9623 480.64L56.502 479.881L50.8685 492.17L49.8139 479.881L52.4347 476.485L52.3302 476.302L49.7294 479.19L49.5223 477.499L48.8503 478.249L49.1077 479.881L49.2276 480.64L50.6192 493.146L49.2537 495.409L49.454 495.749Z" fill="#A491DD"/>
<path d="M35.631 484.462L38.5882 484.355L38.7395 491.103L39.6958 491.588L39.9035 499.655L42.5811 500.633L41.8418 525.108L39.9035 524.76L33.5258 523.519L17.3359 474.714L22.496 482.71L34.3883 493.74L34.6234 488.776L35.2271 489.118L35.631 484.462Z" fill="#AADBB7"/>
<path d="M35.631 484.462L38.5882 484.355L38.7395 491.103L39.6958 491.588L39.9035 499.655L42.5811 500.633L41.8418 525.108L39.9035 524.76L33.5258 523.519L17.3359 474.714L22.496 482.71L34.3883 493.74L34.6234 488.776L35.2271 489.118L35.631 484.462Z" fill="url(#paint31_linear_345_12791)"/>
<path d="M35.5294 484.365H38.5785L38.7395 491.103L39.6966 491.609L39.8999 499.471L42.6033 500.628L41.8418 525.108L39.9035 524.76L40.1115 510.008L34.0617 500.633L22.496 482.71L34.3883 493.74L34.6424 488.806L35.2271 489.118L35.5294 484.365Z" fill="#48A7A1"/>
<path d="M39.9035 524.76L40.1115 510.008L34.0617 500.633L22.496 482.71L34.3883 493.74L34.0617 500.633L40.1115 510.008L39.8999 499.471L42.6033 500.628L41.8418 525.108L39.9035 524.76Z" fill="#48A7A1"/>
<path d="M39.9035 524.76L40.1115 510.008L34.0617 500.633L22.496 482.71L33.1886 497.986L33.5347 492.948L34.3883 493.74L34.1277 499.24L40.1115 507.235L39.9035 499.446L41.2423 500.04L40.5265 524.872L39.9035 524.76Z" fill="#25938C"/>
<path d="M35.2271 489.118L38.7395 491.103L38.7267 490.544L35.2654 488.528L35.2271 489.118Z" fill="#25938C"/>
<path d="M35.7763 484.365L25.0197 477.033L22.8245 465.339L25.5685 458.445L27.4893 462.306L32.4835 454.034L34.075 456.24L35.1726 454.309L39.2887 458.814L39.5631 457.259H41.7583L47.7952 468.372L38.4106 484.365H35.7763Z" fill="#D2D4F8"/>
<path d="M34.0751 456.24L38.74 462.306L39.2888 458.814L35.1727 454.309L34.0751 456.24Z" fill="#A491DD"/>
<path d="M38.4602 484.365H35.8259L34.1381 483.214L38.0542 483.59L36.7135 481.032L27.5389 462.306L28.2084 461.197L36.4026 479.14L37.9366 461.197L34.1246 456.24L34.2765 455.972L38.0596 460.189L38.3608 457.72L39.3383 458.814L38.9638 461.197L38.7895 462.306L36.7653 480.565L38.7515 483.868L38.4602 484.365Z" fill="#A491DD"/>
<path d="M217.435 557.754L220.392 557.648L220.543 564.396L221.5 564.88L221.707 572.947L224.385 573.926L223.646 598.401L221.707 598.053L215.33 596.812L199.14 548.007L204.3 556.003L216.192 567.032L216.427 562.069L217.031 562.41L217.435 557.754Z" fill="#AADBB7"/>
<path d="M217.435 557.754L220.392 557.648L220.543 564.396L221.5 564.88L221.707 572.947L224.385 573.926L223.646 598.401L221.707 598.053L215.33 596.812L199.14 548.007L204.3 556.003L216.192 567.032L216.427 562.069L217.031 562.41L217.435 557.754Z" fill="url(#paint32_linear_345_12791)"/>
<path d="M217.333 557.657H220.383L220.543 564.396L221.501 564.902L221.704 572.764L224.407 573.921L223.646 598.401L221.707 598.053L221.915 583.301L215.866 573.926L204.3 556.003L216.192 567.032L216.446 562.099L217.031 562.41L217.333 557.657Z" fill="#48A7A1"/>
<path d="M221.707 598.053L221.915 583.301L215.866 573.926L204.3 556.003L216.192 567.032L215.866 573.926L221.915 583.301L221.704 572.764L224.407 573.921L223.646 598.401L221.707 598.053Z" fill="#48A7A1"/>
<path d="M221.707 598.053L221.915 583.301L215.866 573.926L204.3 556.003L214.993 571.278L215.339 566.241L216.192 567.032L215.932 572.533L221.915 580.528L221.707 572.739L223.046 573.332L222.33 598.165L221.707 598.053Z" fill="#25938C"/>
<path d="M217.031 562.41L220.543 564.396L220.531 563.837L217.069 561.82L217.031 562.41Z" fill="#25938C"/>
<path d="M217.58 557.657L206.824 550.325L204.628 538.632L207.372 531.738L209.293 535.598L214.287 527.326L215.879 529.532L216.977 527.602L221.093 532.107L221.367 530.552H223.562L229.599 541.665L220.215 557.657H217.58Z" fill="#FBE6DC"/>
<path d="M215.879 529.532L220.544 535.598L221.093 532.107L216.977 527.602L215.879 529.532Z" fill="#FFB1B1"/>
<path d="M220.264 557.657H217.63L215.942 556.507L219.858 556.883L218.517 554.325L209.343 535.598L210.012 534.489L218.207 552.433L219.741 534.489L215.929 529.532L216.08 529.265L219.864 533.482L220.165 531.012L221.142 532.107L220.768 534.489L220.593 535.598L218.569 553.857L220.555 557.161L220.264 557.657Z" fill="#FFB1B1"/>
<path d="M332.959 428.172L331.203 428.109L331.113 432.084L330.545 432.369L330.422 437.121L328.832 437.697L329.271 452.114L330.422 451.909L334.209 451.178L343.822 422.43L340.758 427.14L333.697 433.637L333.557 430.713L333.199 430.914L332.959 428.172Z" fill="#AADBB7"/>
<path d="M332.959 428.172L331.203 428.109L331.113 432.084L330.545 432.369L330.422 437.121L328.832 437.697L329.271 452.114L330.422 451.909L334.209 451.178L343.822 422.43L340.758 427.14L333.697 433.637L333.557 430.713L333.199 430.914L332.959 428.172Z" fill="url(#paint33_linear_345_12791)"/>
<path d="M333.019 428.115H331.209L331.113 432.084L330.545 432.382L330.424 437.013L328.819 437.695L329.271 452.114L330.422 451.909L330.299 443.22L333.891 437.697L340.758 427.14L333.697 433.637L333.546 430.731L333.199 430.914L333.019 428.115Z" fill="#48A7A1"/>
<path d="M330.422 451.909L330.299 443.22L333.891 437.697L340.758 427.14L333.697 433.637L333.891 437.697L330.299 443.22L330.424 437.013L328.819 437.695L329.271 452.114L330.422 451.909Z" fill="#48A7A1"/>
<path d="M330.422 451.909L330.299 443.22L333.891 437.697L340.758 427.14L334.409 436.138L334.203 433.171L333.697 433.637L333.851 436.877L330.299 441.586L330.422 436.998L329.627 437.348L330.052 451.975L330.422 451.909Z" fill="#25938C"/>
<path d="M333.199 430.914L331.113 432.084L331.121 431.755L333.176 430.567L333.199 430.914Z" fill="#25938C"/>
<path d="M332.873 428.115L339.259 423.796L340.563 416.908L338.933 412.847L337.793 415.121L334.828 410.249L333.883 411.548L333.231 410.411L330.787 413.065L330.624 412.148H329.321L325.736 418.694L331.308 428.115H332.873Z" fill="#FBE6DC"/>
<path d="M333.883 411.548L331.113 415.121L330.787 413.065L333.231 410.411L333.883 411.548Z" fill="#FFB1B1"/>
<path d="M331.279 428.115H332.843L333.845 427.437L331.52 427.658L332.316 426.152L337.763 415.121L337.366 414.468L332.501 425.037L331.59 414.468L333.853 411.548L333.763 411.391L331.517 413.874L331.338 412.42L330.758 413.065L330.98 414.468L331.083 415.121L332.285 425.876L331.106 427.822L331.279 428.115Z" fill="#FFB1B1"/>
<path d="M240.425 548.422L236.636 548.285L236.442 556.974L235.217 557.598L234.951 567.986L231.52 569.246L232.468 600.761L234.951 600.314L243.122 598.715L263.866 535.87L257.254 546.167L242.017 560.369L241.716 553.978L240.943 554.418L240.425 548.422Z" fill="#AADBB7"/>
<path d="M240.425 548.422L236.636 548.285L236.442 556.974L235.217 557.598L234.951 567.986L231.52 569.246L232.468 600.761L234.951 600.314L243.122 598.715L263.866 535.87L257.254 546.167L242.017 560.369L241.716 553.978L240.943 554.418L240.425 548.422Z" fill="url(#paint34_linear_345_12791)"/>
<path d="M240.555 548.297H236.649L236.442 556.974L235.216 557.626L234.956 567.75L231.492 569.24L232.468 600.761L234.951 600.314L234.685 581.318L242.436 569.246L257.254 546.167L242.017 560.369L241.692 554.016L240.943 554.418L240.555 548.297Z" fill="#48A7A1"/>
<path d="M234.951 600.314L234.685 581.318L242.436 569.246L257.254 546.167L242.017 560.369L242.436 569.246L234.685 581.318L234.956 567.75L231.492 569.24L232.468 600.761L234.951 600.314Z" fill="#48A7A1"/>
<path d="M234.951 600.314L234.685 581.318L242.436 569.246L257.254 546.167L243.554 565.837L243.111 559.35L242.017 560.369L242.351 567.452L234.685 577.747L234.951 567.717L233.236 568.482L234.153 600.458L234.951 600.314Z" fill="#25938C"/>
<path d="M240.943 554.418L236.442 556.974L236.459 556.255L240.894 553.658L240.943 554.418Z" fill="#25938C"/>
<path d="M240.239 548.297L254.021 538.856L256.833 523.799L253.318 514.922L250.857 519.893L244.458 509.241L242.419 512.082L241.012 509.596L235.739 515.397L235.387 513.395H232.574L224.84 527.704L236.864 548.297H240.239Z" fill="#FBE6DC"/>
<path d="M242.419 512.082L236.442 519.893L235.739 515.397L241.012 509.596L242.419 512.082Z" fill="#FFB1B1"/>
<path d="M236.8 548.297H240.175L242.338 546.816L237.32 547.3L239.038 544.006L250.793 519.893L249.935 518.465L239.437 541.57L237.471 518.465L242.355 512.082L242.161 511.738L237.314 517.167L236.928 513.987L235.675 515.397L236.155 518.465L236.378 519.893L238.972 543.404L236.427 547.658L236.8 548.297Z" fill="#FFB1B1"/>
<path d="M508.094 481.009L505.414 480.911L505.277 487.104L504.41 487.549L504.222 494.953L501.795 495.851L502.465 518.314L504.222 517.995L510.002 516.856L524.674 472.062L519.997 479.401L509.22 489.524L509.007 484.969L508.46 485.282L508.094 481.009Z" fill="#AADBB7"/>
<path d="M508.094 481.009L505.414 480.911L505.277 487.104L504.41 487.549L504.222 494.953L501.795 495.851L502.465 518.314L504.222 517.995L510.002 516.856L524.674 472.062L519.997 479.401L509.22 489.524L509.007 484.969L508.46 485.282L508.094 481.009Z" fill="url(#paint35_linear_345_12791)"/>
<path d="M508.186 480.92H505.422L505.277 487.104L504.409 487.569L504.225 494.785L501.775 495.847L502.465 518.314L504.222 517.995L504.033 504.456L509.516 495.851L519.997 479.401L509.22 489.524L508.99 484.996L508.46 485.282L508.186 480.92Z" fill="#48A7A1"/>
<path d="M504.222 517.995L504.033 504.456L509.516 495.851L519.997 479.401L509.22 489.524L509.516 495.851L504.033 504.456L504.225 494.785L501.775 495.847L502.465 518.314L504.222 517.995Z" fill="#48A7A1"/>
<path d="M504.222 517.995L504.033 504.456L509.516 495.851L519.997 479.401L510.307 493.421L509.993 488.798L509.22 489.524L509.456 494.573L504.033 501.911L504.222 494.762L503.008 495.306L503.657 518.098L504.222 517.995Z" fill="#25938C"/>
<path d="M508.46 485.282L505.277 487.104L505.288 486.592L508.425 484.741L508.46 485.282Z" fill="#25938C"/>
<path d="M507.962 480.92L517.71 474.191L519.7 463.458L517.213 457.131L515.472 460.674L510.946 453.082L509.504 455.106L508.509 453.335L504.779 457.47L504.53 456.042H502.541L497.07 466.242L505.575 480.92H507.962Z" fill="#FBE6DC"/>
<path d="M509.504 455.106L505.276 460.674L504.779 457.47L508.509 453.335L509.504 455.106Z" fill="#FFB1B1"/>
<path d="M505.53 480.92H507.917L509.447 479.864L505.898 480.209L507.113 477.861L515.427 460.674L514.82 459.656L507.395 476.125L506.004 459.656L509.459 455.106L509.321 454.861L505.893 458.731L505.62 456.465L504.734 457.47L505.073 459.656L505.231 460.674L507.066 477.432L505.266 480.464L505.53 480.92Z" fill="#FFB1B1"/>
<defs>
<filter id="filter0_d_345_12791" x="132.479" y="357" width="111.333" height="101.173" filterUnits="userSpaceOnUse" color-interpolation-filters="sRGB">
<feFlood flood-opacity="0" result="BackgroundImageFix"/>
<feColorMatrix in="SourceAlpha" type="matrix" values="0 0 0 0 0 0 0 0 0 0 0 0 0 0 0 0 0 0 127 0" result="hardAlpha"/>
<feOffset dy="4"/>
<feGaussianBlur stdDeviation="2"/>
<feComposite in2="hardAlpha" operator="out"/>
<feColorMatrix type="matrix" values="0 0 0 0 0.0705882 0 0 0 0 0.345098 0 0 0 0 0.403922 0 0 0 0.15 0"/>
<feBlend mode="normal" in2="BackgroundImageFix" result="effect1_dropShadow_345_12791"/>
<feBlend mode="normal" in="SourceGraphic" in2="effect1_dropShadow_345_12791" result="shape"/>
</filter>
<linearGradient id="paint0_linear_345_12791" x1="295.448" y1="306.562" x2="295.448" y2="597.481" gradientUnits="userSpaceOnUse">
<stop offset="0.333333" stop-color="#7DA7E7" stop-opacity="0"/>
<stop offset="1" stop-color="#7DA7E7" stop-opacity="0.5"/>
</linearGradient>
<linearGradient id="paint1_linear_345_12791" x1="244.151" y1="605.379" x2="285.556" y2="723.409" gradientUnits="userSpaceOnUse">
<stop stop-color="white" stop-opacity="0"/>
<stop offset="1" stop-color="white"/>
</linearGradient>
<linearGradient id="paint2_linear_345_12791" x1="270.269" y1="419.853" x2="270.269" y2="604.541" gradientUnits="userSpaceOnUse">
<stop stop-color="#AADBB7"/>
<stop offset="0.9999" stop-color="#D9E084"/>
<stop offset="1" stop-color="#D9E084" stop-opacity="0.5"/>
</linearGradient>
<linearGradient id="paint3_linear_345_12791" x1="116.34" y1="519.711" x2="103.892" y2="556.083" gradientUnits="userSpaceOnUse">
<stop offset="0.489583" stop-color="#48A7A1"/>
<stop offset="1" stop-color="#48A7A1" stop-opacity="0.5"/>
</linearGradient>
<linearGradient id="paint4_linear_345_12791" x1="117.896" y1="514" x2="48.0389" y2="685.844" gradientUnits="userSpaceOnUse">
<stop offset="0.260417" stop-color="#125867"/>
<stop offset="1" stop-color="#48A7A1"/>
</linearGradient>
<linearGradient id="paint5_linear_345_12791" x1="385.943" y1="513.049" x2="442.48" y2="690.479" gradientUnits="userSpaceOnUse">
<stop offset="0.286458" stop-color="#48A7A1"/>
<stop offset="1" stop-color="#AADBB7"/>
</linearGradient>
<radialGradient id="paint6_radial_345_12791" cx="0" cy="0" r="1" gradientUnits="userSpaceOnUse" gradientTransform="translate(267.729 736.792) rotate(90) scale(92.3017 267.729)">
<stop stop-color="#EBC644" stop-opacity="0.35"/>
<stop offset="0.822917" stop-color="#FBEFE7" stop-opacity="0"/>
</radialGradient>
<radialGradient id="paint7_radial_345_12791" cx="0" cy="0" r="1" gradientUnits="userSpaceOnUse" gradientTransform="translate(301.195 438.785) rotate(90) scale(10.7955 36.7048)">
<stop stop-color="#48A7A1" stop-opacity="0.4"/>
<stop offset="1" stop-color="#48A7A1" stop-opacity="0"/>
</radialGradient>
<radialGradient id="paint8_radial_345_12791" cx="0" cy="0" r="1" gradientUnits="userSpaceOnUse" gradientTransform="translate(104.716 505.178) rotate(90) scale(10.2557 36.7048)">
<stop stop-color="#48A7A1" stop-opacity="0.75"/>
<stop offset="1" stop-color="#48A7A1" stop-opacity="0"/>
</radialGradient>
<radialGradient id="paint9_radial_345_12791" cx="0" cy="0" r="1" gradientUnits="userSpaceOnUse" gradientTransform="translate(159.232 483.048) rotate(90) scale(5.39776 19.9717)">
<stop stop-color="#48A7A1" stop-opacity="0.75"/>
<stop offset="1" stop-color="#48A7A1" stop-opacity="0"/>
</radialGradient>
<radialGradient id="paint10_radial_345_12791" cx="0" cy="0" r="1" gradientUnits="userSpaceOnUse" gradientTransform="translate(195.938 472.792) rotate(90) scale(5.93754 19.9717)">
<stop stop-color="#48A7A1" stop-opacity="0.75"/>
<stop offset="1" stop-color="#48A7A1" stop-opacity="0"/>
</radialGradient>
<radialGradient id="paint11_radial_345_12791" cx="0" cy="0" r="1" gradientUnits="userSpaceOnUse" gradientTransform="translate(426.963 500.319) rotate(90) scale(21.591 76.1084)">
<stop stop-color="#6EC982" stop-opacity="0.75"/>
<stop offset="0.786458" stop-color="#6EC982" stop-opacity="0"/>
</radialGradient>
<linearGradient id="paint12_linear_345_12791" x1="295.449" y1="306.561" x2="295.449" y2="597.481" gradientUnits="userSpaceOnUse">
<stop offset="0.333333" stop-color="#7DA7E7" stop-opacity="0"/>
<stop offset="1" stop-color="#7DA7E7" stop-opacity="0.5"/>
</linearGradient>
<linearGradient id="paint13_linear_345_12791" x1="295.449" y1="306.561" x2="295.449" y2="597.481" gradientUnits="userSpaceOnUse">
<stop offset="0.333333" stop-color="#7DA7E7" stop-opacity="0"/>
<stop offset="1" stop-color="#7DA7E7" stop-opacity="0.5"/>
</linearGradient>
<linearGradient id="paint14_linear_345_12791" x1="244.151" y1="605.379" x2="285.557" y2="723.409" gradientUnits="userSpaceOnUse">
<stop stop-color="white" stop-opacity="0"/>
<stop offset="1" stop-color="#FFF6D8"/>
</linearGradient>
<linearGradient id="paint15_linear_345_12791" x1="95.4993" y1="466.295" x2="105.21" y2="500.451" gradientUnits="userSpaceOnUse">
<stop offset="0.40625" stop-color="#AADBB7"/>
<stop offset="1" stop-color="#25938C" stop-opacity="0.3"/>
</linearGradient>
<linearGradient id="paint16_linear_345_12791" x1="271.995" y1="461.841" x2="264.018" y2="489.84" gradientUnits="userSpaceOnUse">
<stop offset="0.40625" stop-color="#AADBB7"/>
<stop offset="1" stop-color="#25938C" stop-opacity="0.3"/>
</linearGradient>
<radialGradient id="paint17_radial_345_12791" cx="0" cy="0" r="1" gradientUnits="userSpaceOnUse" gradientTransform="translate(230.075 600.143) rotate(90) scale(6.18704 24.2722)">
<stop stop-color="#25938C"/>
<stop offset="1" stop-color="#25938C" stop-opacity="0"/>
</radialGradient>
<radialGradient id="paint18_radial_345_12791" cx="0" cy="0" r="1" gradientUnits="userSpaceOnUse" gradientTransform="translate(41.6082 524.22) rotate(90) scale(6.18704 24.2722)">
<stop stop-color="#25938C"/>
<stop offset="1" stop-color="#25938C" stop-opacity="0"/>
</radialGradient>
<radialGradient id="paint19_radial_345_12791" cx="0" cy="0" r="1" gradientUnits="userSpaceOnUse" gradientTransform="translate(287.186 553.978) rotate(-94.512) scale(12.0992 47.4663)">
<stop stop-color="#25938C"/>
<stop offset="1" stop-color="#259385" stop-opacity="0"/>
</radialGradient>
<radialGradient id="paint20_radial_345_12791" cx="0" cy="0" r="1" gradientUnits="userSpaceOnUse" gradientTransform="translate(413.292 540.077) rotate(-93.601) scale(10.5091 32.9536)">
<stop stop-color="#25938C"/>
<stop offset="1" stop-color="#259385" stop-opacity="0"/>
</radialGradient>
<radialGradient id="paint21_radial_345_12791" cx="0" cy="0" r="1" gradientUnits="userSpaceOnUse" gradientTransform="translate(485.036 522.191) rotate(80.7392) scale(10.6269 84.4336)">
<stop stop-color="#25938C"/>
<stop offset="1" stop-color="#259385" stop-opacity="0"/>
</radialGradient>
<radialGradient id="paint22_radial_345_12791" cx="0" cy="0" r="1" gradientUnits="userSpaceOnUse" gradientTransform="translate(333.951 450.149) rotate(-95.3286) scale(7.03006 32.5175)">
<stop stop-color="#25938C"/>
<stop offset="0.796875" stop-color="#259385" stop-opacity="0"/>
</radialGradient>
<linearGradient id="paint23_linear_345_12791" x1="108.693" y1="366.421" x2="188.09" y2="562.51" gradientUnits="userSpaceOnUse">
<stop offset="0.65625" stop-color="#AADBB7"/>
<stop offset="1" stop-color="#48A7A1"/>
</linearGradient>
<linearGradient id="paint24_linear_345_12791" x1="196.481" y1="363.15" x2="132.44" y2="562.51" gradientUnits="userSpaceOnUse">
<stop offset="0.484375" stop-color="#48A7A1"/>
<stop offset="1" stop-color="#125867"/>
</linearGradient>
<linearGradient id="paint25_linear_345_12791" x1="421.856" y1="493.672" x2="409.023" y2="538.749" gradientUnits="userSpaceOnUse">
<stop offset="0.40625" stop-color="#AADBB7"/>
<stop offset="1" stop-color="#25938C" stop-opacity="0.3"/>
</linearGradient>
<linearGradient id="paint26_linear_345_12791" x1="493.709" y1="487.802" x2="483.654" y2="523.352" gradientUnits="userSpaceOnUse">
<stop offset="0.40625" stop-color="#AADBB7"/>
<stop offset="1" stop-color="#25938C" stop-opacity="0.3"/>
</linearGradient>
<linearGradient id="paint27_linear_345_12791" x1="298.973" y1="512.935" x2="289.262" y2="547.092" gradientUnits="userSpaceOnUse">
<stop offset="0.40625" stop-color="#AADBB7"/>
<stop offset="1" stop-color="#25938C" stop-opacity="0.3"/>
</linearGradient>
<linearGradient id="paint28_linear_345_12791" x1="275.699" y1="510.42" x2="288.876" y2="556.891" gradientUnits="userSpaceOnUse">
<stop offset="0.40625" stop-color="#AADBB7"/>
<stop offset="1" stop-color="#25938C" stop-opacity="0.3"/>
</linearGradient>
<linearGradient id="paint29_linear_345_12791" x1="470.558" y1="475.892" x2="481.658" y2="514.812" gradientUnits="userSpaceOnUse">
<stop offset="0.40625" stop-color="#AADBB7"/>
<stop offset="1" stop-color="#25938C" stop-opacity="0.3"/>
</linearGradient>
<linearGradient id="paint30_linear_345_12791" x1="55.2988" y1="489.139" x2="45.5882" y2="523.296" gradientUnits="userSpaceOnUse">
<stop offset="0.40625" stop-color="#AADBB7"/>
<stop offset="1" stop-color="#25938C" stop-opacity="0.3"/>
</linearGradient>
<linearGradient id="paint31_linear_345_12791" x1="29.9585" y1="474.714" x2="44.1812" y2="524.554" gradientUnits="userSpaceOnUse">
<stop offset="0.40625" stop-color="#AADBB7"/>
<stop offset="1" stop-color="#25938C" stop-opacity="0.3"/>
</linearGradient>
<linearGradient id="paint32_linear_345_12791" x1="211.762" y1="548.007" x2="225.985" y2="597.847" gradientUnits="userSpaceOnUse">
<stop offset="0.40625" stop-color="#AADBB7"/>
<stop offset="1" stop-color="#25938C" stop-opacity="0.3"/>
</linearGradient>
<linearGradient id="paint33_linear_345_12791" x1="336.327" y1="422.43" x2="328.006" y2="451.823" gradientUnits="userSpaceOnUse">
<stop offset="0.40625" stop-color="#AADBB7"/>
<stop offset="1" stop-color="#25938C" stop-opacity="0.3"/>
</linearGradient>
<linearGradient id="paint34_linear_345_12791" x1="247.693" y1="535.87" x2="229.301" y2="600" gradientUnits="userSpaceOnUse">
<stop offset="0.40625" stop-color="#AADBB7"/>
<stop offset="1" stop-color="#25938C" stop-opacity="0.3"/>
</linearGradient>
<linearGradient id="paint35_linear_345_12791" x1="513.234" y1="472.062" x2="500.04" y2="517.718" gradientUnits="userSpaceOnUse">
<stop offset="0.40625" stop-color="#AADBB7"/>
<stop offset="1" stop-color="#25938C" stop-opacity="0.3"/>
</linearGradient>
</defs>
</svg>
