<svg width="595" height="923" viewBox="0 0 595 923" fill="none" xmlns="http://www.w3.org/2000/svg">
<path d="M148.696 298L179.006 368.268H118.385L148.696 298Z" fill="#EBC644"/>
<path d="M241.303 335.682L170.184 363.937L213.049 406.802L241.303 335.682Z" fill="#EBC644"/>
<path d="M148.696 558.611L179.006 488.343H118.385L148.696 558.611Z" fill="#EBC644"/>
<path d="M239.145 518.231L210.89 447.111L168.025 489.976L239.145 518.231Z" fill="#EBC644"/>
<path d="M277.384 426.683L207.116 396.372V456.993L277.384 426.683Z" fill="#EBC644"/>
<path d="M57.6773 518.23L128.797 489.976L85.9316 447.11L57.6773 518.23Z" fill="#EBC644"/>
<path d="M20 426.69L90.268 457.001V396.38L20 426.69Z" fill="#EBC644"/>
<path d="M57.6772 335.672L85.9315 406.791L128.797 363.926L57.6772 335.672Z" fill="#EBC644"/>
<path d="M118.48 355.009L148.564 355.009L178.648 355.009L221.194 397.554L221.194 427.638L221.194 457.723L178.648 500.268L148.564 500.268L118.48 500.268L75.9339 457.723L75.9339 427.638L75.9339 397.554L118.48 355.009Z" fill="#F6E4A1"/>
<g filter="url(#filter0_d_355_13606)">
<path d="M148.694 298L179.004 368.268H118.384L148.694 298Z" fill="url(#paint0_linear_355_13606)"/>
<path d="M241.3 335.683L170.182 363.937L213.046 406.802L241.3 335.683Z" fill="url(#paint1_linear_355_13606)"/>
<path d="M148.694 558.61L179.004 488.342H118.384L148.694 558.61Z" fill="url(#paint2_linear_355_13606)"/>
<path d="M239.142 518.229L210.888 447.11L168.023 489.975L239.142 518.229Z" fill="url(#paint3_linear_355_13606)"/>
<path d="M277.38 426.682L207.113 396.372V456.993L277.38 426.682Z" fill="url(#paint4_linear_355_13606)"/>
<path d="M57.6767 518.229L128.795 489.975L85.9306 447.11L57.6767 518.229Z" fill="url(#paint5_linear_355_13606)"/>
<path d="M20 426.69L90.267 457L90.267 396.38L20 426.69Z" fill="url(#paint6_linear_355_13606)"/>
<path d="M57.6766 335.672L85.9305 406.791L128.795 363.926L57.6766 335.672Z" fill="url(#paint7_linear_355_13606)"/>
<path d="M118.478 355.008L148.562 355.008L178.646 355.008L221.191 397.553L221.191 427.638L221.191 457.722L178.646 500.267L148.562 500.267L118.478 500.267L75.9332 457.722L75.9332 427.638L75.9332 397.553L118.478 355.008Z" fill="#F6E4A1"/>
<path d="M118.478 355.008L148.562 355.008L178.646 355.008L221.191 397.553L221.191 427.638L221.191 457.722L178.646 500.267L148.562 500.267L118.478 500.267L75.9332 457.722L75.9332 427.638L75.9332 397.553L118.478 355.008Z" fill="url(#paint8_radial_355_13606)" fill-opacity="0.4"/>
</g>
<mask id="mask0_355_13606" style="mask-type:alpha" maskUnits="userSpaceOnUse" x="16" y="357" width="579" height="225">
<path d="M458.284 380.095L594.999 497.279V581.055L345.212 480.318V404.251L458.284 380.095Z" fill="#DFECFE"/>
<path d="M95.7712 446.038L61.2843 440.742L16.2742 471.066V581.055L345.212 480.318V404.251L219.586 357.994L95.7712 446.038Z" fill="#DFECFE"/>
</mask>
<g mask="url(#mask0_355_13606)">
<path d="M458.284 380.095L594.999 497.279V581.055L345.212 480.318V404.251L458.284 380.095Z" fill="#F2F7FF"/>
<path d="M95.7712 446.038L61.2843 440.742L16.2742 471.066V581.055L345.212 480.318V404.251L219.586 357.994L95.7712 446.038Z" fill="#F2F7FF"/>
<path d="M130.429 421.927L219.597 357.994L206.134 389.562L253.441 408.836L219.713 518.782L101.827 554.838L130.429 421.927Z" fill="#DFECFE"/>
<path d="M91.0943 447.424L60.8881 440.994L16.0554 471.067V526.575L72.0959 490.31L91.0943 447.424Z" fill="#DFECFE"/>
<path d="M345.212 404.251L443.893 383.178L417.046 421.186L452.088 474.188L428.999 513.988L345.212 480.318V404.251Z" fill="#DFECFE"/>
<path d="M206.223 389.347L219.586 357.995L228.324 361.079L220.54 383.989L261.637 410.933L248.501 513.612L210.492 524.157L230.285 410.933L206.223 389.347Z" fill="#ACCBF9"/>
<path d="M206.223 389.347L219.586 357.995L228.324 361.079L220.54 383.989L261.637 410.933L248.501 513.612L210.492 524.157L230.285 410.933L206.223 389.347Z" fill="url(#paint9_linear_355_13606)"/>
<path d="M225.24 359.023L213.752 386.409M213.752 386.409L213.282 387.494L242.621 411.961L220.317 519.152C223.512 518.832 227.028 518.508 230.799 518.193L253.414 411.961L213.752 386.409Z" stroke="#7DA7E7" stroke-linejoin="bevel"/>
<path d="M208.621 389.481L222.576 359.023L228.23 361.078L220.54 383.989L261.637 410.933L248.501 513.612L210.492 524.157L230.285 410.933L208.621 389.481Z" fill="url(#paint10_linear_355_13606)"/>
</g>
<path d="M266.061 681.792L16.2737 581.055L345.211 480.318L594.998 581.055L266.061 681.792Z" fill="#AADBB7"/>
<path d="M266.061 681.792L16.2737 581.055L345.211 480.318L594.998 581.055L266.061 681.792Z" fill="url(#paint11_linear_355_13606)" fill-opacity="0.8"/>
<path d="M78.0256 606.38L97.4643 588.021L217.749 634.245L173.059 644.718L78.0256 606.38Z" fill="url(#paint12_linear_355_13606)" fill-opacity="0.8"/>
<path d="M16.2747 581.055L266.063 681.792V741.412L16.2747 640.675V581.055Z" fill="url(#paint13_linear_355_13606)"/>
<path d="M595 581.055L266.062 681.792V741.412L595 640.683V581.055Z" fill="url(#paint14_linear_355_13606)"/>
<path d="M262.328 922.36L14 822.681L343.927 723.002L592.255 822.681L262.328 922.36Z" fill="url(#paint15_radial_355_13606)" fill-opacity="0.75"/>
<ellipse cx="339.269" cy="500.855" rx="39.6384" ry="11.6584" fill="url(#paint16_radial_355_13606)"/>
<ellipse cx="127.085" cy="572.555" rx="39.6384" ry="11.0754" fill="url(#paint17_radial_355_13606)"/>
<ellipse cx="185.959" cy="548.656" rx="21.568" ry="5.82918" fill="url(#paint18_radial_355_13606)" fill-opacity="0.5"/>
<ellipse cx="225.598" cy="537.58" rx="21.568" ry="6.4121" fill="url(#paint19_radial_355_13606)" fill-opacity="0.5"/>
<ellipse cx="475.088" cy="567.307" rx="82.1914" ry="23.3167" fill="url(#paint20_radial_355_13606)"/>
<mask id="mask1_355_13606" style="mask-type:alpha" maskUnits="userSpaceOnUse" x="206" y="357" width="230" height="435">
<path d="M206.224 389.346L219.587 357.994L228.324 361.078L220.541 383.988L261.638 410.932L248.502 513.611C298.89 511.121 316.657 504.384 351.608 513.611C391.612 524.172 381.099 533.381 417.579 556.233C435.872 567.692 437.414 587.864 433.307 630.91V694.127V757.345L322.8 791.267V665.345C338.733 629.368 349.147 631.81 355.977 613.949C361.415 599.73 374.951 581.051 355.977 563.703C336.754 546.127 334.132 533.384 297.871 532.066C268.861 531.011 235.249 521.227 210.492 524.157L230.286 410.932L206.224 389.346Z" fill="#ACCBF9"/>
<path d="M206.224 389.346L219.587 357.994L228.324 361.078L220.541 383.988L261.638 410.932L248.502 513.611C298.89 511.121 316.657 504.384 351.608 513.611C391.612 524.172 381.099 533.381 417.579 556.233C435.872 567.692 437.414 587.864 433.307 630.91V694.127V757.345L322.8 791.267V665.345C338.733 629.368 349.147 631.81 355.977 613.949C361.415 599.73 374.951 581.051 355.977 563.703C336.754 546.127 334.132 533.384 297.871 532.066C268.861 531.011 235.249 521.227 210.492 524.157L230.286 410.932L206.224 389.346Z" fill="url(#paint21_linear_355_13606)"/>
</mask>
<g mask="url(#mask1_355_13606)">
<path d="M297.87 532.066C268.861 531.012 235.249 521.228 210.492 524.157L248.502 513.611C298.89 511.121 316.657 504.384 351.608 513.611C391.612 524.173 381.098 533.382 417.579 556.233C435.872 567.692 437.414 587.865 433.307 630.91V694.128V757.345L322.8 791.267V665.346C338.732 629.368 349.147 631.81 355.977 613.949C361.414 599.731 374.951 581.051 355.977 563.703C336.754 546.127 334.132 533.384 297.87 532.066Z" fill="#ACCBF9"/>
<path d="M297.87 532.066C268.861 531.012 235.249 521.228 210.492 524.157L248.502 513.611C298.89 511.121 316.657 504.384 351.608 513.611C391.612 524.173 381.098 533.382 417.579 556.233C435.872 567.692 437.414 587.865 433.307 630.91V694.128V757.345L322.8 791.267V665.346C338.732 629.368 349.147 631.81 355.977 613.949C361.414 599.731 374.951 581.051 355.977 563.703C336.754 546.127 334.132 533.384 297.87 532.066Z" fill="url(#paint22_linear_355_13606)"/>
<path d="M298.142 515.598C323.11 515.962 337.191 513.212 355.74 524.4C376.225 536.756 399.746 548.756 414.799 574.373C420.39 583.887 422.509 612.921 416.856 636.813C415.313 638.619 413.352 719.826 415.922 766.597M298.142 515.598C315.729 518.532 343.429 524.628 353.982 535.826C367.172 549.823 392.418 548.361 400.148 583.503C405.715 608.807 397.284 613.949 388.717 644.686C383.962 661.747 387.14 742.44 387.14 773.278M298.142 515.598C274.903 515.259 249.664 516.618 230.8 518.193C227.029 518.508 223.513 518.831 220.318 519.152C259.157 520.318 321.141 512.534 342.11 538.397C358.777 558.954 384.398 555.327 377.285 606.632C375.526 619.317 366.555 624.742 353.982 654.747C346.956 671.513 350.648 752.206 350.648 783.557" stroke="#7DA7E7" stroke-width="2" stroke-linejoin="bevel"/>
<path d="M297.87 532.066C268.861 531.012 235.249 521.228 210.492 524.157L248.502 513.611C298.89 511.121 316.657 504.384 351.608 513.611C391.612 524.173 381.098 533.382 417.579 556.233C435.872 567.692 437.414 587.865 433.307 630.91V694.128V757.345L322.8 791.267V665.346C338.732 629.368 349.147 631.81 355.977 613.949C361.414 599.731 374.951 581.051 355.977 563.703C336.754 546.127 334.132 533.384 297.87 532.066Z" fill="url(#paint23_linear_355_13606)"/>
</g>
<path d="M121.344 537.773L123.539 537.695L123.652 542.686L124.362 543.044L124.516 549.011L126.504 549.735L125.955 567.839L124.516 567.581L119.781 566.663L107.76 530.563L111.592 536.478L120.421 544.636L120.596 540.965L121.044 541.217L121.344 537.773Z" fill="#AADBB7"/>
<path d="M121.344 537.773L123.539 537.695L123.652 542.686L124.362 543.044L124.516 549.011L126.504 549.735L125.955 567.839L124.516 567.581L119.781 566.663L107.76 530.563L111.592 536.478L120.421 544.636L120.596 540.965L121.044 541.217L121.344 537.773Z" fill="url(#paint24_linear_355_13606)"/>
<path d="M121.268 537.702H123.532L123.652 542.686L124.362 543.06L124.513 548.876L126.52 549.732L125.955 567.838L124.516 567.581L124.67 556.669L120.179 549.735L111.592 536.478L120.421 544.636L120.61 540.987L121.044 541.217L121.268 537.702Z" fill="#48A7A1"/>
<path d="M124.516 567.581L124.67 556.669L120.179 549.735L111.592 536.478L120.421 544.636L120.179 549.735L124.67 556.669L124.513 548.876L126.52 549.732L125.955 567.839L124.516 567.581Z" fill="#48A7A1"/>
<path d="M124.516 567.581L124.67 556.669L120.179 549.735L111.592 536.478L119.53 547.777L119.787 544.051L120.421 544.636L120.228 548.705L124.67 554.618L124.516 548.857L125.51 549.296L124.978 567.664L124.516 567.581Z" fill="#25938C"/>
<path d="M121.044 541.217L123.652 542.686L123.642 542.273L121.072 540.781L121.044 541.217Z" fill="#25938C"/>
<path d="M121.452 537.702L113.465 532.279L111.835 523.629L113.873 518.53L115.299 521.385L119.007 515.267L120.188 516.898L121.003 515.471L124.059 518.803L124.263 517.653H125.893L130.375 525.872L123.407 537.702H121.452Z" fill="#F6E4A1"/>
<path d="M120.188 516.898L123.652 521.385L124.059 518.803L121.003 515.471L120.188 516.898Z" fill="#EBC644"/>
<path d="M123.444 537.702H121.488L120.235 536.851L123.143 537.129L122.147 535.237L115.336 521.385L115.833 520.565L121.917 533.837L123.056 520.565L120.225 516.898L120.338 516.701L123.147 519.82L123.37 517.993L124.096 518.803L123.818 520.565L123.689 521.385L122.186 534.891L123.661 537.335L123.444 537.702Z" fill="#EBC644"/>
<path d="M304.289 531.667L302.492 531.602L302.401 535.695L301.82 535.989L301.693 540.882L300.067 541.475L300.516 556.32L301.693 556.109L305.568 555.356L315.402 525.755L312.268 530.605L305.044 537.294L304.901 534.284L304.534 534.491L304.289 531.667Z" fill="#AADBB7"/>
<path d="M304.289 531.667L302.492 531.602L302.401 535.695L301.82 535.989L301.693 540.882L300.067 541.475L300.516 556.32L301.693 556.109L305.568 555.356L315.402 525.755L312.268 530.605L305.044 537.294L304.901 534.284L304.534 534.491L304.289 531.667Z" fill="url(#paint25_linear_355_13606)"/>
<path d="M304.351 531.608H302.498L302.401 535.695L301.819 536.002L301.696 540.771L300.053 541.472L300.516 556.32L301.693 556.109L301.567 547.162L305.242 541.475L312.268 530.605L305.044 537.294L304.889 534.302L304.534 534.491L304.351 531.608Z" fill="#48A7A1"/>
<path d="M301.693 556.109L301.567 547.162L305.242 541.475L312.268 530.605L305.044 537.294L305.242 541.475L301.567 547.162L301.696 540.771L300.053 541.472L300.516 556.32L301.693 556.109Z" fill="#48A7A1"/>
<path d="M301.693 556.109L301.567 547.162L305.242 541.475L312.268 530.605L305.773 539.87L305.562 536.814L305.044 537.294L305.202 540.631L301.567 545.48L301.693 540.755L300.88 541.115L301.315 556.177L301.693 556.109Z" fill="#25938C"/>
<path d="M304.534 534.491L302.401 535.695L302.408 535.356L304.511 534.133L304.534 534.491Z" fill="#25938C"/>
<path d="M304.201 531.608L310.735 527.161L312.068 520.068L310.401 515.887L309.235 518.229L306.201 513.211L305.234 514.549L304.567 513.379L302.067 516.111L301.9 515.168H300.567L296.9 521.908L302.6 531.608H304.201Z" fill="#FBE6DC"/>
<path d="M305.234 514.549L302.4 518.229L302.067 516.111L304.567 513.379L305.234 514.549Z" fill="#FFB1B1"/>
<path d="M302.57 531.608H304.171L305.196 530.91L302.817 531.138L303.631 529.587L309.205 518.229L308.798 517.556L303.82 528.439L302.888 517.556L305.204 514.549L305.112 514.387L302.814 516.945L302.631 515.447L302.037 516.111L302.264 517.556L302.37 518.229L303.6 529.303L302.393 531.307L302.57 531.608Z" fill="#FFB1B1"/>
<path d="M308.027 299.875L312.851 300.942L317.675 299.875L324.901 318.546L339.117 296.14L347.17 308.944L364.341 274.268L366.454 270L360.022 311.854L420.057 298.274L405.049 310.011L356.806 326.77L351.445 360.158L341.261 355.356L334.45 355.89L331.076 362.291L327.324 350.628L320.355 357.49L312.599 313.451L309.099 322.814L308.661 313.451L263 271.6L283.905 282.27L308.077 300.942L308.027 299.875Z" fill="#FBE6DC"/>
<path d="M337.508 316.946L332.148 336.685L332.126 337.218L331.664 348.259L345.307 326.77L420.057 298.274L405.049 310.011L356.806 326.77L351.445 360.158L341.261 355.356L334.45 355.89L331.076 362.291L327.324 350.628L320.355 357.49L312.599 313.451L314.085 309.477L331.664 348.259L332.126 337.218L324.901 318.546L339.117 296.14L338.044 316.825L350.373 314.036L349.301 312.332L347.17 308.944L364.341 274.268L349.301 312.332L350.373 314.036L338.044 316.825L337.508 316.946Z" fill="#F7A9A8"/>
<path d="M308.661 313.451L263 271.6L283.905 287.605L308.426 308.41L308.661 313.451Z" fill="#F7A9A8"/>
<path d="M337.508 316.946L332.148 336.685L332.126 337.218L331.076 362.291L334.45 355.89L348.229 329.749L356.806 326.77L356.327 329.749L348.959 333.13L341.261 355.356L334.45 355.89L331.076 362.291L327.324 350.628L325.993 351.939L313.018 312.332L314.085 309.477L317.675 299.875L318.313 301.523L315.363 313.451L327.324 350.628L331.076 362.291L332.126 337.218L324.901 318.546L325.993 316.825L331.944 336.613L336.701 315.969L338.121 315.356L349.301 312.332L347.17 308.944L348.088 307.09L349.878 310.872L360.361 309.649L360.022 311.854L350.373 314.036L338.044 316.825L337.508 316.946Z" fill="#EF798A"/>
<path d="M411.396 449.772L385.001 472.218L415.395 459.784L432.992 525.93L438.369 519.9L441.752 529.664L468.985 513.905L489.858 521.12L501.885 499.104L572.165 501.078L540.971 478.632H514.576L568.966 396.862L500.07 472.904L497.172 469.813L497.78 444.16L452.988 364.044L430.477 454.928L444.382 479.846L440.191 482.907L424.194 456.185L411.396 449.772Z" fill="#D2D4F8"/>
<path d="M438.369 519.9L441.752 529.664L447.546 499.104L448.842 497.285L468.985 513.905L489.858 521.12L501.885 499.104L572.165 501.078L477.91 485.526L450.138 495.467L480.983 452.177L497.172 469.813L497.78 444.16L452.988 364.044L470.919 459.784L444.382 479.846L440.191 482.907L448.726 496.766L447.546 499.104L441.752 529.664L438.369 519.9L419.395 458.148L415.395 459.784L432.992 525.93L438.369 519.9Z" fill="#A491DD"/>
<path d="M424.192 456.185L419.393 458.148L419.137 458.253L418.466 458.528L415.394 459.784L415.909 461.72L418.908 460.03L436.993 521.442L437.305 521.092L438.368 519.9L441.751 529.664L447.545 499.104L448.841 497.285L452.987 497.413L469.269 505.77L467.992 514.479L468.984 513.905L469.716 514.158L471.822 505.77L483.381 498.348L476.291 501.301L470.584 505.087L460.969 500.024L452.987 497.413L448.841 497.285L449.957 495.719L450.137 495.467L493.779 479.846L497.171 478.632H514.575L516.511 475.765L496.319 477.042L500.069 472.904L499.274 472.056L497.171 469.813L478.206 447.036L444.381 479.846L480.982 452.177L497.171 469.813L499.274 472.056L450.528 494.917L450.137 495.467L449.957 495.719L448.802 494.117L440.54 482.651L440.189 482.907L447.838 495.618L445.009 500.024L441.751 529.664L438.368 519.9L419.814 459.519L424.58 456.832L424.192 456.185Z" fill="#6D4685"/>
<path d="M424.192 456.185L419.393 458.148L419.137 458.253L418.466 458.528L415.394 459.784L415.909 461.72L418.908 460.03L436.993 521.442L437.305 521.092L438.368 519.9L441.751 529.664L447.545 499.104L499.637 503.216L501.884 499.104L483.381 498.348L452.987 497.413L448.841 497.285L449.957 495.719L450.137 495.467L493.779 479.846L497.171 478.632H514.575L516.511 475.765L496.319 477.042L500.069 472.904L499.274 472.056L497.171 469.813L478.206 447.036L444.381 479.846L480.982 452.177L497.171 469.813L499.274 472.056L450.528 494.917L450.137 495.467L449.957 495.719L478.206 455.974L447.545 492.373L440.54 482.651L440.189 482.907L447.838 495.618L445.009 500.024L441.751 529.664L438.368 519.9L419.814 459.519L424.58 456.832L424.192 456.185Z" fill="#6D4685"/>
<path d="M450.137 495.467L480.982 452.177L471.822 459.166L452.987 364.044L469.269 461.032L471.822 459.166L480.982 452.177L450.137 495.467L476.291 486.105L572.164 501.078L480.121 484.734L476.291 486.105L450.137 495.467Z" fill="#6D4685"/>
<path d="M239.336 670.998C252.699 676.652 246.531 674.082 264.006 680.764C266.062 682.306 276.341 678.194 284.564 676.138C275.827 673.054 276.941 670.484 262.464 670.484C247.987 670.484 239.336 667.308 239.336 670.998Z" fill="url(#paint26_radial_355_13606)" fill-opacity="0.4"/>
<path d="M35.8052 589.007C49.1683 594.661 43.0008 592.091 60.4756 598.772C62.5314 600.314 72.8107 596.202 81.0342 594.147C72.2968 591.063 73.4103 588.493 58.9337 588.493C44.4571 588.493 35.8052 585.317 35.8052 589.007Z" fill="url(#paint27_radial_355_13606)" fill-opacity="0.4"/>
<path d="M305.637 637.076C307.179 630.395 307.179 619.939 324.654 613.258C326.71 611.716 334.714 614.64 335.228 617.033C325.463 636.564 324.435 639.134 314.375 642.73C310.044 641.188 307.988 642.729 305.637 637.076Z" fill="url(#paint28_radial_355_13606)" fill-opacity="0.4"/>
<path d="M448.301 620.521C451.677 612.406 454.982 608.808 460.682 599.81C462.107 598.469 467.989 603.13 468.345 605.211C466.289 610.864 464.399 625.438 454.36 625.438C451.152 628.119 445.217 628.339 448.301 620.521Z" fill="url(#paint29_radial_355_13606)" fill-opacity="0.4"/>
<path d="M571.046 580.649C568.276 586.459 568.276 595.55 536.879 601.36C533.185 602.701 519.96 597.684 516.876 594.932C511.222 587.222 529.337 575.733 555.348 575.733C563.659 573.051 576.587 572.158 571.046 580.649Z" fill="url(#paint30_radial_355_13606)" fill-opacity="0.4"/>
<path d="M361.951 519.987C363.009 516.109 363.009 510.042 374.995 506.165C376.405 505.27 381.454 508.618 382.631 510.455C384.789 515.6 377.874 523.268 367.944 523.268C364.771 525.058 359.836 525.653 361.951 519.987Z" fill="url(#paint31_radial_355_13606)" fill-opacity="0.4"/>
<path d="M149 299.128L149.014 0" stroke="#EBC644"/>
<path d="M337.951 298.374V57.838" stroke="#F7A9A8"/>
<path d="M489.932 459.913V58.8657" stroke="#A491DD"/>
<path d="M337.318 588.088L217.121 415.648L96.9247 588.213L148.794 608.287L217.121 634.471L288.441 608.287L337.318 588.088Z" fill="#AADBB7"/>
<path d="M217.121 415.648L96.9246 588.213L148.794 608.287L217.121 634.471V415.648Z" fill="#48A7A1"/>
<path d="M148.794 608.29L217.121 634.474L288.441 608.29L337.318 588.091L320.457 563.902L270.807 560.66L217.121 601.931L167.247 556.172H119.244L96.9247 588.216L148.794 608.29Z" fill="#125867"/>
<path d="M288.441 608.29L337.318 588.091L320.457 563.902L266.496 548.94L217.121 584.35V634.474L288.441 608.29Z" fill="#48A7A1"/>
<path d="M148.793 608.287L217.121 415.649L288.44 608.287" stroke="#25938C" stroke-width="1.5" stroke-linejoin="bevel"/>
<g filter="url(#filter1_d_355_13606)">
<path d="M272.978 492.136L216.995 412.534L161.385 492.581L179.464 476.123L177.032 504.616L195.299 471.011V506.172L207.145 476.996L213.503 493.579L218.434 468.489L226.32 513.154L230.959 476.996L240.777 500.018L239.687 468.489L262.38 503.803L252.53 473.754L272.978 492.136Z" fill="#FEFEFE"/>
</g>
<path d="M213.504 493.579L218.434 468.489L216.995 412.534L161.385 492.581L179.465 476.123L177.032 504.616L195.3 471.011V506.172L207.145 476.996L213.504 493.579Z" fill="#C7DBF5"/>
<path d="M337.316 588.086L217.12 415.648L96.9245 588.211L148.793 608.285L217.12 634.469L288.44 608.285L337.316 588.086Z" fill="url(#paint32_linear_355_13606)"/>
<path d="M217.12 415.648L96.9244 588.211L148.793 608.285L217.12 634.469V415.648Z" fill="url(#paint33_linear_355_13606)"/>
<path d="M148.792 608.285L217.119 415.648L288.439 608.285" stroke="#25938C" stroke-width="1.5" stroke-linejoin="bevel"/>
<g filter="url(#filter2_d_355_13606)">
<path d="M272.977 492.135L216.994 412.534L161.385 492.581L179.464 476.122L177.032 504.615L195.299 471.01V506.171L207.144 476.995L213.503 493.578L218.433 468.489L226.319 513.154L230.958 476.995L240.776 500.017L239.686 468.489L262.379 503.802L252.529 473.753L272.977 492.135Z" fill="#FEFEFE"/>
</g>
<path d="M213.503 493.578L218.433 468.489L216.994 412.534L161.385 492.581L179.464 476.122L177.032 504.615L195.299 471.01V506.171L207.144 476.995L213.503 493.578Z" fill="#C7DBF5"/>
<path d="M464.022 569.646L461.128 569.542L460.98 576.131L460.044 576.604L459.841 584.48L457.22 585.435L457.944 609.332L459.841 608.993L466.083 607.781L481.927 560.129L476.877 567.936L465.238 578.705L465.008 573.859L464.417 574.192L464.022 569.646Z" fill="#AADBB7"/>
<path d="M464.022 569.646L461.128 569.542L460.98 576.131L460.044 576.604L459.841 584.48L457.22 585.435L457.944 609.332L459.841 608.993L466.083 607.781L481.927 560.129L476.877 567.936L465.238 578.705L465.008 573.859L464.417 574.192L464.022 569.646Z" fill="url(#paint34_linear_355_13606)"/>
<path d="M464.122 569.552H461.137L460.98 576.131L460.043 576.625L459.844 584.301L457.199 585.431L457.944 609.332L459.841 608.993L459.637 594.589L465.558 585.435L476.877 567.936L465.238 578.705L464.99 573.888L464.417 574.192L464.122 569.552Z" fill="#48A7A1"/>
<path d="M459.841 608.993L459.637 594.589L465.558 585.435L476.877 567.936L465.238 578.705L465.558 585.435L459.637 594.589L459.844 584.301L457.199 585.431L457.944 609.332L459.841 608.993Z" fill="#48A7A1"/>
<path d="M459.841 608.993L459.637 594.589L465.558 585.435L476.877 567.936L466.413 582.851L466.074 577.932L465.238 578.705L465.493 584.076L459.637 591.882L459.841 584.277L458.531 584.856L459.231 609.102L459.841 608.993Z" fill="#25938C"/>
<path d="M464.417 574.192L460.98 576.131L460.993 575.585L464.38 573.616L464.417 574.192Z" fill="#25938C"/>
<path d="M463.88 569.551L474.407 562.393L476.556 550.975L473.87 544.245L471.99 548.014L467.103 539.937L465.545 542.091L464.471 540.207L460.442 544.605L460.174 543.087H458.025L452.117 553.937L461.302 569.551H463.88Z" fill="#F6E4A1"/>
<path d="M465.545 542.091L460.98 548.014L460.442 544.605L464.471 540.207L465.545 542.091Z" fill="#EBC644"/>
<path d="M461.253 569.551H463.832L465.483 568.428L461.651 568.795L462.963 566.298L471.942 548.014L471.287 546.931L463.267 564.45L461.766 546.931L465.497 542.091L465.348 541.83L461.645 545.947L461.351 543.536L460.394 544.605L460.761 546.931L460.931 548.014L462.912 565.841L460.968 569.067L461.253 569.551Z" fill="#EBC644"/>
<path d="M542.765 561.288L540.47 561.206L540.353 566.397L539.61 566.77L539.449 572.976L537.371 573.728L537.945 592.556L539.449 592.289L544.4 591.334L556.966 553.79L552.961 559.941L543.73 568.426L543.548 564.608L543.079 564.87L542.765 561.288Z" fill="#AADBB7"/>
<path d="M542.765 561.288L540.47 561.206L540.353 566.397L539.61 566.77L539.449 572.976L537.371 573.728L537.945 592.556L539.449 592.289L544.4 591.334L556.966 553.79L552.961 559.941L543.73 568.426L543.548 564.608L543.079 564.87L542.765 561.288Z" fill="url(#paint35_linear_355_13606)"/>
<path d="M542.844 561.214H540.478L540.353 566.397L539.61 566.787L539.452 572.835L537.354 573.725L537.945 592.556L539.449 592.289L539.288 580.94L543.984 573.728L552.961 559.941L543.73 568.426L543.533 564.63L543.079 564.87L542.844 561.214Z" fill="#48A7A1"/>
<path d="M539.449 592.289L539.288 580.94L543.984 573.728L552.961 559.941L543.73 568.426L543.984 573.728L539.288 580.94L539.452 572.835L537.354 573.725L537.945 592.556L539.449 592.289Z" fill="#48A7A1"/>
<path d="M539.449 592.289L539.288 580.94L543.984 573.728L552.961 559.941L544.661 571.692L544.393 567.817L543.73 568.426L543.932 572.657L539.288 578.807L539.449 572.815L538.41 573.272L538.966 592.374L539.449 592.289Z" fill="#25938C"/>
<path d="M543.079 564.87L540.353 566.397L540.363 565.968L543.049 564.416L543.079 564.87Z" fill="#25938C"/>
<path d="M542.653 561.214L551.002 555.574L552.706 546.578L550.576 541.275L549.085 544.245L545.209 537.881L543.973 539.578L543.121 538.093L539.926 541.559L539.713 540.363H538.009L533.324 548.911L540.608 561.214H542.653Z" fill="#F6E4A1"/>
<path d="M543.973 539.578L540.352 544.245L539.926 541.559L543.121 538.093L543.973 539.578Z" fill="#EBC644"/>
<path d="M540.57 561.214H542.614L543.924 560.329L540.885 560.618L541.925 558.65L549.047 544.245L548.527 543.392L542.167 557.195L540.976 543.392L543.935 539.578L543.817 539.373L540.881 542.616L540.647 540.717L539.888 541.559L540.179 543.392L540.314 544.245L541.885 558.291L540.343 560.832L540.57 561.214Z" fill="#EBC644"/>
<path d="M332.657 588.142L330.462 588.064L330.349 593.055L329.639 593.413L329.485 599.38L327.497 600.104L328.046 618.207L329.485 617.95L334.22 617.032L346.24 580.932L342.409 586.847L333.58 595.005L333.405 591.334L332.957 591.586L332.657 588.142Z" fill="#AADBB7"/>
<path d="M332.657 588.142L330.462 588.064L330.349 593.055L329.639 593.413L329.485 599.38L327.497 600.104L328.046 618.207L329.485 617.95L334.22 617.032L346.24 580.932L342.409 586.847L333.58 595.005L333.405 591.334L332.957 591.586L332.657 588.142Z" fill="url(#paint36_linear_355_13606)"/>
<path d="M332.733 588.071H330.469L330.349 593.055L329.639 593.429L329.488 599.245L327.481 600.1L328.046 618.207L329.485 617.95L329.331 607.038L333.822 600.104L342.409 586.847L333.58 595.005L333.391 591.356L332.957 591.586L332.733 588.071Z" fill="#48A7A1"/>
<path d="M329.485 617.95L329.331 607.038L333.822 600.104L342.409 586.847L333.58 595.005L333.822 600.104L329.331 607.038L329.488 599.245L327.481 600.1L328.046 618.207L329.485 617.95Z" fill="#48A7A1"/>
<path d="M329.485 617.95L329.331 607.038L333.822 600.104L342.409 586.847L334.47 598.146L334.213 594.42L333.58 595.005L333.773 599.074L329.331 604.987L329.485 599.226L328.491 599.665L329.022 618.033L329.485 617.95Z" fill="#25938C"/>
<path d="M332.957 591.586L330.349 593.055L330.359 592.642L332.929 591.15L332.957 591.586Z" fill="#25938C"/>
<path d="M332.549 588.071L340.535 582.647L342.165 573.998L340.128 568.899L338.702 571.754L334.994 565.636L333.812 567.267L332.997 565.84L329.941 569.172L329.738 568.021H328.108L323.626 576.241L330.593 588.071H332.549Z" fill="#D2D4F8"/>
<path d="M333.812 567.267L330.349 571.754L329.941 569.172L332.997 565.84L333.812 567.267Z" fill="#A491DD"/>
<path d="M330.556 588.071H332.512L333.765 587.22L330.858 587.498L331.853 585.606L338.665 571.754L338.168 570.934L332.084 584.206L330.945 570.934L333.775 567.267L333.663 567.07L330.854 570.189L330.63 568.362L329.905 569.172L330.183 570.934L330.312 571.754L331.815 585.26L330.34 587.703L330.556 588.071Z" fill="#A491DD"/>
<path d="M317.478 588.021L320.472 587.914L320.625 594.702L321.593 595.19L321.804 603.305L324.515 604.289L323.766 628.91L321.804 628.56L315.347 627.312L298.956 578.216L304.18 586.26L316.22 597.355L316.458 592.362L317.069 592.705L317.478 588.021Z" fill="#AADBB7"/>
<path d="M317.478 588.021L320.472 587.914L320.625 594.702L321.593 595.19L321.804 603.305L324.515 604.289L323.766 628.91L321.804 628.56L315.347 627.312L298.956 578.216L304.18 586.26L316.22 597.355L316.458 592.362L317.069 592.705L317.478 588.021Z" fill="url(#paint37_linear_355_13606)"/>
<path d="M317.375 587.924H320.462L320.625 594.702L321.594 595.212L321.8 603.121L324.537 604.285L323.766 628.91L321.804 628.56L322.014 613.72L315.889 604.289L304.18 586.26L316.22 597.355L316.477 592.392L317.069 592.705L317.375 587.924Z" fill="#48A7A1"/>
<path d="M321.804 628.56L322.014 613.72L315.889 604.289L304.18 586.26L316.22 597.355L315.889 604.289L322.014 613.72L321.8 603.121L324.537 604.285L323.766 628.91L321.804 628.56Z" fill="#48A7A1"/>
<path d="M321.804 628.56L322.014 613.72L315.889 604.289L304.18 586.26L315.005 601.626L315.356 596.558L316.22 597.355L315.956 602.888L322.014 610.931L321.804 603.095L323.159 603.692L322.434 628.673L321.804 628.56Z" fill="#25938C"/>
<path d="M317.069 592.705L320.625 594.702L320.612 594.141L317.108 592.112L317.069 592.705Z" fill="#25938C"/>
<path d="M317.625 587.924L306.735 580.548L304.512 568.785L307.29 561.85L309.235 565.734L314.291 557.412L315.903 559.631L317.014 557.69L321.181 562.222L321.459 560.657H323.681L329.793 571.836L320.292 587.924H317.625Z" fill="#F6E4A1"/>
<path d="M315.903 559.631L320.626 565.734L321.181 562.222L317.014 557.69L315.903 559.631Z" fill="#EBC644"/>
<path d="M320.342 587.924H317.675L315.967 586.767L319.931 587.145L318.574 584.571L309.285 565.734L309.963 564.618L318.259 582.668L319.812 564.618L315.953 559.631L316.107 559.363L319.937 563.604L320.242 561.12L321.231 562.222L320.852 564.618L320.676 565.734L318.626 584.101L320.637 587.425L320.342 587.924Z" fill="#EBC644"/>
<path d="M526.954 549.148L529.449 549.058L529.576 554.748L530.383 555.157L530.558 561.96L532.817 562.784L532.194 583.422L530.558 583.129L525.178 582.083L511.518 540.929L515.872 547.671L525.905 556.972L526.104 552.787L526.613 553.074L526.954 549.148Z" fill="#AADBB7"/>
<path d="M526.954 549.148L529.449 549.058L529.576 554.748L530.383 555.157L530.558 561.96L532.817 562.784L532.194 583.422L530.558 583.129L525.178 582.083L511.518 540.929L515.872 547.671L525.905 556.972L526.104 552.787L526.613 553.074L526.954 549.148Z" fill="url(#paint38_linear_355_13606)"/>
<path d="M526.868 549.066H529.441L529.576 554.748L530.384 555.175L530.555 561.805L532.836 562.781L532.194 583.422L530.558 583.129L530.734 570.69L525.63 562.784L515.872 547.671L525.905 556.972L526.12 552.811L526.613 553.074L526.868 549.066Z" fill="#48A7A1"/>
<path d="M530.558 583.129L530.734 570.69L525.63 562.784L515.872 547.671L525.905 556.972L525.63 562.784L530.734 570.69L530.555 561.805L532.836 562.781L532.194 583.422L530.558 583.129Z" fill="#48A7A1"/>
<path d="M530.558 583.129L530.734 570.69L525.63 562.784L515.872 547.671L524.893 560.552L525.185 556.304L525.905 556.972L525.685 561.61L530.734 568.352L530.558 561.784L531.688 562.284L531.084 583.223L530.558 583.129Z" fill="#25938C"/>
<path d="M526.613 553.074L529.576 554.748L529.565 554.278L526.645 552.577L526.613 553.074Z" fill="#25938C"/>
<path d="M527.076 549.066L518.001 542.884L516.149 533.023L518.464 527.211L520.085 530.466L524.298 523.491L525.641 525.351L526.567 523.723L530.04 527.522L530.271 526.21H532.123L537.217 535.581L529.299 549.066H527.076Z" fill="#D2D4F8"/>
<path d="M525.641 525.351L529.577 530.466L530.04 527.522L526.567 523.723L525.641 525.351Z" fill="#A491DD"/>
<path d="M529.341 549.066H527.118L525.694 548.096L528.998 548.413L527.867 546.256L520.126 530.466L520.691 529.531L527.605 544.661L528.899 529.531L525.683 525.351L525.811 525.125L529.003 528.681L529.257 526.599L530.081 527.522L529.765 529.531L529.618 530.466L527.911 545.862L529.586 548.648L529.341 549.066Z" fill="#A491DD"/>
<path d="M69.5069 562.444L67.3114 562.365L67.1991 567.356L66.489 567.715L66.3348 573.682L64.3468 574.406L64.8957 592.509L66.3348 592.252L71.07 591.334L83.0901 555.234L79.259 561.149L70.4296 569.307L70.255 565.636L69.8068 565.888L69.5069 562.444Z" fill="#AADBB7"/>
<path d="M69.5069 562.444L67.3114 562.365L67.1991 567.356L66.489 567.715L66.3348 573.682L64.3468 574.406L64.8957 592.509L66.3348 592.252L71.07 591.334L83.0901 555.234L79.259 561.149L70.4296 569.307L70.255 565.636L69.8068 565.888L69.5069 562.444Z" fill="url(#paint39_linear_355_13606)"/>
<path d="M69.5824 562.372H67.3185L67.1991 567.356L66.4885 567.731L66.3375 573.546L64.3304 574.402L64.8957 592.509L66.3348 592.252L66.1804 581.34L70.672 574.406L79.259 561.149L70.4296 569.307L70.241 565.657L69.8068 565.888L69.5824 562.372Z" fill="#48A7A1"/>
<path d="M66.3348 592.252L66.1804 581.34L70.672 574.406L79.259 561.149L70.4296 569.307L70.672 574.406L66.1804 581.34L66.3375 573.546L64.3304 574.402L64.8957 592.509L66.3348 592.252Z" fill="#48A7A1"/>
<path d="M66.3348 592.252L66.1804 581.34L70.672 574.406L79.259 561.149L71.3203 572.447L71.0633 568.721L70.4296 569.307L70.6231 573.376L66.1804 579.289L66.3348 573.528L65.3408 573.967L65.8723 592.335L66.3348 592.252Z" fill="#25938C"/>
<path d="M69.8068 565.888L67.1991 567.356L67.2086 566.943L69.7784 565.452L69.8068 565.888Z" fill="#25938C"/>
<path d="M69.399 562.372L77.3853 556.949L79.0151 548.299L76.9778 543.201L75.5517 546.056L71.8438 539.937L70.6622 541.569L69.8472 540.141L66.7913 543.474L66.5875 542.323H64.9577L60.4756 550.543L67.4432 562.372H69.399Z" fill="#D2D4F8"/>
<path d="M70.6621 541.569L67.1987 546.056L66.7912 543.474L69.8472 540.141L70.6621 541.569Z" fill="#A491DD"/>
<path d="M67.4064 562.372H69.3622L70.6153 561.521L67.7078 561.799L68.7031 559.907L75.5148 546.056L75.0177 545.236L68.934 558.508L67.795 545.236L70.6253 541.569L70.5125 541.371L67.7038 544.49L67.4801 542.664L66.7544 543.474L67.0324 545.236L67.1619 546.056L68.6647 559.562L67.1901 562.005L67.4064 562.372Z" fill="#A491DD"/>
<path d="M52.479 550.183L55.6726 550.067L55.8359 557.355L56.8687 557.878L57.093 566.59L59.9846 567.646L59.1862 594.078L57.093 593.702L50.2055 592.362L32.7217 539.656L38.2942 548.291L51.1369 560.202L51.3908 554.842L52.0428 555.211L52.479 550.183Z" fill="#AADBB7"/>
<path d="M52.479 550.183L55.6726 550.067L55.8359 557.355L56.8687 557.878L57.093 566.59L59.9846 567.646L59.1862 594.078L57.093 593.702L50.2055 592.362L32.7217 539.656L38.2942 548.291L51.1369 560.202L51.3908 554.842L52.0428 555.211L52.479 550.183Z" fill="url(#paint40_linear_355_13606)"/>
<path d="M52.3692 550.078H55.6621L55.8359 557.355L56.8695 557.901L57.089 566.392L60.0086 567.641L59.1862 594.077L57.093 593.702L57.3176 577.771L50.7843 567.646L38.2942 548.291L51.1369 560.202L51.4113 554.874L52.0428 555.211L52.3692 550.078Z" fill="#48A7A1"/>
<path d="M57.093 593.702L57.3176 577.771L50.7843 567.646L38.2942 548.291L51.1369 560.202L50.7843 567.646L57.3176 577.771L57.089 566.392L60.0086 567.641L59.1862 594.078L57.093 593.702Z" fill="#48A7A1"/>
<path d="M57.093 593.702L57.3176 577.771L50.7843 567.646L38.2942 548.291L49.8414 564.788L50.2152 559.347L51.1369 560.202L50.8555 566.142L57.3176 574.776L57.093 566.365L58.5388 567.006L57.7658 593.823L57.093 593.702Z" fill="#25938C"/>
<path d="M52.0428 555.211L55.8359 557.355L55.8221 556.752L52.0841 554.574L52.0428 555.211Z" fill="#25938C"/>
<path d="M52.636 550.078L41.0196 542.16L38.6489 529.531L41.6123 522.087L43.6866 526.256L49.08 517.323L50.7987 519.705L51.984 517.62L56.4291 522.486L56.7254 520.806H59.0961L65.6155 532.807L55.4808 550.078H52.636Z" fill="#D2D4F8"/>
<path d="M50.7987 519.705L55.8364 526.256L56.4291 522.486L51.9841 517.62L50.7987 519.705Z" fill="#A491DD"/>
<path d="M55.5343 550.078H52.6895L50.8667 548.835L55.0959 549.241L53.648 546.479L43.7401 526.256L44.4632 525.058L53.3122 544.435L54.9689 525.058L50.8522 519.705L51.0162 519.416L55.1017 523.97L55.427 521.303L56.4826 522.486L56.0781 525.058L55.8899 526.256L53.704 545.974L55.8489 549.542L55.5343 550.078Z" fill="#A491DD"/>
<path d="M248.813 629.333L252.007 629.218L252.17 636.505L253.203 637.029L253.427 645.74L256.319 646.797L255.521 673.228L253.427 672.852L246.54 671.512L229.056 618.806L234.629 627.442L247.471 639.353L247.725 633.993L248.377 634.361L248.813 629.333Z" fill="#AADBB7"/>
<path d="M248.813 629.333L252.007 629.218L252.17 636.505L253.203 637.029L253.427 645.74L256.319 646.797L255.521 673.228L253.427 672.852L246.54 671.512L229.056 618.806L234.629 627.442L247.471 639.353L247.725 633.993L248.377 634.361L248.813 629.333Z" fill="url(#paint41_linear_355_13606)"/>
<path d="M248.704 629.228H251.997L252.17 636.505L253.204 637.052L253.424 645.542L256.343 646.792L255.521 673.228L253.427 672.852L253.652 656.921L247.119 646.797L234.629 627.442L247.471 639.353L247.746 634.024L248.377 634.361L248.704 629.228Z" fill="#48A7A1"/>
<path d="M253.427 672.852L253.652 656.921L247.119 646.797L234.629 627.442L247.471 639.353L247.119 646.797L253.652 656.921L253.424 645.542L256.343 646.792L255.521 673.228L253.427 672.852Z" fill="#48A7A1"/>
<path d="M253.427 672.852L253.652 656.921L247.119 646.797L234.629 627.442L246.176 643.938L246.55 638.498L247.471 639.353L247.19 645.293L253.652 653.927L253.427 645.515L254.873 646.156L254.1 672.973L253.427 672.852Z" fill="#25938C"/>
<path d="M248.377 634.361L252.17 636.505L252.157 635.902L248.419 633.724L248.377 634.361Z" fill="#25938C"/>
<path d="M248.97 629.228L237.354 621.31L234.983 608.682L237.947 601.238L240.021 605.406L245.414 596.473L247.133 598.855L248.319 596.771L252.764 601.636L253.06 599.956H255.431L261.95 611.957L251.815 629.228H248.97Z" fill="#FBE6DC"/>
<path d="M247.133 598.855L252.171 605.406L252.764 601.636L248.319 596.771L247.133 598.855Z" fill="#FFB1B1"/>
<path d="M251.869 629.228H249.024L247.201 627.986L251.43 628.392L249.983 625.629L240.075 605.406L240.798 604.209L249.647 623.586L251.303 604.209L247.187 598.855L247.351 598.567L251.436 603.12L251.761 600.454L252.817 601.636L252.413 604.209L252.224 605.406L250.038 625.125L252.183 628.692L251.869 629.228Z" fill="#FFB1B1"/>
<path d="M373.571 489.394L371.675 489.326L371.578 493.618L370.964 493.927L370.831 499.058L369.114 499.681L369.588 515.25L370.831 515.029L374.921 514.239L385.302 483.193L381.993 488.28L374.368 495.296L374.217 492.138L373.83 492.356L373.571 489.394Z" fill="#AADBB7"/>
<path d="M373.571 489.394L371.675 489.326L371.578 493.618L370.964 493.927L370.831 499.058L369.114 499.681L369.588 515.25L370.831 515.029L374.921 514.239L385.302 483.193L381.993 488.28L374.368 495.296L374.217 492.138L373.83 492.356L373.571 489.394Z" fill="url(#paint42_linear_355_13606)"/>
<path d="M373.636 489.332H371.681L371.578 493.618L370.964 493.94L370.834 498.942L369.1 499.678L369.588 515.25L370.831 515.029L370.698 505.644L374.577 499.681L381.993 488.28L374.368 495.296L374.205 492.157L373.83 492.356L373.636 489.332Z" fill="#48A7A1"/>
<path d="M370.831 515.029L370.698 505.644L374.577 499.681L381.993 488.28L374.368 495.296L374.577 499.681L370.698 505.644L370.834 498.942L369.1 499.678L369.588 515.25L370.831 515.029Z" fill="#48A7A1"/>
<path d="M370.831 515.029L370.698 505.644L374.577 499.681L381.993 488.28L375.137 497.997L374.915 494.792L374.368 495.296L374.535 498.795L370.698 503.88L370.831 498.926L369.973 499.303L370.432 515.1L370.831 515.029Z" fill="#25938C"/>
<path d="M373.83 492.356L371.578 493.618L371.586 493.263L373.805 491.98L373.83 492.356Z" fill="#25938C"/>
<path d="M373.478 489.332L380.375 484.668L381.782 477.229L380.023 472.844L378.791 475.3L375.589 470.038L374.569 471.441L373.865 470.213L371.226 473.079L371.05 472.09H369.642L365.771 479.159L371.789 489.332H373.478Z" fill="#FBE6DC"/>
<path d="M374.569 471.441L371.577 475.3L371.225 473.079L373.865 470.213L374.569 471.441Z" fill="#FFB1B1"/>
<path d="M371.757 489.332H373.446L374.528 488.6L372.017 488.839L372.877 487.212L378.76 475.3L378.33 474.595L373.076 486.009L372.092 474.595L374.537 471.441L374.439 471.271L372.014 473.953L371.821 472.383L371.194 473.079L371.434 474.595L371.546 475.3L372.844 486.915L371.57 489.016L371.757 489.332Z" fill="#FFB1B1"/>
<path d="M273.642 619.255L269.55 619.107L269.34 628.491L268.017 629.165L267.73 640.383L264.025 641.743L265.048 675.778L267.73 675.294L276.554 673.568L298.956 605.7L291.816 616.82L275.361 632.157L275.036 625.255L274.2 625.73L273.642 619.255Z" fill="#AADBB7"/>
<path d="M273.642 619.255L269.55 619.107L269.34 628.491L268.017 629.165L267.73 640.383L264.025 641.743L265.048 675.778L267.73 675.294L276.554 673.568L298.956 605.7L291.816 616.82L275.361 632.157L275.036 625.255L274.2 625.73L273.642 619.255Z" fill="url(#paint43_linear_355_13606)"/>
<path d="M273.782 619.12H269.563L269.34 628.491L268.016 629.195L267.735 640.128L263.994 641.737L265.048 675.778L267.73 675.294L267.442 654.78L275.813 641.743L291.816 616.82L275.361 632.157L275.009 625.296L274.2 625.73L273.782 619.12Z" fill="#48A7A1"/>
<path d="M267.73 675.294L267.442 654.78L275.813 641.743L291.816 616.82L275.361 632.157L275.813 641.743L267.442 654.78L267.735 640.128L263.994 641.737L265.048 675.778L267.73 675.294Z" fill="#48A7A1"/>
<path d="M267.73 675.294L267.442 654.78L275.813 641.743L291.816 616.82L277.021 638.062L276.542 631.056L275.361 632.157L275.722 639.807L267.442 650.924L267.73 640.093L265.877 640.918L266.868 675.45L267.73 675.294Z" fill="#25938C"/>
<path d="M274.2 625.73L269.34 628.491L269.358 627.714L274.147 624.91L274.2 625.73Z" fill="#25938C"/>
<path d="M273.44 619.12L288.324 608.925L291.361 592.663L287.565 583.078L284.907 588.446L277.997 576.943L275.794 580.01L274.276 577.326L268.58 583.591L268.201 581.428H265.163L256.81 596.881L269.795 619.12H273.44Z" fill="#FBE6DC"/>
<path d="M275.794 580.01L269.34 588.446L268.58 583.591L274.276 577.326L275.794 580.01Z" fill="#FFB1B1"/>
<path d="M269.727 619.12H273.372L275.707 617.521L270.289 618.043L272.144 614.486L284.838 588.446L283.912 586.904L272.574 611.855L270.451 586.904L275.726 580.01L275.516 579.639L270.281 585.502L269.864 582.068L268.512 583.591L269.03 586.904L269.271 588.446L272.072 613.836L269.324 618.43L269.727 619.12Z" fill="#FFB1B1"/>
<path d="M562.703 546.454L559.809 546.348L559.661 553.037L558.725 553.517L558.522 561.513L555.901 562.482L556.625 586.741L558.522 586.396L564.764 585.166L580.608 536.792L575.558 544.718L563.92 555.65L563.689 550.731L563.099 551.069L562.703 546.454Z" fill="#AADBB7"/>
<path d="M562.703 546.454L559.809 546.348L559.661 553.037L558.725 553.517L558.522 561.513L555.901 562.482L556.625 586.741L558.522 586.396L564.764 585.166L580.608 536.792L575.558 544.718L563.92 555.65L563.689 550.731L563.099 551.069L562.703 546.454Z" fill="url(#paint44_linear_355_13606)"/>
<path d="M562.803 546.358H559.819L559.661 553.037L558.724 553.538L558.525 561.331L555.88 562.478L556.625 586.741L558.522 586.396L558.318 571.775L564.239 562.482L575.558 544.718L563.92 555.65L563.671 550.76L563.099 551.069L562.803 546.358Z" fill="#48A7A1"/>
<path d="M558.522 586.396L558.318 571.775L564.239 562.482L575.558 544.718L563.92 555.65L564.239 562.482L558.318 571.775L558.525 561.331L555.88 562.478L556.625 586.741L558.522 586.396Z" fill="#48A7A1"/>
<path d="M558.522 586.396L558.318 571.775L564.239 562.482L575.558 544.718L565.094 559.859L564.755 554.865L563.92 555.65L564.175 561.102L558.318 569.026L558.522 561.306L557.212 561.894L557.912 586.507L558.522 586.396Z" fill="#25938C"/>
<path d="M563.099 551.069L559.661 553.037L559.674 552.483L563.061 550.484L563.099 551.069Z" fill="#25938C"/>
<path d="M562.561 546.358L573.088 539.091L575.237 527.5L572.551 520.668L570.671 524.494L565.784 516.295L564.226 518.481L563.152 516.568L559.124 521.033L558.855 519.492H556.707L550.798 530.506L559.983 546.358H562.561Z" fill="#FBE6DC"/>
<path d="M564.226 518.481L559.661 524.494L559.124 521.033L563.152 516.568L564.226 518.481Z" fill="#FFB1B1"/>
<path d="M559.935 546.358H562.513L564.165 545.218L560.332 545.59L561.644 543.055L570.623 524.494L569.968 523.395L561.948 541.179L560.447 523.395L564.178 518.481L564.029 518.217L560.327 522.396L560.032 519.948L559.075 521.033L559.442 523.395L559.612 524.494L561.593 542.592L559.65 545.866L559.935 546.358Z" fill="#FFB1B1"/>
<defs>
<filter id="filter0_d_355_13606" x="0" y="278" width="297.38" height="300.61" filterUnits="userSpaceOnUse" color-interpolation-filters="sRGB">
<feFlood flood-opacity="0" result="BackgroundImageFix"/>
<feColorMatrix in="SourceAlpha" type="matrix" values="0 0 0 0 0 0 0 0 0 0 0 0 0 0 0 0 0 0 127 0" result="hardAlpha"/>
<feOffset/>
<feGaussianBlur stdDeviation="10"/>
<feComposite in2="hardAlpha" operator="out"/>
<feColorMatrix type="matrix" values="0 0 0 0 0.795833 0 0 0 0 0.755047 0 0 0 0 0.746094 0 0 0 1 0"/>
<feBlend mode="normal" in2="BackgroundImageFix" result="effect1_dropShadow_355_13606"/>
<feBlend mode="normal" in="SourceGraphic" in2="effect1_dropShadow_355_13606" result="shape"/>
</filter>
<filter id="filter1_d_355_13606" x="157.385" y="412.534" width="119.593" height="108.621" filterUnits="userSpaceOnUse" color-interpolation-filters="sRGB">
<feFlood flood-opacity="0" result="BackgroundImageFix"/>
<feColorMatrix in="SourceAlpha" type="matrix" values="0 0 0 0 0 0 0 0 0 0 0 0 0 0 0 0 0 0 127 0" result="hardAlpha"/>
<feOffset dy="4"/>
<feGaussianBlur stdDeviation="2"/>
<feComposite in2="hardAlpha" operator="out"/>
<feColorMatrix type="matrix" values="0 0 0 0 0.0705882 0 0 0 0 0.345098 0 0 0 0 0.403922 0 0 0 0.15 0"/>
<feBlend mode="normal" in2="BackgroundImageFix" result="effect1_dropShadow_355_13606"/>
<feBlend mode="normal" in="SourceGraphic" in2="effect1_dropShadow_355_13606" result="shape"/>
</filter>
<filter id="filter2_d_355_13606" x="157.385" y="412.534" width="119.593" height="108.62" filterUnits="userSpaceOnUse" color-interpolation-filters="sRGB">
<feFlood flood-opacity="0" result="BackgroundImageFix"/>
<feColorMatrix in="SourceAlpha" type="matrix" values="0 0 0 0 0 0 0 0 0 0 0 0 0 0 0 0 0 0 127 0" result="hardAlpha"/>
<feOffset dy="4"/>
<feGaussianBlur stdDeviation="2"/>
<feComposite in2="hardAlpha" operator="out"/>
<feColorMatrix type="matrix" values="0 0 0 0 0.0705882 0 0 0 0 0.345098 0 0 0 0 0.403922 0 0 0 0.15 0"/>
<feBlend mode="normal" in2="BackgroundImageFix" result="effect1_dropShadow_355_13606"/>
<feBlend mode="normal" in="SourceGraphic" in2="effect1_dropShadow_355_13606" result="shape"/>
</filter>
<linearGradient id="paint0_linear_355_13606" x1="148.694" y1="298" x2="148.694" y2="391.69" gradientUnits="userSpaceOnUse">
<stop stop-color="#F6E4A1"/>
<stop offset="0.588542" stop-color="#EBC644"/>
</linearGradient>
<linearGradient id="paint1_linear_355_13606" x1="241.3" y1="335.683" x2="175.051" y2="401.931" gradientUnits="userSpaceOnUse">
<stop stop-color="#F6E4A1"/>
<stop offset="0.588542" stop-color="#EBC644"/>
</linearGradient>
<linearGradient id="paint2_linear_355_13606" x1="148.694" y1="558.61" x2="148.694" y2="464.92" gradientUnits="userSpaceOnUse">
<stop stop-color="#F6E4A1"/>
<stop offset="0.588542" stop-color="#EBC644"/>
</linearGradient>
<linearGradient id="paint3_linear_355_13606" x1="239.142" y1="518.229" x2="172.892" y2="451.981" gradientUnits="userSpaceOnUse">
<stop stop-color="#F6E4A1"/>
<stop offset="0.588542" stop-color="#EBC644"/>
</linearGradient>
<linearGradient id="paint4_linear_355_13606" x1="277.38" y1="426.682" x2="183.691" y2="426.682" gradientUnits="userSpaceOnUse">
<stop stop-color="#F6E4A1"/>
<stop offset="0.588542" stop-color="#EBC644"/>
</linearGradient>
<linearGradient id="paint5_linear_355_13606" x1="57.6767" y1="518.229" x2="123.926" y2="451.981" gradientUnits="userSpaceOnUse">
<stop stop-color="#F6E4A1"/>
<stop offset="0.588542" stop-color="#EBC644"/>
</linearGradient>
<linearGradient id="paint6_linear_355_13606" x1="20" y1="426.69" x2="113.689" y2="426.69" gradientUnits="userSpaceOnUse">
<stop stop-color="#F6E4A1"/>
<stop offset="0.588542" stop-color="#EBC644"/>
</linearGradient>
<linearGradient id="paint7_linear_355_13606" x1="57.6766" y1="335.672" x2="123.926" y2="401.92" gradientUnits="userSpaceOnUse">
<stop stop-color="#F6E4A1"/>
<stop offset="0.588542" stop-color="#EBC644"/>
</linearGradient>
<radialGradient id="paint8_radial_355_13606" cx="0" cy="0" r="1" gradientUnits="userSpaceOnUse" gradientTransform="translate(148.562 427.638) rotate(67.5003) scale(78.6137 78.613)">
<stop stop-color="#EBC644"/>
<stop offset="1" stop-color="#F6E4A1"/>
</radialGradient>
<linearGradient id="paint9_linear_355_13606" x1="333.062" y1="358.064" x2="333.062" y2="672.235" gradientUnits="userSpaceOnUse">
<stop offset="0.333333" stop-color="#7DA7E7" stop-opacity="0"/>
<stop offset="1" stop-color="#7DA7E7" stop-opacity="0.5"/>
</linearGradient>
<linearGradient id="paint10_linear_355_13606" x1="277.665" y1="680.765" x2="322.38" y2="808.228" gradientUnits="userSpaceOnUse">
<stop stop-color="white" stop-opacity="0"/>
<stop offset="1" stop-color="white"/>
</linearGradient>
<linearGradient id="paint11_linear_355_13606" x1="305.871" y1="480.41" x2="305.871" y2="679.859" gradientUnits="userSpaceOnUse">
<stop stop-color="#AADBB7"/>
<stop offset="0.9999" stop-color="#D9E084"/>
<stop offset="1" stop-color="#D9E084" stop-opacity="0.5"/>
</linearGradient>
<linearGradient id="paint12_linear_355_13606" x1="139.638" y1="588.249" x2="126.196" y2="627.529" gradientUnits="userSpaceOnUse">
<stop offset="0.489583" stop-color="#48A7A1"/>
<stop offset="1" stop-color="#48A7A1" stop-opacity="0.5"/>
</linearGradient>
<linearGradient id="paint13_linear_355_13606" x1="141.318" y1="582.083" x2="65.8783" y2="767.661" gradientUnits="userSpaceOnUse">
<stop offset="0.260417" stop-color="#125867"/>
<stop offset="1" stop-color="#48A7A1"/>
</linearGradient>
<linearGradient id="paint14_linear_355_13606" x1="430.789" y1="581.055" x2="491.846" y2="772.666" gradientUnits="userSpaceOnUse">
<stop offset="0.286458" stop-color="#48A7A1"/>
<stop offset="1" stop-color="#AADBB7"/>
</linearGradient>
<radialGradient id="paint15_radial_355_13606" cx="0" cy="0" r="1" gradientUnits="userSpaceOnUse" gradientTransform="translate(303.127 822.681) rotate(90) scale(99.679 289.127)">
<stop stop-color="#EBC644" stop-opacity="0.35"/>
<stop offset="0.822917" stop-color="#FBEFE7" stop-opacity="0"/>
</radialGradient>
<radialGradient id="paint16_radial_355_13606" cx="0" cy="0" r="1" gradientUnits="userSpaceOnUse" gradientTransform="translate(339.269 500.856) rotate(90) scale(11.6584 39.6384)">
<stop stop-color="#48A7A1" stop-opacity="0.4"/>
<stop offset="1" stop-color="#48A7A1" stop-opacity="0"/>
</radialGradient>
<radialGradient id="paint17_radial_355_13606" cx="0" cy="0" r="1" gradientUnits="userSpaceOnUse" gradientTransform="translate(127.085 572.555) rotate(90) scale(11.0754 39.6384)">
<stop stop-color="#48A7A1" stop-opacity="0.75"/>
<stop offset="1" stop-color="#48A7A1" stop-opacity="0"/>
</radialGradient>
<radialGradient id="paint18_radial_355_13606" cx="0" cy="0" r="1" gradientUnits="userSpaceOnUse" gradientTransform="translate(185.959 548.656) rotate(90) scale(5.82918 21.568)">
<stop stop-color="#48A7A1" stop-opacity="0.75"/>
<stop offset="1" stop-color="#48A7A1" stop-opacity="0"/>
</radialGradient>
<radialGradient id="paint19_radial_355_13606" cx="0" cy="0" r="1" gradientUnits="userSpaceOnUse" gradientTransform="translate(225.598 537.58) rotate(90) scale(6.4121 21.568)">
<stop stop-color="#48A7A1" stop-opacity="0.75"/>
<stop offset="1" stop-color="#48A7A1" stop-opacity="0"/>
</radialGradient>
<radialGradient id="paint20_radial_355_13606" cx="0" cy="0" r="1" gradientUnits="userSpaceOnUse" gradientTransform="translate(475.088 567.307) rotate(90) scale(23.3167 82.1914)">
<stop stop-color="#6EC982" stop-opacity="0.75"/>
<stop offset="0.786458" stop-color="#6EC982" stop-opacity="0"/>
</radialGradient>
<linearGradient id="paint21_linear_355_13606" x1="333.063" y1="358.063" x2="333.063" y2="672.235" gradientUnits="userSpaceOnUse">
<stop offset="0.333333" stop-color="#7DA7E7" stop-opacity="0"/>
<stop offset="1" stop-color="#7DA7E7" stop-opacity="0.5"/>
</linearGradient>
<linearGradient id="paint22_linear_355_13606" x1="333.063" y1="358.063" x2="333.063" y2="672.235" gradientUnits="userSpaceOnUse">
<stop offset="0.333333" stop-color="#7DA7E7" stop-opacity="0"/>
<stop offset="1" stop-color="#7DA7E7" stop-opacity="0.5"/>
</linearGradient>
<linearGradient id="paint23_linear_355_13606" x1="277.665" y1="680.764" x2="322.38" y2="808.228" gradientUnits="userSpaceOnUse">
<stop stop-color="white" stop-opacity="0"/>
<stop offset="1" stop-color="#FFF6D8"/>
</linearGradient>
<linearGradient id="paint24_linear_355_13606" x1="117.132" y1="530.563" x2="127.619" y2="567.45" gradientUnits="userSpaceOnUse">
<stop offset="0.40625" stop-color="#AADBB7"/>
<stop offset="1" stop-color="#25938C" stop-opacity="0.3"/>
</linearGradient>
<linearGradient id="paint25_linear_355_13606" x1="307.735" y1="525.755" x2="299.119" y2="555.991" gradientUnits="userSpaceOnUse">
<stop offset="0.40625" stop-color="#AADBB7"/>
<stop offset="1" stop-color="#25938C" stop-opacity="0.3"/>
</linearGradient>
<radialGradient id="paint26_radial_355_13606" cx="0" cy="0" r="1" gradientUnits="userSpaceOnUse" gradientTransform="translate(262.464 675.11) rotate(90) scale(6.68154 26.2122)">
<stop stop-color="#25938C"/>
<stop offset="1" stop-color="#25938C" stop-opacity="0"/>
</radialGradient>
<radialGradient id="paint27_radial_355_13606" cx="0" cy="0" r="1" gradientUnits="userSpaceOnUse" gradientTransform="translate(58.9337 593.119) rotate(90) scale(6.68154 26.2122)">
<stop stop-color="#25938C"/>
<stop offset="1" stop-color="#25938C" stop-opacity="0"/>
</radialGradient>
<radialGradient id="paint28_radial_355_13606" cx="0" cy="0" r="1" gradientUnits="userSpaceOnUse" gradientTransform="translate(324.14 625.255) rotate(-94.512) scale(13.0663 51.2601)">
<stop stop-color="#25938C"/>
<stop offset="1" stop-color="#259385" stop-opacity="0"/>
</radialGradient>
<radialGradient id="paint29_radial_355_13606" cx="0" cy="0" r="1" gradientUnits="userSpaceOnUse" gradientTransform="translate(460.325 610.242) rotate(-93.601) scale(11.3491 35.5874)">
<stop stop-color="#25938C"/>
<stop offset="1" stop-color="#259385" stop-opacity="0"/>
</radialGradient>
<radialGradient id="paint30_radial_355_13606" cx="0" cy="0" r="1" gradientUnits="userSpaceOnUse" gradientTransform="translate(537.803 590.928) rotate(80.7392) scale(11.4763 91.182)">
<stop stop-color="#25938C"/>
<stop offset="1" stop-color="#259385" stop-opacity="0"/>
</radialGradient>
<radialGradient id="paint31_radial_355_13606" cx="0" cy="0" r="1" gradientUnits="userSpaceOnUse" gradientTransform="translate(374.642 513.127) rotate(-95.3286) scale(7.59194 35.1165)">
<stop stop-color="#25938C"/>
<stop offset="0.796875" stop-color="#259385" stop-opacity="0"/>
</radialGradient>
<linearGradient id="paint32_linear_355_13606" x1="131.377" y1="422.708" x2="217.12" y2="634.469" gradientUnits="userSpaceOnUse">
<stop offset="0.65625" stop-color="#AADBB7"/>
<stop offset="1" stop-color="#48A7A1"/>
</linearGradient>
<linearGradient id="paint33_linear_355_13606" x1="226.182" y1="419.175" x2="157.023" y2="634.469" gradientUnits="userSpaceOnUse">
<stop offset="0.484375" stop-color="#48A7A1"/>
<stop offset="1" stop-color="#125867"/>
</linearGradient>
<linearGradient id="paint34_linear_355_13606" x1="469.574" y1="560.129" x2="455.715" y2="608.809" gradientUnits="userSpaceOnUse">
<stop offset="0.40625" stop-color="#AADBB7"/>
<stop offset="1" stop-color="#25938C" stop-opacity="0.3"/>
</linearGradient>
<linearGradient id="paint35_linear_355_13606" x1="547.168" y1="553.79" x2="536.311" y2="592.182" gradientUnits="userSpaceOnUse">
<stop offset="0.40625" stop-color="#AADBB7"/>
<stop offset="1" stop-color="#25938C" stop-opacity="0.3"/>
</linearGradient>
<linearGradient id="paint36_linear_355_13606" x1="336.869" y1="580.932" x2="326.382" y2="617.819" gradientUnits="userSpaceOnUse">
<stop offset="0.40625" stop-color="#AADBB7"/>
<stop offset="1" stop-color="#25938C" stop-opacity="0.3"/>
</linearGradient>
<linearGradient id="paint37_linear_355_13606" x1="311.735" y1="578.216" x2="325.965" y2="628.401" gradientUnits="userSpaceOnUse">
<stop offset="0.40625" stop-color="#AADBB7"/>
<stop offset="1" stop-color="#25938C" stop-opacity="0.3"/>
</linearGradient>
<linearGradient id="paint38_linear_355_13606" x1="522.168" y1="540.929" x2="534.155" y2="582.959" gradientUnits="userSpaceOnUse">
<stop offset="0.40625" stop-color="#AADBB7"/>
<stop offset="1" stop-color="#25938C" stop-opacity="0.3"/>
</linearGradient>
<linearGradient id="paint39_linear_355_13606" x1="73.7185" y1="555.234" x2="63.2317" y2="592.12" gradientUnits="userSpaceOnUse">
<stop offset="0.40625" stop-color="#AADBB7"/>
<stop offset="1" stop-color="#25938C" stop-opacity="0.3"/>
</linearGradient>
<linearGradient id="paint40_linear_355_13606" x1="46.3531" y1="539.656" x2="61.7125" y2="593.48" gradientUnits="userSpaceOnUse">
<stop offset="0.40625" stop-color="#AADBB7"/>
<stop offset="1" stop-color="#25938C" stop-opacity="0.3"/>
</linearGradient>
<linearGradient id="paint41_linear_355_13606" x1="242.688" y1="618.806" x2="258.047" y2="672.63" gradientUnits="userSpaceOnUse">
<stop offset="0.40625" stop-color="#AADBB7"/>
<stop offset="1" stop-color="#25938C" stop-opacity="0.3"/>
</linearGradient>
<linearGradient id="paint42_linear_355_13606" x1="377.208" y1="483.193" x2="368.222" y2="514.935" gradientUnits="userSpaceOnUse">
<stop offset="0.40625" stop-color="#AADBB7"/>
<stop offset="1" stop-color="#25938C" stop-opacity="0.3"/>
</linearGradient>
<linearGradient id="paint43_linear_355_13606" x1="281.49" y1="605.7" x2="261.628" y2="674.956" gradientUnits="userSpaceOnUse">
<stop offset="0.40625" stop-color="#AADBB7"/>
<stop offset="1" stop-color="#25938C" stop-opacity="0.3"/>
</linearGradient>
<linearGradient id="paint44_linear_355_13606" x1="568.255" y1="536.792" x2="554.006" y2="586.097" gradientUnits="userSpaceOnUse">
<stop offset="0.40625" stop-color="#AADBB7"/>
<stop offset="1" stop-color="#25938C" stop-opacity="0.3"/>
</linearGradient>
</defs>
</svg>
