<svg width="150" height="379" viewBox="0 0 150 379" fill="none" xmlns="http://www.w3.org/2000/svg">
<path d="M42.8448 318.895L47.42 319.912L51.9952 318.895L58.8474 336.696L72.3294 315.334L79.9671 327.541L96.2513 294.481L98.2555 290.413L92.1552 330.315L149.091 317.369L134.857 328.558L89.1051 344.536L84.0216 376.367L74.3628 371.79L67.9042 372.298L64.7041 378.401L61.1456 367.282L54.537 373.824L47.1815 331.838L43.8616 340.765L43.4466 331.838L0.143066 291.938L19.9689 302.111L42.8921 319.912L42.8448 318.895Z" fill="#FBE6DC"/>
<path d="M70.8043 335.17L65.7208 353.988L65.6996 354.497L65.2612 365.023L78.1999 344.536L149.091 317.369L134.857 328.558L89.1051 344.536L84.0216 376.367L74.3628 371.79L67.9042 372.298L64.7041 378.401L61.1456 367.282L54.537 373.824L47.1815 331.838L48.5904 328.049L65.2612 365.023L65.6996 354.497L58.8474 336.696L72.3294 315.334L71.3127 335.054L83.0049 332.396L81.9881 330.771L79.9671 327.541L96.2513 294.481L81.9881 330.771L83.0049 332.396L71.3127 335.054L70.8043 335.17Z" fill="#F7A9A8"/>
<path d="M43.4466 331.838L0.143066 291.938L19.9689 307.197L43.2232 327.032L43.4466 331.838Z" fill="#F7A9A8"/>
<path d="M70.8043 335.17L65.7208 353.988L65.6996 354.497L64.7041 378.401L67.9042 372.298L80.9714 347.376L89.1051 344.536L88.6515 347.376L81.6636 350.6L74.3628 371.79L67.9042 372.298L64.7041 378.401L61.1456 367.282L59.8834 368.531L47.5783 330.771L48.5904 328.049L51.9952 318.895L52.6002 320.466L49.8028 331.838L61.1456 367.282L64.7041 378.401L65.6996 354.497L58.8474 336.696L59.8834 335.054L65.527 353.92L70.0383 334.238L71.3849 333.654L81.9881 330.771L79.9671 327.541L80.8377 325.773L82.535 329.38L92.4766 328.213L92.1552 330.315L83.0048 332.396L71.3127 335.054L70.8043 335.17Z" fill="#EF798A"/>
<path d="M71.2237 317.464L71 -7" stroke="#F7A9A8"/>
</svg>
