<svg width="179" height="538" viewBox="0 0 179 538" fill="none" xmlns="http://www.w3.org/2000/svg">
<path d="M25.8769 461.804L0.844864 483.204L29.6697 471.349L46.3577 534.411L51.4573 528.662L54.6652 537.971L80.4923 522.947L100.288 529.826L111.693 508.836L178.345 510.718L148.762 489.318H123.73L175.311 411.36L109.972 483.857L107.224 480.911L107.8 456.453L65.3214 380.072L43.9724 466.72L57.1601 490.475L53.1846 493.394L38.0137 467.918L25.8769 461.804Z" fill="#D2D4F8"/>
<path d="M51.4573 528.662L54.6652 537.971L60.1603 508.836L61.3892 507.102L80.4923 522.947L100.288 529.826L111.693 508.836L178.345 510.718L88.9564 495.891L62.6182 505.368L91.8706 464.096L107.224 480.911L107.8 456.453L65.3214 380.072L82.3268 471.349L57.1601 490.475L53.1846 493.394L61.2794 506.607L60.1603 508.836L54.6652 537.971L51.4573 528.662L33.4624 469.79L29.6697 471.349L46.3577 534.411L51.4573 528.662Z" fill="#A491DD"/>
<path d="M38.0127 467.918L33.4614 469.79L33.2183 469.89L32.5818 470.151L29.6687 471.349L30.157 473.195L33.0012 471.583L50.1522 530.132L50.448 529.799L51.4563 528.662L54.6642 537.971L60.1593 508.836L61.3882 507.102L65.3204 507.224L80.7613 515.191L79.5505 523.494L80.4913 522.947L81.1856 523.188L83.1831 515.191L94.1452 508.115L87.4212 510.931L82.0084 514.54L72.8906 509.713L65.3204 507.224L61.3882 507.102L62.4464 505.609L62.6172 505.368L104.006 490.475L107.223 489.318H123.729L125.564 486.585L106.415 487.802L109.971 483.857L109.217 483.049L107.223 480.911L89.2375 459.196L57.1591 490.475L91.8695 464.096L107.223 480.911L109.217 483.049L62.9885 504.844L62.6172 505.368L62.4464 505.609L61.3512 504.081L53.5163 493.15L53.1836 493.394L60.437 505.513L57.7545 509.713L54.6642 537.971L51.4563 528.662L33.8607 471.096L38.3802 468.535L38.0127 467.918Z" fill="#6D4685"/>
<path d="M38.0127 467.918L33.4614 469.79L33.2183 469.89L32.5818 470.151L29.6687 471.349L30.157 473.195L33.0012 471.583L50.1522 530.132L50.448 529.799L51.4563 528.662L54.6642 537.971L60.1593 508.836L109.562 512.756L111.692 508.836L94.1452 508.115L65.3204 507.224L61.3882 507.102L62.4464 505.609L62.6172 505.368L104.006 490.475L107.223 489.318H123.729L125.564 486.585L106.415 487.802L109.971 483.857L109.217 483.049L107.223 480.911L89.2375 459.196L57.1591 490.475L91.8695 464.096L107.223 480.911L109.217 483.049L62.9885 504.844L62.6172 505.368L62.4464 505.609L89.2374 467.717L60.1592 502.419L53.5163 493.15L53.1836 493.394L60.437 505.513L57.7545 509.713L54.6642 537.971L51.4563 528.662L33.8607 471.096L38.3802 468.535L38.0127 467.918Z" fill="#6D4685"/>
<path d="M62.6172 505.368L91.8695 464.096L83.183 470.76L65.3204 380.072L80.7612 472.538L83.183 470.76L91.8695 464.096L62.6172 505.368L87.4211 496.443L178.344 510.718L91.0538 495.136L87.4211 496.443L62.6172 505.368Z" fill="#6D4685"/>
<path d="M92 464.351V-37.5" stroke="#A491DD"/>
</svg>
