<svg width="31" height="39" viewBox="0 0 31 39" fill="none" xmlns="http://www.w3.org/2000/svg">
<g filter="url(#filter0_d_571_14824)">
<ellipse rx="9.99988" ry="9.99899" transform="matrix(0.943783 -0.330566 0.330633 0.943759 14.1622 21.5177)" fill="#D9D9D9"/>
<ellipse rx="9.99988" ry="9.99899" transform="matrix(0.943783 -0.330566 0.330633 0.943759 14.1622 21.5177)" fill="url(#paint0_linear_571_14824)"/>
</g>
<path d="M9.86057 23.4246C7.40964 20.0157 6.89528 12.9254 6.73256 8.51779L12.3448 6.55206C14.7799 9.96646 18.8513 16.0082 19.1879 20.1576C19.4964 23.9593 12.3115 26.8335 9.86057 23.4246Z" fill="#48A7A1"/>
<path d="M9.86057 23.4246C7.40964 20.0157 6.89528 12.9254 6.73256 8.51779L12.3448 6.55206C14.7799 9.96646 18.8513 16.0082 19.1879 20.1576C19.4964 23.9593 12.3115 26.8335 9.86057 23.4246Z" fill="url(#paint1_linear_571_14824)" fill-opacity="0.6"/>
<ellipse rx="7.9999" ry="7.99919" transform="matrix(0.943783 -0.330566 0.330633 0.943759 10.195 10.1939)" fill="url(#paint2_linear_571_14824)"/>
<defs>
<filter id="filter0_d_571_14824" x="2.15942" y="10.5161" width="28.0055" height="28.0032" filterUnits="userSpaceOnUse" color-interpolation-filters="sRGB">
<feFlood flood-opacity="0" result="BackgroundImageFix"/>
<feColorMatrix in="SourceAlpha" type="matrix" values="0 0 0 0 0 0 0 0 0 0 0 0 0 0 0 0 0 0 127 0" result="hardAlpha"/>
<feOffset dx="2" dy="3"/>
<feGaussianBlur stdDeviation="2"/>
<feComposite in2="hardAlpha" operator="out"/>
<feColorMatrix type="matrix" values="0 0 0 0 0.883333 0 0 0 0 0.874132 0 0 0 0 0.864931 0 0 0 1 0"/>
<feBlend mode="normal" in2="BackgroundImageFix" result="effect1_dropShadow_571_14824"/>
<feBlend mode="normal" in="SourceGraphic" in2="effect1_dropShadow_571_14824" result="shape"/>
</filter>
<linearGradient id="paint0_linear_571_14824" x1="9.99987" y1="2.70056e-07" x2="28.1223" y2="29.3735" gradientUnits="userSpaceOnUse">
<stop stop-color="#48A7A1"/>
<stop offset="1" stop-color="#AADBB7"/>
</linearGradient>
<linearGradient id="paint1_linear_571_14824" x1="9.4999" y1="7.54851" x2="15.4495" y2="24.5349" gradientUnits="userSpaceOnUse">
<stop offset="0.515625" stop-color="#125867"/>
<stop offset="1" stop-color="#48A7A1"/>
</linearGradient>
<linearGradient id="paint2_linear_571_14824" x1="7.9999" y1="2.16045e-07" x2="22.4979" y2="23.4988" gradientUnits="userSpaceOnUse">
<stop offset="0.03125" stop-color="#48A7A1"/>
<stop offset="1" stop-color="#AADBB7"/>
</linearGradient>
</defs>
</svg>
