<svg width="31" height="40" viewBox="0 0 31 40" fill="none" xmlns="http://www.w3.org/2000/svg">
<g filter="url(#filter0_d_571_14766)">
<circle cx="14.1622" cy="22.0202" r="10" transform="rotate(-19.3052 14.1622 22.0202)" fill="#D9D9D9"/>
<circle cx="14.1622" cy="22.0202" r="10" transform="rotate(-19.3052 14.1622 22.0202)" fill="url(#paint0_linear_571_14766)"/>
</g>
<path d="M9.86057 23.9273C7.40964 20.5181 6.89528 13.4269 6.73256 9.0188L12.3448 7.05285C14.7799 10.4676 18.8513 16.5101 19.1879 20.66C19.4964 24.4621 12.3115 27.3365 9.86057 23.9273Z" fill="#FFB1B1"/>
<path d="M9.86057 23.9273C7.40964 20.5181 6.89528 13.4269 6.73256 9.0188L12.3448 7.05285C14.7799 10.4676 18.8513 16.5101 19.1879 20.66C19.4964 24.4621 12.3115 27.3365 9.86057 23.9273Z" fill="url(#paint1_linear_571_14766)" fill-opacity="0.6"/>
<circle cx="10.195" cy="10.695" r="8" transform="rotate(-19.3052 10.195 10.695)" fill="url(#paint2_linear_571_14766)"/>
<defs>
<filter id="filter0_d_571_14766" x="2.15942" y="11.0175" width="28.0055" height="28.0055" filterUnits="userSpaceOnUse" color-interpolation-filters="sRGB">
<feFlood flood-opacity="0" result="BackgroundImageFix"/>
<feColorMatrix in="SourceAlpha" type="matrix" values="0 0 0 0 0 0 0 0 0 0 0 0 0 0 0 0 0 0 127 0" result="hardAlpha"/>
<feOffset dx="2" dy="3"/>
<feGaussianBlur stdDeviation="2"/>
<feComposite in2="hardAlpha" operator="out"/>
<feColorMatrix type="matrix" values="0 0 0 0 0.883333 0 0 0 0 0.874132 0 0 0 0 0.864931 0 0 0 1 0"/>
<feBlend mode="normal" in2="BackgroundImageFix" result="effect1_dropShadow_571_14766"/>
<feBlend mode="normal" in="SourceGraphic" in2="effect1_dropShadow_571_14766" result="shape"/>
</filter>
<linearGradient id="paint0_linear_571_14766" x1="14.1622" y1="12.0202" x2="32.2872" y2="41.3952" gradientUnits="userSpaceOnUse">
<stop stop-color="#FFB1B1"/>
<stop offset="1" stop-color="#FBE6DC"/>
</linearGradient>
<linearGradient id="paint1_linear_571_14766" x1="9.4999" y1="8.04941" x2="15.4507" y2="25.0373" gradientUnits="userSpaceOnUse">
<stop offset="0.515625" stop-color="#EF798A"/>
<stop offset="1" stop-color="#FFB1B1"/>
</linearGradient>
<linearGradient id="paint2_linear_571_14766" x1="10.195" y1="2.69498" x2="24.695" y2="26.195" gradientUnits="userSpaceOnUse">
<stop offset="0.03125" stop-color="#FFB1B1"/>
<stop offset="1" stop-color="#FBE6DC"/>
</linearGradient>
</defs>
</svg>
