<svg width="31" height="39" viewBox="0 0 31 39" fill="none" xmlns="http://www.w3.org/2000/svg">
<g filter="url(#filter0_d_741_14417)">
<ellipse rx="9.99988" ry="9.99899" transform="matrix(0.943783 -0.330566 0.330633 0.943759 14.1617 21.5177)" fill="#D9D9D9"/>
<ellipse rx="9.99988" ry="9.99899" transform="matrix(0.943783 -0.330566 0.330633 0.943759 14.1617 21.5177)" fill="url(#paint0_linear_741_14417)"/>
</g>
<path d="M9.86106 23.4247C7.41013 20.0158 6.89577 12.9255 6.73305 8.51788L12.3453 6.55216C14.7804 9.96655 18.8518 16.0083 19.1884 20.1577C19.4969 23.9594 12.312 26.8335 9.86106 23.4247Z" fill="#7DA7E7"/>
<path d="M9.86106 23.4247C7.41013 20.0158 6.89577 12.9255 6.73305 8.51788L12.3453 6.55216C14.7804 9.96655 18.8518 16.0083 19.1884 20.1577C19.4969 23.9594 12.312 26.8335 9.86106 23.4247Z" fill="url(#paint1_linear_741_14417)" fill-opacity="0.6"/>
<ellipse rx="7.9999" ry="7.99919" transform="matrix(0.943783 -0.330566 0.330633 0.943759 10.195 10.1939)" fill="url(#paint2_linear_741_14417)"/>
<defs>
<filter id="filter0_d_741_14417" x="2.15894" y="10.5161" width="28.0054" height="28.0032" filterUnits="userSpaceOnUse" color-interpolation-filters="sRGB">
<feFlood flood-opacity="0" result="BackgroundImageFix"/>
<feColorMatrix in="SourceAlpha" type="matrix" values="0 0 0 0 0 0 0 0 0 0 0 0 0 0 0 0 0 0 127 0" result="hardAlpha"/>
<feOffset dx="2" dy="3"/>
<feGaussianBlur stdDeviation="2"/>
<feComposite in2="hardAlpha" operator="out"/>
<feColorMatrix type="matrix" values="0 0 0 0 0.883333 0 0 0 0 0.874132 0 0 0 0 0.864931 0 0 0 1 0"/>
<feBlend mode="normal" in2="BackgroundImageFix" result="effect1_dropShadow_741_14417"/>
<feBlend mode="normal" in="SourceGraphic" in2="effect1_dropShadow_741_14417" result="shape"/>
</filter>
<linearGradient id="paint0_linear_741_14417" x1="9.99988" y1="2.70056e-07" x2="28.1223" y2="29.3735" gradientUnits="userSpaceOnUse">
<stop stop-color="#7DA7E7"/>
<stop offset="1" stop-color="#DFEDFE"/>
</linearGradient>
<linearGradient id="paint1_linear_741_14417" x1="9.50039" y1="7.5486" x2="15.45" y2="24.535" gradientUnits="userSpaceOnUse">
<stop offset="0.515625" stop-color="#26467E"/>
<stop offset="1" stop-color="#7DA7E7"/>
</linearGradient>
<linearGradient id="paint2_linear_741_14417" x1="7.9999" y1="2.16045e-07" x2="22.4979" y2="23.4988" gradientUnits="userSpaceOnUse">
<stop offset="0.03125" stop-color="#7DA7E7"/>
<stop offset="1" stop-color="#DFECFE"/>
</linearGradient>
</defs>
</svg>
