<svg width="481" height="407" viewBox="0 0 481 407" fill="none" xmlns="http://www.w3.org/2000/svg">
<ellipse cx="248.5" cy="359.5" rx="188.5" ry="39.5" fill="url(#paint0_radial_892_14468)" fill-opacity="0.5"/>
<path d="M267 143V199" stroke="#F6E4A1" stroke-width="6" stroke-linecap="square"/>
<mask id="mask0_892_14468" style="mask-type:alpha" maskUnits="userSpaceOnUse" x="27" y="175" width="454" height="210">
<path d="M162.437 384.772L118.78 379.026L55.2978 262.094L27.6951 211.251L197.484 231.98L249.894 221.449L268.287 199.22L281.924 215.012L481 175.01L379.995 340.983L162.437 384.772Z" fill="#FEFEFE"/>
</mask>
<g mask="url(#mask0_892_14468)">
<path d="M162.437 384.772L118.78 379.026L55.2976 262.094L27.6949 211.251L197.484 231.98L249.894 221.449L268.287 199.22L281.924 215.012L481 175.01L379.995 340.983L162.437 384.772Z" fill="#FEFEFE"/>
<path d="M481 175.01L345.327 288.437L337.679 294.831L240.619 332.163L68.434 286.29L55.2976 262.094L27.6949 211.251L185.6 253.826L197.484 231.98L249.894 221.449L228.057 247.838L216.261 262.094L334.747 276.184L281.924 215.012L481 175.01Z" fill="#F9EBE2"/>
<path d="M162.437 384.772L118.78 379.026L206.223 345.393L236.678 333.679L70.5678 290.22L57.5206 266.188L27.6951 211.251L185.6 253.826L197.484 231.98L249.894 221.449L228.057 247.838L216.261 262.094L337.679 294.831L345.327 288.437L331.505 272.43L281.924 215.012L481 175.01L345.327 288.437L337.679 294.831L379.995 340.983L162.437 384.772Z" fill="#FEF8F4"/>
<path d="M162.437 384.772L118.78 379.026L337.679 294.831L297.93 284.114L216.261 262.094L185.6 253.826L197.484 231.98L249.894 221.449L228.057 247.838L197.484 231.98L216.261 262.094L297.93 284.114L337.679 294.831L345.327 288.437L331.112 271.974L281.924 215.012L291.285 212.742L353.773 257.315L481 175.01L345.327 288.437L337.679 294.831L379.995 340.983L162.437 384.772Z" fill="#F9EBE2"/>
<path d="M118.782 379.026L162.439 384.772L379.997 340.983M118.782 379.026L337.681 294.831M118.782 379.026L55.2992 262.094L27.6965 211.251M379.997 340.983L481.001 175.01M379.997 340.983L337.681 294.831M481.001 175.01L345.329 288.437M481.001 175.01L281.926 215.012M337.681 294.831L216.262 262.094M337.681 294.831L345.329 288.437M27.6965 211.251L197.486 231.98M27.6965 211.251L185.601 253.826M216.262 262.094L197.486 231.98M216.262 262.094L228.059 247.838M216.262 262.094L185.601 253.826M345.329 288.437L281.926 215.012M197.486 231.98L249.895 221.449M197.486 231.98L228.059 247.838M197.486 231.98L185.601 253.826M249.895 221.449L268.289 199.22L281.926 215.012M249.895 221.449L228.059 247.838" stroke="#FBE6DC" stroke-width="2" stroke-linejoin="bevel"/>
</g>
<path d="M54 72L2 142H270V2H2L54 72Z" fill="#F4CC3C" stroke="#F6E4A1" stroke-width="4" stroke-linejoin="bevel"/>
<path d="M92.99 65.15V62H78.77V83H82.22H92.99V79.85H82.22V73.97H92.18V70.85H82.22V65.15H92.99ZM110.079 61.82V69.89C109.419 69.23 108.609 68.63 107.709 68.21C106.719 67.76 105.609 67.52 104.469 67.49C103.359 67.49 102.219 67.67 101.169 68.06C100.119 68.48 99.1892 69.08 98.4092 69.8C96.8792 71.27 96.0092 73.31 96.0392 75.32C96.0092 77.33 96.8792 79.37 98.4092 80.84C99.1892 81.59 100.119 82.19 101.169 82.58C102.219 83 103.359 83.18 104.469 83.15C105.609 83.12 106.719 82.88 107.709 82.43C108.609 82.01 109.419 81.44 110.079 80.75V82.82H113.529V61.82H110.079ZM108.249 78.86C107.709 79.28 107.079 79.58 106.449 79.76C105.789 79.94 105.129 80.03 104.469 80C103.149 79.94 101.889 79.46 100.959 78.59C100.029 77.75 99.4892 76.55 99.4892 75.32C99.4892 74.09 100.029 72.89 100.959 72.05C101.889 71.18 103.149 70.7 104.469 70.64C105.129 70.61 105.789 70.7 106.449 70.88C107.079 71.06 107.709 71.39 108.249 71.81C109.359 72.62 110.079 73.94 110.079 75.32C110.079 76.7 109.359 78.02 108.249 78.86ZM128.95 67.82V75.41C128.92 75.62 128.92 75.8 128.89 75.98C128.83 76.67 128.71 77.27 128.44 77.84C128.2 78.41 127.84 78.95 127.39 79.31C126.97 79.7 126.49 79.91 126.01 80.03C125.53 80.18 125.05 80.18 124.54 80.12C124.03 80.09 123.61 79.97 123.22 79.76C122.86 79.58 122.53 79.31 122.26 78.95C121.96 78.62 121.72 78.14 121.6 77.66C121.51 77.42 121.48 77.15 121.45 76.88C121.42 76.73 121.42 76.58 121.42 76.46V75.98V67.82H117.97V75.98V76.52C117.97 76.73 117.97 76.91 118 77.12C118.03 77.54 118.09 77.93 118.18 78.35C118.36 79.19 118.69 80 119.23 80.78C119.5 81.17 119.83 81.56 120.22 81.89C120.61 82.19 121.06 82.49 121.54 82.7C122.02 82.91 122.53 83.09 123.04 83.18C123.55 83.27 124.06 83.3 124.54 83.27C125.5 83.24 126.55 82.94 127.39 82.43C128.02 82.07 128.56 81.56 128.95 81.02V82.82H132.4V67.82H128.95ZM144.793 80C142.033 80 139.813 77.9 139.813 75.32C139.813 74.06 140.353 72.86 141.283 71.99C142.243 71.12 143.473 70.64 144.793 70.64H144.823C146.413 70.64 147.883 71.33 148.813 72.56L151.633 70.73C150.073 68.72 147.523 67.49 144.823 67.49C144.823 67.49 144.823 67.49 144.793 67.49C142.543 67.49 140.413 68.3 138.823 69.77C137.233 71.27 136.363 73.22 136.363 75.29C136.333 79.61 140.113 83.15 144.793 83.15C147.463 83.15 150.013 81.95 151.603 79.97L148.783 78.11C147.853 79.31 146.383 80 144.793 80ZM168.398 67.82V69.89C167.738 69.23 166.928 68.63 166.028 68.21C165.038 67.76 163.928 67.52 162.788 67.49C161.678 67.49 160.538 67.67 159.488 68.06C158.438 68.48 157.508 69.08 156.728 69.8C155.198 71.27 154.328 73.31 154.358 75.32C154.328 77.33 155.198 79.37 156.728 80.84C157.508 81.59 158.438 82.19 159.488 82.58C160.538 82.97 161.678 83.18 162.788 83.15C163.928 83.12 165.038 82.88 166.028 82.43C166.928 82.01 167.738 81.44 168.398 80.75V82.82H171.848V67.82H168.398ZM166.568 78.86C166.028 79.28 165.398 79.58 164.768 79.76C164.108 79.94 163.448 80.03 162.788 80C161.468 79.94 160.208 79.46 159.278 78.59C158.348 77.75 157.808 76.55 157.808 75.32C157.808 74.09 158.348 72.89 159.278 72.05C160.208 71.18 161.468 70.7 162.788 70.64C163.448 70.61 164.108 70.7 164.768 70.88C165.398 71.06 166.028 71.39 166.568 71.81C167.678 72.62 168.398 73.94 168.398 75.32C168.398 76.7 167.678 78.02 166.568 78.86ZM186.459 71.09V67.94H182.199V62.75L178.719 64.55V67.94H175.359V71.09H178.719V77.21C178.719 79.1 178.989 81.02 180.819 82.22C181.809 82.88 183.099 83.09 184.479 83.09C185.139 83.09 185.799 83.03 186.459 82.97V79.79C185.169 79.94 183.459 80.06 182.829 79.64C182.499 79.46 182.199 79.1 182.199 77.21V71.09H186.459ZM193.901 82.82V67.82H190.421V82.82H193.901ZM192.161 66.23C193.391 66.23 194.351 65.24 194.351 64.04C194.351 62.81 193.391 61.82 192.161 61.82C190.931 61.82 189.971 62.81 189.971 64.04C189.971 65.24 190.931 66.23 192.161 66.23ZM206.047 67.49C201.397 67.49 197.617 71 197.617 75.32C197.617 79.64 201.397 83.15 206.047 83.15C210.727 83.15 214.507 79.64 214.507 75.32C214.507 71 210.727 67.49 206.047 67.49ZM206.047 80C203.317 80 201.067 77.9 201.067 75.32C201.067 72.74 203.317 70.64 206.047 70.64C208.807 70.64 211.057 72.74 211.057 75.32C211.057 77.9 208.807 80 206.047 80ZM232.871 82.82V74.66V74.12C232.871 73.91 232.841 73.73 232.841 73.52C232.811 73.13 232.751 72.71 232.661 72.29C232.451 71.45 232.151 70.64 231.581 69.86C231.311 69.47 230.981 69.11 230.591 68.78C230.201 68.45 229.781 68.15 229.301 67.94C228.821 67.73 228.311 67.55 227.801 67.46C227.291 67.4 226.781 67.37 226.301 67.37C225.311 67.43 224.291 67.7 223.421 68.21C222.791 68.57 222.281 69.08 221.891 69.62V67.82H218.441V82.82H221.891V75.23C221.891 75.05 221.921 74.84 221.951 74.66C221.981 74 222.131 73.37 222.371 72.8C222.641 72.23 223.001 71.69 223.421 71.33C223.871 70.97 224.351 70.73 224.831 70.61C225.311 70.49 225.761 70.46 226.301 70.52C226.811 70.55 227.231 70.67 227.591 70.88C227.981 71.06 228.311 71.33 228.581 71.69C228.851 72.02 229.091 72.5 229.241 72.98C229.301 73.25 229.361 73.49 229.391 73.79C229.391 73.91 229.421 74.06 229.421 74.18V74.66V82.82H232.871Z" fill="#FEFEFE"/>
<defs>
<radialGradient id="paint0_radial_892_14468" cx="0" cy="0" r="1" gradientUnits="userSpaceOnUse" gradientTransform="translate(248.5 359.5) rotate(90) scale(39.5 188.5)">
<stop stop-color="#7DA7E7"/>
<stop offset="1" stop-color="#7DA7E7" stop-opacity="0"/>
</radialGradient>
</defs>
</svg>
