<svg width="539" height="433" viewBox="0 0 539 433" fill="none" xmlns="http://www.w3.org/2000/svg">
<ellipse cx="232.5" cy="385.5" rx="188.5" ry="39.5" fill="url(#paint0_radial_892_14468)" fill-opacity="0.5"/>
<path d="M251 169V225" stroke="#F6E4A1" stroke-width="4" stroke-linecap="square"/>
<path d="M453.94 84.7725C389.453 97.9573 277.945 107.07 252.47 66.4021L251.008 167.392C286.477 224.337 490.287 183.916 498.78 171.054C501.753 167.195 502.716 164.614 503.028 161.795L503.648 117.958C512.85 116.545 528.655 111.133 535.887 103.708L517.582 56.6935L536.551 2.49985C513.648 27.4861 460.523 9.41036 454.897 18.5379C454.715 18.8933 454.603 19.245 454.554 19.5922C454.518 19.8516 454.516 20.1085 454.547 20.3625L453.94 84.7725Z" fill="#F4CC3C"/>
<path d="M252.416 66.3141C287.862 123.278 491.702 82.852 500.195 69.9892C515.769 49.7762 486.512 35.0758 469.053 29.5632C466.222 28.6692 452.066 24.0506 454.897 18.5379C460.56 9.35018 514.351 27.7256 537 2M251 167.379C286.446 224.343 490.286 183.917 498.78 171.054C503.166 165.361 503.177 162.451 503.177 157.452M503.605 117.964C513.102 116.516 529.691 110.785 536.572 102.969M252.472 66.3141L251 167.949M504.461 60.482L503.027 161.867M454.554 19.5922L453.94 84.7725M536.551 2.49985L517.306 57.483M517.305 55.9834L536.572 105.468" stroke="#F6E4A1" stroke-width="4"/>
<path d="M316.99 132.15V129H302.77V150H306.22H316.99V146.85H306.22V140.97H316.18V137.85H306.22V132.15H316.99ZM334.079 128.82V136.89C333.419 136.23 332.609 135.63 331.709 135.21C330.719 134.76 329.609 134.52 328.469 134.49C327.359 134.49 326.219 134.67 325.169 135.06C324.119 135.48 323.189 136.08 322.409 136.8C320.879 138.27 320.009 140.31 320.039 142.32C320.009 144.33 320.879 146.37 322.409 147.84C323.189 148.59 324.119 149.19 325.169 149.58C326.219 150 327.359 150.18 328.469 150.15C329.609 150.12 330.719 149.88 331.709 149.43C332.609 149.01 333.419 148.44 334.079 147.75V149.82H337.529V128.82H334.079ZM332.249 145.86C331.709 146.28 331.079 146.58 330.449 146.76C329.789 146.94 329.129 147.03 328.469 147C327.149 146.94 325.889 146.46 324.959 145.59C324.029 144.75 323.489 143.55 323.489 142.32C323.489 141.09 324.029 139.89 324.959 139.05C325.889 138.18 327.149 137.7 328.469 137.64C329.129 137.61 329.789 137.7 330.449 137.88C331.079 138.06 331.709 138.39 332.249 138.81C333.359 139.62 334.079 140.94 334.079 142.32C334.079 143.7 333.359 145.02 332.249 145.86ZM352.95 134.82V142.41C352.92 142.62 352.92 142.8 352.89 142.98C352.83 143.67 352.71 144.27 352.44 144.84C352.2 145.41 351.84 145.95 351.39 146.31C350.97 146.7 350.49 146.91 350.01 147.03C349.53 147.18 349.05 147.18 348.54 147.12C348.03 147.09 347.61 146.97 347.22 146.76C346.86 146.58 346.53 146.31 346.26 145.95C345.96 145.62 345.72 145.14 345.6 144.66C345.51 144.42 345.48 144.15 345.45 143.88C345.42 143.73 345.42 143.58 345.42 143.46V142.98V134.82H341.97V142.98V143.52C341.97 143.73 341.97 143.91 342 144.12C342.03 144.54 342.09 144.93 342.18 145.35C342.36 146.19 342.69 147 343.23 147.78C343.5 148.17 343.83 148.56 344.22 148.89C344.61 149.19 345.06 149.49 345.54 149.7C346.02 149.91 346.53 150.09 347.04 150.18C347.55 150.27 348.06 150.3 348.54 150.27C349.5 150.24 350.55 149.94 351.39 149.43C352.02 149.07 352.56 148.56 352.95 148.02V149.82H356.4V134.82H352.95ZM368.793 147C366.033 147 363.813 144.9 363.813 142.32C363.813 141.06 364.353 139.86 365.283 138.99C366.243 138.12 367.473 137.64 368.793 137.64H368.823C370.413 137.64 371.883 138.33 372.813 139.56L375.633 137.73C374.073 135.72 371.523 134.49 368.823 134.49C368.823 134.49 368.823 134.49 368.793 134.49C366.543 134.49 364.413 135.3 362.823 136.77C361.233 138.27 360.363 140.22 360.363 142.29C360.333 146.61 364.113 150.15 368.793 150.15C371.463 150.15 374.013 148.95 375.603 146.97L372.783 145.11C371.853 146.31 370.383 147 368.793 147ZM392.398 134.82V136.89C391.738 136.23 390.928 135.63 390.028 135.21C389.038 134.76 387.928 134.52 386.788 134.49C385.678 134.49 384.538 134.67 383.488 135.06C382.438 135.48 381.508 136.08 380.728 136.8C379.198 138.27 378.328 140.31 378.358 142.32C378.328 144.33 379.198 146.37 380.728 147.84C381.508 148.59 382.438 149.19 383.488 149.58C384.538 149.97 385.678 150.18 386.788 150.15C387.928 150.12 389.038 149.88 390.028 149.43C390.928 149.01 391.738 148.44 392.398 147.75V149.82H395.848V134.82H392.398ZM390.568 145.86C390.028 146.28 389.398 146.58 388.768 146.76C388.108 146.94 387.448 147.03 386.788 147C385.468 146.94 384.208 146.46 383.278 145.59C382.348 144.75 381.808 143.55 381.808 142.32C381.808 141.09 382.348 139.89 383.278 139.05C384.208 138.18 385.468 137.7 386.788 137.64C387.448 137.61 388.108 137.7 388.768 137.88C389.398 138.06 390.028 138.39 390.568 138.81C391.678 139.62 392.398 140.94 392.398 142.32C392.398 143.7 391.678 145.02 390.568 145.86ZM410.459 138.09V134.94H406.199V129.75L402.719 131.55V134.94H399.359V138.09H402.719V144.21C402.719 146.1 402.989 148.02 404.819 149.22C405.809 149.88 407.099 150.09 408.479 150.09C409.139 150.09 409.799 150.03 410.459 149.97V146.79C409.169 146.94 407.459 147.06 406.829 146.64C406.499 146.46 406.199 146.1 406.199 144.21V138.09H410.459ZM417.901 149.82V134.82H414.421V149.82H417.901ZM416.161 133.23C417.391 133.23 418.351 132.24 418.351 131.04C418.351 129.81 417.391 128.82 416.161 128.82C414.931 128.82 413.971 129.81 413.971 131.04C413.971 132.24 414.931 133.23 416.161 133.23ZM430.047 134.49C425.397 134.49 421.617 138 421.617 142.32C421.617 146.64 425.397 150.15 430.047 150.15C434.727 150.15 438.507 146.64 438.507 142.32C438.507 138 434.727 134.49 430.047 134.49ZM430.047 147C427.317 147 425.067 144.9 425.067 142.32C425.067 139.74 427.317 137.64 430.047 137.64C432.807 137.64 435.057 139.74 435.057 142.32C435.057 144.9 432.807 147 430.047 147ZM456.871 149.82V141.66V141.12C456.871 140.91 456.841 140.73 456.841 140.52C456.811 140.13 456.751 139.71 456.661 139.29C456.451 138.45 456.151 137.64 455.581 136.86C455.311 136.47 454.981 136.11 454.591 135.78C454.201 135.45 453.781 135.15 453.301 134.94C452.821 134.73 452.311 134.55 451.801 134.46C451.291 134.4 450.781 134.37 450.301 134.37C449.311 134.43 448.291 134.7 447.421 135.21C446.791 135.57 446.281 136.08 445.891 136.62V134.82H442.441V149.82H445.891V142.23C445.891 142.05 445.921 141.84 445.951 141.66C445.981 141 446.131 140.37 446.371 139.8C446.641 139.23 447.001 138.69 447.421 138.33C447.871 137.97 448.351 137.73 448.831 137.61C449.311 137.49 449.761 137.46 450.301 137.52C450.811 137.55 451.231 137.67 451.591 137.88C451.981 138.06 452.311 138.33 452.581 138.69C452.851 139.02 453.091 139.5 453.241 139.98C453.301 140.25 453.361 140.49 453.391 140.79C453.391 140.91 453.421 141.06 453.421 141.18V141.66V149.82H456.871Z" fill="#FEFEFE"/>
<mask id="mask0_892_14468" style="mask-type:alpha" maskUnits="userSpaceOnUse" x="11" y="201" width="454" height="210">
<path d="M146.437 410.772L102.78 405.026L39.2978 288.094L11.6951 237.251L181.484 257.98L233.894 247.449L252.287 225.22L265.924 241.012L465 201.01L363.995 366.983L146.437 410.772Z" fill="#FEFEFE"/>
</mask>
<g mask="url(#mask0_892_14468)">
<path d="M146.437 410.772L102.78 405.026L39.2976 288.094L11.6949 237.251L181.484 257.98L233.894 247.449L252.287 225.22L265.924 241.012L465 201.01L363.995 366.983L146.437 410.772Z" fill="#FEFEFE"/>
<path d="M465 201.01L329.327 314.437L321.679 320.831L224.619 358.163L52.434 312.29L39.2976 288.094L11.6949 237.251L169.6 279.826L181.484 257.98L233.894 247.449L212.057 273.838L200.261 288.094L318.747 302.184L265.924 241.012L465 201.01Z" fill="#F9EBE2"/>
<path d="M146.437 410.772L102.78 405.026L190.223 371.393L220.678 359.679L54.5678 316.22L41.5206 292.188L11.6951 237.251L169.6 279.826L181.484 257.98L233.894 247.449L212.057 273.838L200.261 288.094L321.679 320.831L329.327 314.437L315.505 298.43L265.924 241.012L465 201.01L329.327 314.437L321.679 320.831L363.995 366.983L146.437 410.772Z" fill="#FEF8F4"/>
<path d="M146.437 410.772L102.78 405.026L321.679 320.831L281.93 310.114L200.261 288.094L169.6 279.826L181.484 257.98L233.894 247.449L212.057 273.838L181.484 257.98L200.261 288.094L281.93 310.114L321.679 320.831L329.327 314.437L315.112 297.974L265.924 241.012L275.285 238.742L337.773 283.315L465 201.01L329.327 314.437L321.679 320.831L363.995 366.983L146.437 410.772Z" fill="#F9EBE2"/>
<path d="M102.782 405.026L146.439 410.772L363.997 366.983M102.782 405.026L321.681 320.831M102.782 405.026L39.2992 288.094L11.6965 237.251M363.997 366.983L465.001 201.01M363.997 366.983L321.681 320.831M465.001 201.01L329.329 314.437M465.001 201.01L265.926 241.012M321.681 320.831L200.262 288.094M321.681 320.831L329.329 314.437M11.6965 237.251L181.486 257.98M11.6965 237.251L169.601 279.826M200.262 288.094L181.486 257.98M200.262 288.094L212.059 273.838M200.262 288.094L169.601 279.826M329.329 314.437L265.926 241.012M181.486 257.98L233.895 247.449M181.486 257.98L212.059 273.838M181.486 257.98L169.601 279.826M233.895 247.449L252.289 225.22L265.926 241.012M233.895 247.449L212.059 273.838" stroke="#FBE6DC" stroke-width="2" stroke-linejoin="bevel"/>
</g>
<defs>
<radialGradient id="paint0_radial_892_14468" cx="0" cy="0" r="1" gradientUnits="userSpaceOnUse" gradientTransform="translate(232.5 385.5) rotate(90) scale(39.5 188.5)">
<stop stop-color="#7DA7E7"/>
<stop offset="1" stop-color="#7DA7E7" stop-opacity="0"/>
</radialGradient>
</defs>
</svg>
