<svg width="547" height="453" viewBox="0 0 547 453" fill="none" xmlns="http://www.w3.org/2000/svg">
<ellipse cx="280" cy="413.5" rx="243" ry="39.5" fill="url(#paint0_radial_892_14467)" fill-opacity="0.5"/>
<path d="M280 143V207" stroke="#AADBB7" stroke-width="6" stroke-linecap="square"/>
<mask id="mask0_892_14467" style="mask-type:alpha" maskUnits="userSpaceOnUse" x="12" y="180" width="503" height="242">
<path d="M162.183 421.5L113.832 414.909L43.5233 280.768L12.9526 222.442L200.999 246.222L259.044 234.141L279.415 208.641L294.518 226.758L515 180.869L403.134 371.267L162.183 421.5Z" fill="#FEFEFE"/>
</mask>
<g mask="url(#mask0_892_14467)">
<path d="M162.183 421.5L113.832 414.909L43.5231 280.768L12.9524 222.442L200.998 246.222L259.043 234.141L279.415 208.641L294.518 226.758L515 180.869L403.134 371.267L162.183 421.5Z" fill="#FEFEFE"/>
<path d="M515 180.869L364.739 310.988L356.268 318.324L248.771 361.15L58.072 308.525L43.5231 280.768L12.9524 222.442L187.836 271.284L200.998 246.222L259.043 234.141L234.859 264.414L221.794 280.768L353.02 296.932L294.518 226.758L515 180.869Z" fill="#F9EBE2"/>
<path d="M162.183 421.5L113.832 414.909L210.677 376.326L244.407 362.888L60.4354 313.034L45.9851 285.465L12.9526 222.442L187.836 271.284L200.999 246.222L259.044 234.141L234.859 264.414L221.795 280.768L356.268 318.324L364.739 310.988L349.43 292.625L294.518 226.758L515 180.869L364.739 310.988L356.268 318.324L403.134 371.267L162.183 421.5Z" fill="#FEF8F4"/>
<path d="M162.183 421.5L113.832 414.909L356.268 318.324L312.245 306.029L221.795 280.768L187.836 271.284L200.999 246.222L259.044 234.141L234.859 264.414L200.999 246.222L221.795 280.768L312.245 306.029L356.268 318.324L364.739 310.988L348.994 292.103L294.518 226.758L304.885 224.153L374.092 275.286L515 180.869L364.739 310.988L356.268 318.324L403.134 371.267L162.183 421.5Z" fill="#F9EBE2"/>
<path d="M113.834 414.909L162.185 421.5L403.136 371.267M113.834 414.909L356.27 318.324M113.834 414.909L43.5249 280.768L12.9542 222.442M403.136 371.267L515.002 180.869M403.136 371.267L356.27 318.324M515.002 180.869L364.74 310.988M515.002 180.869L294.52 226.758M356.27 318.324L221.796 280.768M356.27 318.324L364.74 310.988M12.9542 222.442L201 246.222M12.9542 222.442L187.838 271.284M221.796 280.768L201 246.222M221.796 280.768L234.861 264.414M221.796 280.768L187.838 271.284M364.74 310.988L294.52 226.758M201 246.222L259.045 234.141M201 246.222L234.861 264.414M201 246.222L187.838 271.284M259.045 234.141L279.417 208.641L294.52 226.758M259.045 234.141L234.861 264.414" stroke="#FBE6DC" stroke-width="2" stroke-linejoin="bevel"/>
</g>
<path d="M493 72L545 142H277V2H545L493 72Z" fill="#48A7A1" stroke="#AADBB7" stroke-width="4" stroke-linejoin="bevel"/>
<path d="M305.99 64.15V61H291.77V82H295.22H305.99V78.85H295.22V72.97H305.18V69.85H295.22V64.15H305.99ZM324.57 81.82V73.66V73.12C324.57 72.91 324.54 72.73 324.54 72.52C324.51 72.13 324.45 71.71 324.36 71.29C324.15 70.45 323.85 69.64 323.28 68.86C323.01 68.47 322.68 68.11 322.29 67.78C321.9 67.45 321.48 67.15 321 66.94C320.52 66.73 320.01 66.55 319.5 66.46C318.99 66.4 318.48 66.37 318 66.37C317.01 66.43 315.99 66.7 315.12 67.21C314.49 67.57 313.98 68.08 313.59 68.62V66.82H310.14V81.82H313.59V74.23C313.59 74.05 313.62 73.84 313.65 73.66C313.68 73 313.83 72.37 314.07 71.8C314.34 71.23 314.7 70.69 315.12 70.33C315.57 69.97 316.05 69.73 316.53 69.61C317.01 69.49 317.46 69.46 318 69.52C318.51 69.55 318.93 69.67 319.29 69.88C319.68 70.06 320.01 70.33 320.28 70.69C320.55 71.02 320.79 71.5 320.94 71.98C321 72.25 321.06 72.49 321.09 72.79C321.09 72.91 321.12 73.06 321.12 73.18V73.66V81.82H324.57ZM338.897 66.82L334.847 77.92L330.797 66.82H327.137L332.807 81.82H336.887L342.587 66.82H338.897ZM349.403 81.82V66.82H345.923V81.82H349.403ZM347.663 65.23C348.893 65.23 349.853 64.24 349.853 63.04C349.853 61.81 348.893 60.82 347.663 60.82C346.433 60.82 345.473 61.81 345.473 63.04C345.473 64.24 346.433 65.23 347.663 65.23ZM363.375 66.46C362.865 66.4 362.355 66.37 361.875 66.37C360.885 66.43 359.865 66.7 359.025 67.21C358.365 67.57 357.855 68.08 357.465 68.62V66.82H354.015V81.82H357.465V74.23C357.465 74.05 357.495 73.84 357.525 73.66C357.555 73 357.705 72.37 357.945 71.8C358.215 71.23 358.575 70.69 358.995 70.33C359.445 69.94 359.925 69.73 360.405 69.61C360.885 69.49 361.335 69.46 361.875 69.52C362.385 69.55 362.805 69.67 363.165 69.88C363.285 69.94 363.375 70 363.495 70.06L364.275 66.7C363.975 66.61 363.675 66.52 363.375 66.46ZM374.563 66.49C369.913 66.49 366.133 70 366.133 74.32C366.133 78.64 369.913 82.15 374.563 82.15C379.243 82.15 383.023 78.64 383.023 74.32C383.023 70 379.243 66.49 374.563 66.49ZM374.563 79C371.833 79 369.583 76.9 369.583 74.32C369.583 71.74 371.833 69.64 374.563 69.64C377.323 69.64 379.573 71.74 379.573 74.32C379.573 76.9 377.323 79 374.563 79ZM401.386 81.82V73.66V73.12C401.386 72.91 401.356 72.73 401.356 72.52C401.326 72.13 401.266 71.71 401.176 71.29C400.966 70.45 400.666 69.64 400.096 68.86C399.826 68.47 399.496 68.11 399.106 67.78C398.716 67.45 398.296 67.15 397.816 66.94C397.336 66.73 396.826 66.55 396.316 66.46C395.806 66.4 395.296 66.37 394.816 66.37C393.826 66.43 392.806 66.7 391.936 67.21C391.306 67.57 390.796 68.08 390.406 68.62V66.82H386.956V81.82H390.406V74.23C390.406 74.05 390.436 73.84 390.466 73.66C390.496 73 390.646 72.37 390.886 71.8C391.156 71.23 391.516 70.69 391.936 70.33C392.386 69.97 392.866 69.73 393.346 69.61C393.826 69.49 394.276 69.46 394.816 69.52C395.326 69.55 395.746 69.67 396.106 69.88C396.496 70.06 396.826 70.33 397.096 70.69C397.366 71.02 397.606 71.5 397.756 71.98C397.816 72.25 397.876 72.49 397.906 72.79C397.906 72.91 397.936 73.06 397.936 73.18V73.66V81.82H401.386ZM428.87 81.82V73.81V72.82C428.87 72.43 428.84 72.04 428.78 71.62C428.75 71.2 428.66 70.81 428.51 70.39C428.39 69.97 428.24 69.55 428 69.16C427.58 68.35 426.86 67.57 425.9 67.06C425.45 66.79 424.94 66.61 424.4 66.49C423.89 66.4 423.35 66.37 422.87 66.37C422.36 66.4 421.85 66.49 421.37 66.64C420.86 66.82 420.41 67.03 419.99 67.33C419.18 67.9 418.64 68.71 418.37 69.49C418.31 69.37 418.25 69.28 418.19 69.16C417.77 68.35 417.05 67.57 416.09 67.06C415.64 66.79 415.13 66.61 414.59 66.49C414.08 66.4 413.54 66.37 413.06 66.37C412.55 66.4 412.04 66.49 411.56 66.64C411.05 66.82 410.6 67.06 410.18 67.33C409.82 67.6 409.49 67.9 409.25 68.23V66.82H405.8V81.82H409.25V73.51C409.28 73.27 409.28 73.06 409.31 72.82C409.34 72.52 409.4 72.19 409.52 71.89C409.7 71.32 410.03 70.78 410.42 70.36C410.81 69.97 411.29 69.7 411.71 69.58C412.16 69.46 412.58 69.46 413.06 69.52C413.27 69.52 413.48 69.58 413.66 69.64C413.87 69.7 414.02 69.79 414.17 69.88C414.5 70.06 414.77 70.33 415.01 70.69C415.13 70.87 415.25 71.08 415.34 71.32C415.43 71.53 415.49 71.77 415.52 72.04C415.58 72.28 415.58 72.55 415.61 72.82V73.81L415.58 81.82H419.06L419.03 73.81V73.6C419.06 73.33 419.09 73.09 419.12 72.82C419.15 72.52 419.21 72.19 419.33 71.89C419.51 71.32 419.84 70.78 420.23 70.36C420.62 69.97 421.1 69.7 421.52 69.58C421.97 69.46 422.39 69.46 422.84 69.52C423.08 69.52 423.29 69.58 423.47 69.64C423.65 69.7 423.83 69.79 423.98 69.88C424.31 70.06 424.58 70.33 424.82 70.69C424.94 70.87 425.06 71.08 425.15 71.32C425.21 71.53 425.3 71.77 425.33 72.04C425.39 72.28 425.39 72.55 425.39 72.82V73.81V81.82H428.87ZM448.765 75.61H449.365C449.455 75.19 449.485 74.77 449.485 74.32C449.485 70 445.705 66.49 441.025 66.49C436.375 66.49 432.595 70 432.595 74.32C432.595 78.64 436.645 82.15 441.595 82.15C444.685 82.15 447.475 80.8 449.125 78.64L445.915 77.29C444.895 78.34 443.305 79 441.595 79C439.075 79 436.945 77.56 436.255 75.61H448.765ZM436.255 73.03C436.855 71.08 438.775 69.64 441.025 69.64C443.305 69.64 445.225 71.08 445.825 73.03H436.255ZM467.879 81.82V73.66V73.12C467.879 72.91 467.849 72.73 467.849 72.52C467.819 72.13 467.759 71.71 467.669 71.29C467.459 70.45 467.159 69.64 466.589 68.86C466.319 68.47 465.989 68.11 465.599 67.78C465.209 67.45 464.789 67.15 464.309 66.94C463.829 66.73 463.319 66.55 462.809 66.46C462.299 66.4 461.789 66.37 461.309 66.37C460.319 66.43 459.299 66.7 458.429 67.21C457.799 67.57 457.289 68.08 456.899 68.62V66.82H453.449V81.82H456.899V74.23C456.899 74.05 456.929 73.84 456.959 73.66C456.989 73 457.139 72.37 457.379 71.8C457.649 71.23 458.009 70.69 458.429 70.33C458.879 69.97 459.359 69.73 459.839 69.61C460.319 69.49 460.769 69.46 461.309 69.52C461.819 69.55 462.239 69.67 462.599 69.88C462.989 70.06 463.319 70.33 463.589 70.69C463.859 71.02 464.099 71.5 464.249 71.98C464.309 72.25 464.369 72.49 464.399 72.79C464.399 72.91 464.429 73.06 464.429 73.18V73.66V81.82H467.879ZM482.222 70.09V66.94H477.962V61.75L474.482 63.55V66.94H471.122V70.09H474.482V76.21C474.482 78.1 474.752 80.02 476.582 81.22C477.572 81.88 478.862 82.09 480.242 82.09C480.902 82.09 481.562 82.03 482.222 81.97V78.79C480.932 78.94 479.222 79.06 478.592 78.64C478.262 78.46 477.962 78.1 477.962 76.21V70.09H482.222Z" fill="#FEFEFE"/>
<defs>
<radialGradient id="paint0_radial_892_14467" cx="0" cy="0" r="1" gradientUnits="userSpaceOnUse" gradientTransform="translate(280 413.5) rotate(90) scale(39.5 243)">
<stop stop-color="#7DA7E7"/>
<stop offset="1" stop-color="#7DA7E7" stop-opacity="0"/>
</radialGradient>
</defs>
</svg>
