<svg width="616" height="480" viewBox="0 0 616 480" fill="none" xmlns="http://www.w3.org/2000/svg">
<ellipse cx="280" cy="440.5" rx="243" ry="39.5" fill="url(#paint0_radial_892_14467)" fill-opacity="0.5"/>
<path d="M280 170V234" stroke="#AADBB7" stroke-width="4" stroke-linecap="square"/>
<mask id="mask0_892_14467" style="mask-type:alpha" maskUnits="userSpaceOnUse" x="12" y="207" width="503" height="242">
<path d="M162.183 448.5L113.832 441.909L43.5233 307.768L12.9526 249.442L200.999 273.222L259.044 261.141L279.415 235.641L294.518 253.758L515 207.869L403.134 398.267L162.183 448.5Z" fill="#FEFEFE"/>
</mask>
<g mask="url(#mask0_892_14467)">
<path d="M162.183 448.5L113.832 441.909L43.5231 307.768L12.9524 249.442L200.998 273.222L259.043 261.141L279.415 235.641L294.518 253.758L515 207.869L403.134 398.267L162.183 448.5Z" fill="#FEFEFE"/>
<path d="M515 207.869L364.739 337.988L356.268 345.324L248.771 388.15L58.072 335.525L43.5231 307.768L12.9524 249.442L187.836 298.284L200.998 273.222L259.043 261.141L234.859 291.414L221.794 307.768L353.02 323.932L294.518 253.758L515 207.869Z" fill="#F9EBE2"/>
<path d="M162.183 448.5L113.832 441.909L210.677 403.326L244.407 389.888L60.4354 340.034L45.9851 312.465L12.9526 249.442L187.836 298.284L200.999 273.222L259.044 261.141L234.859 291.414L221.795 307.768L356.268 345.324L364.739 337.988L349.43 319.625L294.518 253.758L515 207.869L364.739 337.988L356.268 345.324L403.134 398.267L162.183 448.5Z" fill="#FEF8F4"/>
<path d="M162.183 448.5L113.832 441.909L356.268 345.324L312.245 333.029L221.795 307.768L187.836 298.284L200.999 273.222L259.044 261.141L234.859 291.414L200.999 273.222L221.795 307.768L312.245 333.029L356.268 345.324L364.739 337.988L348.994 319.103L294.518 253.758L304.885 251.153L374.092 302.286L515 207.869L364.739 337.988L356.268 345.324L403.134 398.267L162.183 448.5Z" fill="#F9EBE2"/>
<path d="M113.834 441.909L162.185 448.5L403.136 398.267M113.834 441.909L356.27 345.324M113.834 441.909L43.5249 307.768L12.9542 249.442M403.136 398.267L515.002 207.869M403.136 398.267L356.27 345.324M515.002 207.869L364.74 337.988M515.002 207.869L294.52 253.758M356.27 345.324L221.796 307.768M356.27 345.324L364.74 337.988M12.9542 249.442L201 273.222M12.9542 249.442L187.838 298.284M221.796 307.768L201 273.222M221.796 307.768L234.861 291.414M221.796 307.768L187.838 298.284M364.74 337.988L294.52 253.758M201 273.222L259.045 261.141M201 273.222L234.861 291.414M201 273.222L187.838 298.284M259.045 261.141L279.417 235.641L294.52 253.758M259.045 261.141L234.861 291.414" stroke="#FBE6DC" stroke-width="2" stroke-linejoin="bevel"/>
</g>
<path d="M517 84.798C441.69 97.9867 311.467 107.102 281.717 66.4218L280.009 167.443C321.431 224.405 559.447 183.972 569.365 171.106C572.838 167.246 573.962 164.664 574.326 161.844L575.05 117.993C585.796 116.581 604.254 111.167 612.7 103.739L591.323 56.7103L613.476 2.5C586.729 27.4939 524.687 9.41264 518.118 18.543C517.905 18.8985 517.774 19.2503 517.717 19.5976C517.674 19.8571 517.673 20.114 517.709 20.3681L517 84.798Z" fill="#48A7A1"/>
<path d="M281.653 66.3339C323.048 123.315 561.1 82.8769 571.018 70.0101C589.206 49.7909 555.038 35.086 534.649 29.5717C531.343 28.6774 514.812 24.0573 518.118 18.543C524.731 9.35244 587.55 27.7335 614 2M280 167.43C321.395 224.411 559.446 183.973 569.365 171.106C574.488 165.411 574.5 162.5 574.5 157.5M575 118C586.091 116.551 605.464 110.818 613.5 103M281.719 66.3339L280 168M576 60.5L574.325 161.916M517.717 19.5976L517 84.798M613.476 2.5L591 57.5M591 56L613.5 105.5" stroke="#AADBB7" stroke-width="4"/>
<path d="M352.99 135.15V132H338.77V153H342.22H352.99V149.85H342.22V143.97H352.18V140.85H342.22V135.15H352.99ZM371.57 152.82V144.66V144.12C371.57 143.91 371.54 143.73 371.54 143.52C371.51 143.13 371.45 142.71 371.36 142.29C371.15 141.45 370.85 140.64 370.28 139.86C370.01 139.47 369.68 139.11 369.29 138.78C368.9 138.45 368.48 138.15 368 137.94C367.52 137.73 367.01 137.55 366.5 137.46C365.99 137.4 365.48 137.37 365 137.37C364.01 137.43 362.99 137.7 362.12 138.21C361.49 138.57 360.98 139.08 360.59 139.62V137.82H357.14V152.82H360.59V145.23C360.59 145.05 360.62 144.84 360.65 144.66C360.68 144 360.83 143.37 361.07 142.8C361.34 142.23 361.7 141.69 362.12 141.33C362.57 140.97 363.05 140.73 363.53 140.61C364.01 140.49 364.46 140.46 365 140.52C365.51 140.55 365.93 140.67 366.29 140.88C366.68 141.06 367.01 141.33 367.28 141.69C367.55 142.02 367.79 142.5 367.94 142.98C368 143.25 368.06 143.49 368.09 143.79C368.09 143.91 368.12 144.06 368.12 144.18V144.66V152.82H371.57ZM385.897 137.82L381.847 148.92L377.797 137.82H374.137L379.807 152.82H383.887L389.587 137.82H385.897ZM396.403 152.82V137.82H392.923V152.82H396.403ZM394.663 136.23C395.893 136.23 396.853 135.24 396.853 134.04C396.853 132.81 395.893 131.82 394.663 131.82C393.433 131.82 392.473 132.81 392.473 134.04C392.473 135.24 393.433 136.23 394.663 136.23ZM410.375 137.46C409.865 137.4 409.355 137.37 408.875 137.37C407.885 137.43 406.865 137.7 406.025 138.21C405.365 138.57 404.855 139.08 404.465 139.62V137.82H401.015V152.82H404.465V145.23C404.465 145.05 404.495 144.84 404.525 144.66C404.555 144 404.705 143.37 404.945 142.8C405.215 142.23 405.575 141.69 405.995 141.33C406.445 140.94 406.925 140.73 407.405 140.61C407.885 140.49 408.335 140.46 408.875 140.52C409.385 140.55 409.805 140.67 410.165 140.88C410.285 140.94 410.375 141 410.495 141.06L411.275 137.7C410.975 137.61 410.675 137.52 410.375 137.46ZM421.563 137.49C416.913 137.49 413.133 141 413.133 145.32C413.133 149.64 416.913 153.15 421.563 153.15C426.243 153.15 430.023 149.64 430.023 145.32C430.023 141 426.243 137.49 421.563 137.49ZM421.563 150C418.833 150 416.583 147.9 416.583 145.32C416.583 142.74 418.833 140.64 421.563 140.64C424.323 140.64 426.573 142.74 426.573 145.32C426.573 147.9 424.323 150 421.563 150ZM448.386 152.82V144.66V144.12C448.386 143.91 448.356 143.73 448.356 143.52C448.326 143.13 448.266 142.71 448.176 142.29C447.966 141.45 447.666 140.64 447.096 139.86C446.826 139.47 446.496 139.11 446.106 138.78C445.716 138.45 445.296 138.15 444.816 137.94C444.336 137.73 443.826 137.55 443.316 137.46C442.806 137.4 442.296 137.37 441.816 137.37C440.826 137.43 439.806 137.7 438.936 138.21C438.306 138.57 437.796 139.08 437.406 139.62V137.82H433.956V152.82H437.406V145.23C437.406 145.05 437.436 144.84 437.466 144.66C437.496 144 437.646 143.37 437.886 142.8C438.156 142.23 438.516 141.69 438.936 141.33C439.386 140.97 439.866 140.73 440.346 140.61C440.826 140.49 441.276 140.46 441.816 140.52C442.326 140.55 442.746 140.67 443.106 140.88C443.496 141.06 443.826 141.33 444.096 141.69C444.366 142.02 444.606 142.5 444.756 142.98C444.816 143.25 444.876 143.49 444.906 143.79C444.906 143.91 444.936 144.06 444.936 144.18V144.66V152.82H448.386ZM475.87 152.82V144.81V143.82C475.87 143.43 475.84 143.04 475.78 142.62C475.75 142.2 475.66 141.81 475.51 141.39C475.39 140.97 475.24 140.55 475 140.16C474.58 139.35 473.86 138.57 472.9 138.06C472.45 137.79 471.94 137.61 471.4 137.49C470.89 137.4 470.35 137.37 469.87 137.37C469.36 137.4 468.85 137.49 468.37 137.64C467.86 137.82 467.41 138.03 466.99 138.33C466.18 138.9 465.64 139.71 465.37 140.49C465.31 140.37 465.25 140.28 465.19 140.16C464.77 139.35 464.05 138.57 463.09 138.06C462.64 137.79 462.13 137.61 461.59 137.49C461.08 137.4 460.54 137.37 460.06 137.37C459.55 137.4 459.04 137.49 458.56 137.64C458.05 137.82 457.6 138.06 457.18 138.33C456.82 138.6 456.49 138.9 456.25 139.23V137.82H452.8V152.82H456.25V144.51C456.28 144.27 456.28 144.06 456.31 143.82C456.34 143.52 456.4 143.19 456.52 142.89C456.7 142.32 457.03 141.78 457.42 141.36C457.81 140.97 458.29 140.7 458.71 140.58C459.16 140.46 459.58 140.46 460.06 140.52C460.27 140.52 460.48 140.58 460.66 140.64C460.87 140.7 461.02 140.79 461.17 140.88C461.5 141.06 461.77 141.33 462.01 141.69C462.13 141.87 462.25 142.08 462.34 142.32C462.43 142.53 462.49 142.77 462.52 143.04C462.58 143.28 462.58 143.55 462.61 143.82V144.81L462.58 152.82H466.06L466.03 144.81V144.6C466.06 144.33 466.09 144.09 466.12 143.82C466.15 143.52 466.21 143.19 466.33 142.89C466.51 142.32 466.84 141.78 467.23 141.36C467.62 140.97 468.1 140.7 468.52 140.58C468.97 140.46 469.39 140.46 469.84 140.52C470.08 140.52 470.29 140.58 470.47 140.64C470.65 140.7 470.83 140.79 470.98 140.88C471.31 141.06 471.58 141.33 471.82 141.69C471.94 141.87 472.06 142.08 472.15 142.32C472.21 142.53 472.3 142.77 472.33 143.04C472.39 143.28 472.39 143.55 472.39 143.82V144.81V152.82H475.87ZM495.765 146.61H496.365C496.455 146.19 496.485 145.77 496.485 145.32C496.485 141 492.705 137.49 488.025 137.49C483.375 137.49 479.595 141 479.595 145.32C479.595 149.64 483.645 153.15 488.595 153.15C491.685 153.15 494.475 151.8 496.125 149.64L492.915 148.29C491.895 149.34 490.305 150 488.595 150C486.075 150 483.945 148.56 483.255 146.61H495.765ZM483.255 144.03C483.855 142.08 485.775 140.64 488.025 140.64C490.305 140.64 492.225 142.08 492.825 144.03H483.255ZM514.879 152.82V144.66V144.12C514.879 143.91 514.849 143.73 514.849 143.52C514.819 143.13 514.759 142.71 514.669 142.29C514.459 141.45 514.159 140.64 513.589 139.86C513.319 139.47 512.989 139.11 512.599 138.78C512.209 138.45 511.789 138.15 511.309 137.94C510.829 137.73 510.319 137.55 509.809 137.46C509.299 137.4 508.789 137.37 508.309 137.37C507.319 137.43 506.299 137.7 505.429 138.21C504.799 138.57 504.289 139.08 503.899 139.62V137.82H500.449V152.82H503.899V145.23C503.899 145.05 503.929 144.84 503.959 144.66C503.989 144 504.139 143.37 504.379 142.8C504.649 142.23 505.009 141.69 505.429 141.33C505.879 140.97 506.359 140.73 506.839 140.61C507.319 140.49 507.769 140.46 508.309 140.52C508.819 140.55 509.239 140.67 509.599 140.88C509.989 141.06 510.319 141.33 510.589 141.69C510.859 142.02 511.099 142.5 511.249 142.98C511.309 143.25 511.369 143.49 511.399 143.79C511.399 143.91 511.429 144.06 511.429 144.18V144.66V152.82H514.879ZM529.222 141.09V137.94H524.962V132.75L521.482 134.55V137.94H518.122V141.09H521.482V147.21C521.482 149.1 521.752 151.02 523.582 152.22C524.572 152.88 525.862 153.09 527.242 153.09C527.902 153.09 528.562 153.03 529.222 152.97V149.79C527.932 149.94 526.222 150.06 525.592 149.64C525.262 149.46 524.962 149.1 524.962 147.21V141.09H529.222Z" fill="#FEFEFE"/>
<defs>
<radialGradient id="paint0_radial_892_14467" cx="0" cy="0" r="1" gradientUnits="userSpaceOnUse" gradientTransform="translate(280 440.5) rotate(90) scale(39.5 243)">
<stop stop-color="#7DA7E7"/>
<stop offset="1" stop-color="#7DA7E7" stop-opacity="0"/>
</radialGradient>
</defs>
</svg>
