<svg width="490" height="348" viewBox="0 0 490 348" fill="none" xmlns="http://www.w3.org/2000/svg">
<ellipse cx="293.5" cy="303.5" rx="188.5" ry="39.5" fill="url(#paint0_radial_892_14466)" fill-opacity="0.5"/>
<path d="M267 145V162.5" stroke="#FBE6DC" stroke-width="6" stroke-linecap="square"/>
<mask id="mask0_892_14466" style="mask-type:alpha" maskUnits="userSpaceOnUse" x="77" y="141" width="403" height="188">
<path d="M359.938 328.204L398.713 323.087L455.097 218.951L479.613 173.672L328.811 192.133L282.262 182.754L265.925 162.958L253.814 177.022L77 141.398L166.71 289.208L359.938 328.204Z" fill="#FEFEFE"/>
</mask>
<g mask="url(#mask0_892_14466)">
<path d="M359.939 328.204L398.714 323.087L455.097 218.951L479.613 173.672L328.811 192.133L282.262 182.754L265.926 162.958L253.814 177.022L77.0002 141.398L166.71 289.208L359.939 328.204Z" fill="#FEFEFE"/>
<path d="M77.0002 141.398L197.501 242.412L204.294 248.107L290.5 281.353L443.43 240.5L455.097 218.951L479.613 173.672L339.366 211.589L328.811 192.133L282.262 182.754L301.657 206.255L312.134 218.951L206.898 231.5L253.814 177.022L77.0002 141.398Z" fill="#F9EBE2"/>
<path d="M359.938 328.204L398.713 323.087L321.05 293.135L294 282.703L441.534 244L453.123 222.597L479.613 173.672L339.366 211.589L328.811 192.133L282.262 182.754L301.657 206.255L312.134 218.951L204.294 248.107L197.501 242.412L209.777 228.157L253.814 177.022L77 141.398L197.501 242.412L204.294 248.107L166.71 289.208L359.938 328.204Z" fill="#FEF8F4"/>
<path d="M359.938 328.204L398.713 323.087L204.294 248.107L239.598 238.562L312.134 218.951L339.366 211.589L328.811 192.133L282.262 182.754L301.657 206.255L328.811 192.133L312.134 218.951L239.598 238.562L204.294 248.107L197.501 242.412L210.127 227.751L253.814 177.022L245.5 175L190 214.695L77 141.398L197.501 242.412L204.294 248.107L166.71 289.208L359.938 328.204Z" fill="#F9EBE2"/>
<path d="M398.712 323.087L359.937 328.204L166.708 289.208M398.712 323.087L204.292 248.107M398.712 323.087L455.096 218.951L479.612 173.672M166.708 289.208L76.9987 141.398M166.708 289.208L204.292 248.107M76.9987 141.398L197.499 242.412M76.9987 141.398L253.812 177.022M204.292 248.107L312.132 218.951M204.292 248.107L197.499 242.412M479.612 173.672L328.81 192.133M479.612 173.672L339.365 211.589M312.132 218.951L328.81 192.133M312.132 218.951L301.655 206.255M312.132 218.951L339.365 211.589M197.499 242.412L253.812 177.022M328.81 192.133L282.261 182.754M328.81 192.133L301.655 206.255M328.81 192.133L339.365 211.589M282.261 182.754L265.924 162.958L253.812 177.022M282.261 182.754L301.655 206.255" stroke="#FBE6DC" stroke-width="2" stroke-linejoin="bevel"/>
</g>
<path d="M54 72L2 142H270V2H2L54 72Z" fill="#EF798A" stroke="#FBE6DC" stroke-width="4" stroke-linejoin="bevel"/>
<path d="M120.15 60.03V68.85H110.19V60.03H106.74V81H110.19V71.97H120.15V81H123.6V60.03H120.15ZM143.841 74.61H144.441C144.531 74.19 144.561 73.77 144.561 73.32C144.561 69 140.781 65.49 136.101 65.49C131.451 65.49 127.671 69 127.671 73.32C127.671 77.64 131.721 81.15 136.671 81.15C139.761 81.15 142.551 79.8 144.201 77.64L140.991 76.29C139.971 77.34 138.381 78 136.671 78C134.151 78 132.021 76.56 131.331 74.61H143.841ZM131.331 72.03C131.931 70.08 133.851 68.64 136.101 68.64C138.381 68.64 140.301 70.08 140.901 72.03H131.331ZM161.845 65.82V67.89C161.185 67.23 160.375 66.63 159.475 66.21C158.485 65.76 157.375 65.52 156.235 65.49C155.125 65.49 153.985 65.67 152.935 66.06C151.885 66.48 150.955 67.08 150.175 67.8C148.645 69.27 147.775 71.31 147.805 73.32C147.775 75.33 148.645 77.37 150.175 78.84C150.955 79.59 151.885 80.19 152.935 80.58C153.985 80.97 155.125 81.18 156.235 81.15C157.375 81.12 158.485 80.88 159.475 80.43C160.375 80.01 161.185 79.44 161.845 78.75V80.82H165.295V65.82H161.845ZM160.015 76.86C159.475 77.28 158.845 77.58 158.215 77.76C157.555 77.94 156.895 78.03 156.235 78C154.915 77.94 153.655 77.46 152.725 76.59C151.795 75.75 151.255 74.55 151.255 73.32C151.255 72.09 151.795 70.89 152.725 70.05C153.655 69.18 154.915 68.7 156.235 68.64C156.895 68.61 157.555 68.7 158.215 68.88C158.845 69.06 159.475 69.39 160.015 69.81C161.125 70.62 161.845 71.94 161.845 73.32C161.845 74.7 161.125 76.02 160.015 76.86ZM173.426 80.82V59.82H169.976V80.82H173.426ZM187.998 69.09V65.94H183.738V60.75L180.258 62.55V65.94H176.898V69.09H180.258V75.21C180.258 77.1 180.528 79.02 182.358 80.22C183.348 80.88 184.638 81.09 186.018 81.09C186.678 81.09 187.338 81.03 187.998 80.97V77.79C186.708 77.94 184.998 78.06 184.368 77.64C184.038 77.46 183.738 77.1 183.738 75.21V69.09H187.998ZM206.39 80.82L206.36 72.66C206.39 71.16 206.15 69.39 205.04 67.83C204.5 67.08 203.69 66.39 202.73 65.94C201.8 65.49 200.69 65.34 199.73 65.37C199.25 65.4 198.74 65.46 198.26 65.58C197.75 65.73 197.27 65.91 196.85 66.15C196.31 66.48 195.83 66.87 195.44 67.32V59.82H191.99V80.82H195.44V73.2C195.47 73.02 195.47 72.84 195.5 72.66C195.56 72 195.71 71.4 195.95 70.83C196.22 70.29 196.55 69.78 196.97 69.39C197.36 69.03 197.81 68.79 198.29 68.64C198.74 68.52 199.22 68.46 199.73 68.52C200.75 68.61 201.47 68.97 202.04 69.69C202.31 70.05 202.55 70.5 202.7 71.01C202.85 71.52 202.91 72.03 202.91 72.66V80.82H206.39Z" fill="#FEFEFE"/>
<defs>
<radialGradient id="paint0_radial_892_14466" cx="0" cy="0" r="1" gradientUnits="userSpaceOnUse" gradientTransform="translate(293.5 303.5) rotate(90) scale(39.5 188.5)">
<stop stop-color="#7DA7E7"/>
<stop offset="1" stop-color="#7DA7E7" stop-opacity="0"/>
</radialGradient>
</defs>
</svg>
