<svg width="519" height="394" viewBox="0 0 519 394" fill="none" xmlns="http://www.w3.org/2000/svg">
<ellipse cx="322.5" cy="349.5" rx="188.5" ry="39.5" fill="url(#paint0_radial_892_14463)" fill-opacity="0.5"/>
<path d="M296 162V209" stroke="#FBE6DC" stroke-width="4" stroke-linecap="square"/>
<path d="M87.3832 81.3767C153.674 94.0206 268.302 102.759 294.488 63.7599L295.992 160.607C259.531 215.215 50.0195 176.453 41.2893 164.119C38.2325 160.418 37.243 157.943 36.9227 155.24L36.285 113.201C26.826 111.846 10.5788 106.656 3.14446 99.5354L21.9613 54.4497L2.46159 2.47934C26.0048 26.4405 80.6166 9.10635 86.3991 17.8594C86.5867 18.2003 86.7018 18.5375 86.7521 18.8705C86.7896 19.1192 86.791 19.3655 86.7595 19.6092L87.3832 81.3767Z" fill="#EF798A"/>
<path d="M294.545 63.6756C258.107 118.303 48.565 79.535 39.8341 67.1999C23.8245 47.8161 53.9006 33.7189 71.8475 28.4324C74.7578 27.5751 89.3094 23.1459 86.3991 17.8594C80.5785 9.04864 25.2825 26.6702 2 2M296 160.594C259.563 215.221 50.0202 176.454 41.2893 164.119C36.78 158.659 36.7695 155.868 36.7695 151.075M36.3293 113.207C26.5665 111.818 9.51348 106.322 2.44012 98.8267M294.487 63.6756L296 161.141M35.4489 58.0828L36.9238 155.308M86.7521 18.8705L87.3832 81.3767M2.46159 2.47934L22.2453 55.2067M22.2455 53.7687L2.43996 101.223" stroke="#FBE6DC" stroke-width="4"/>
<path d="M129.15 131.03V139.85H119.19V131.03H115.74V152H119.19V142.97H129.15V152H132.6V131.03H129.15ZM152.841 145.61H153.441C153.531 145.19 153.561 144.77 153.561 144.32C153.561 140 149.781 136.49 145.101 136.49C140.451 136.49 136.671 140 136.671 144.32C136.671 148.64 140.721 152.15 145.671 152.15C148.761 152.15 151.551 150.8 153.201 148.64L149.991 147.29C148.971 148.34 147.381 149 145.671 149C143.151 149 141.021 147.56 140.331 145.61H152.841ZM140.331 143.03C140.931 141.08 142.851 139.64 145.101 139.64C147.381 139.64 149.301 141.08 149.901 143.03H140.331ZM170.845 136.82V138.89C170.185 138.23 169.375 137.63 168.475 137.21C167.485 136.76 166.375 136.52 165.235 136.49C164.125 136.49 162.985 136.67 161.935 137.06C160.885 137.48 159.955 138.08 159.175 138.8C157.645 140.27 156.775 142.31 156.805 144.32C156.775 146.33 157.645 148.37 159.175 149.84C159.955 150.59 160.885 151.19 161.935 151.58C162.985 151.97 164.125 152.18 165.235 152.15C166.375 152.12 167.485 151.88 168.475 151.43C169.375 151.01 170.185 150.44 170.845 149.75V151.82H174.295V136.82H170.845ZM169.015 147.86C168.475 148.28 167.845 148.58 167.215 148.76C166.555 148.94 165.895 149.03 165.235 149C163.915 148.94 162.655 148.46 161.725 147.59C160.795 146.75 160.255 145.55 160.255 144.32C160.255 143.09 160.795 141.89 161.725 141.05C162.655 140.18 163.915 139.7 165.235 139.64C165.895 139.61 166.555 139.7 167.215 139.88C167.845 140.06 168.475 140.39 169.015 140.81C170.125 141.62 170.845 142.94 170.845 144.32C170.845 145.7 170.125 147.02 169.015 147.86ZM182.426 151.82V130.82H178.976V151.82H182.426ZM196.998 140.09V136.94H192.738V131.75L189.258 133.55V136.94H185.898V140.09H189.258V146.21C189.258 148.1 189.528 150.02 191.358 151.22C192.348 151.88 193.638 152.09 195.018 152.09C195.678 152.09 196.338 152.03 196.998 151.97V148.79C195.708 148.94 193.998 149.06 193.368 148.64C193.038 148.46 192.738 148.1 192.738 146.21V140.09H196.998ZM215.39 151.82L215.36 143.66C215.39 142.16 215.15 140.39 214.04 138.83C213.5 138.08 212.69 137.39 211.73 136.94C210.8 136.49 209.69 136.34 208.73 136.37C208.25 136.4 207.74 136.46 207.26 136.58C206.75 136.73 206.27 136.91 205.85 137.15C205.31 137.48 204.83 137.87 204.44 138.32V130.82H200.99V151.82H204.44V144.2C204.47 144.02 204.47 143.84 204.5 143.66C204.56 143 204.71 142.4 204.95 141.83C205.22 141.29 205.55 140.78 205.97 140.39C206.36 140.03 206.81 139.79 207.29 139.64C207.74 139.52 208.22 139.46 208.73 139.52C209.75 139.61 210.47 139.97 211.04 140.69C211.31 141.05 211.55 141.5 211.7 142.01C211.85 142.52 211.91 143.03 211.91 143.66V151.82H215.39Z" fill="#FEFEFE"/>
<mask id="mask0_892_14463" style="mask-type:alpha" maskUnits="userSpaceOnUse" x="106" y="187" width="403" height="188">
<path d="M388.938 374.204L427.713 369.087L484.097 264.951L508.613 219.672L357.811 238.133L311.262 228.754L294.925 208.958L282.814 223.022L106 187.398L195.71 335.208L388.938 374.204Z" fill="#FEFEFE"/>
</mask>
<g mask="url(#mask0_892_14463)">
<path d="M388.939 374.204L427.714 369.087L484.097 264.951L508.613 219.672L357.811 238.133L311.262 228.754L294.926 208.958L282.814 223.022L106 187.398L195.71 335.208L388.939 374.204Z" fill="#FEFEFE"/>
<path d="M106 187.398L226.501 288.412L233.294 294.107L319.5 327.353L472.43 286.5L484.097 264.951L508.613 219.672L368.366 257.589L357.811 238.133L311.262 228.754L330.657 252.255L341.134 264.951L235.898 277.5L282.814 223.022L106 187.398Z" fill="#F9EBE2"/>
<path d="M388.938 374.204L427.713 369.087L350.05 339.135L323 328.703L470.534 290L482.123 268.597L508.613 219.672L368.366 257.589L357.811 238.133L311.262 228.754L330.657 252.255L341.134 264.951L233.294 294.107L226.501 288.412L238.777 274.157L282.814 223.022L106 187.398L226.501 288.412L233.294 294.107L195.71 335.208L388.938 374.204Z" fill="#FEF8F4"/>
<path d="M388.938 374.204L427.713 369.087L233.294 294.107L268.598 284.562L341.134 264.951L368.366 257.589L357.811 238.133L311.262 228.754L330.657 252.255L357.811 238.133L341.134 264.951L268.598 284.562L233.294 294.107L226.501 288.412L239.127 273.751L282.814 223.022L274.5 221L219 260.695L106 187.398L226.501 288.412L233.294 294.107L195.71 335.208L388.938 374.204Z" fill="#F9EBE2"/>
<path d="M427.712 369.087L388.937 374.204L195.708 335.208M427.712 369.087L233.292 294.107M427.712 369.087L484.096 264.951L508.612 219.672M195.708 335.208L105.999 187.398M195.708 335.208L233.292 294.107M105.999 187.398L226.499 288.412M105.999 187.398L282.812 223.022M233.292 294.107L341.132 264.951M233.292 294.107L226.499 288.412M508.612 219.672L357.81 238.133M508.612 219.672L368.365 257.589M341.132 264.951L357.81 238.133M341.132 264.951L330.655 252.255M341.132 264.951L368.365 257.589M226.499 288.412L282.812 223.022M357.81 238.133L311.261 228.754M357.81 238.133L330.655 252.255M357.81 238.133L368.365 257.589M311.261 228.754L294.924 208.958L282.812 223.022M311.261 228.754L330.655 252.255" stroke="#FBE6DC" stroke-width="2" stroke-linejoin="bevel"/>
</g>
<defs>
<radialGradient id="paint0_radial_892_14463" cx="0" cy="0" r="1" gradientUnits="userSpaceOnUse" gradientTransform="translate(322.5 349.5) rotate(90) scale(39.5 188.5)">
<stop stop-color="#7DA7E7"/>
<stop offset="1" stop-color="#7DA7E7" stop-opacity="0"/>
</radialGradient>
</defs>
</svg>
