<svg width="308" height="331" viewBox="0 0 308 331" fill="none" xmlns="http://www.w3.org/2000/svg">
<path d="M154.5 251.246L6 104.351V42.5432L50.1487 0H111.154L154.5 42.5432V251.246Z" fill="#FBE6DC"/>
<path d="M154.5 251.246L6 104.351V42.5432L50.1487 0H111.154L154.5 42.5432V251.246Z" fill="#FFB1B1"/>
<path d="M154.5 251.246L303 104.351V42.5432L258.851 0H197.846L154.5 42.5432V251.246Z" fill="#FBE6DC"/>
<path d="M154.5 251.246L303 104.351V42.5432L258.851 0H197.846L154.5 42.5432V251.246Z" fill="#FFB1B1"/>
<path d="M154.5 251.246L303 104.351V42.5432L258.852 0H197.846L154.5 42.5432V251.246Z" fill="#FBE6DC"/>
<path d="M134.658 72.8384H154.928H173.12V177.947H154.928H134.658V72.8384Z" fill="#FEFEFE"/>
<path d="M101.393 143.941V105.814H207.423V143.941H101.393Z" fill="#FEFEFE"/>
<path d="M134.621 72.8384H154.869V177.947H134.621V72.8384Z" fill="#FBEFE7"/>
<path d="M101.393 143.941V105.814H154.869V124.877V143.941H101.393Z" fill="#FBEFE7"/>
<ellipse cx="154" cy="306" rx="154" ry="25" fill="url(#paint0_radial_839_14411)" fill-opacity="0.3"/>
<defs>
<radialGradient id="paint0_radial_839_14411" cx="0" cy="0" r="1" gradientUnits="userSpaceOnUse" gradientTransform="translate(154 306) rotate(90) scale(25 154)">
<stop stop-color="#FFB1B1"/>
<stop offset="1" stop-color="#D9D9D9" stop-opacity="0"/>
</radialGradient>
</defs>
</svg>
