<svg width="412" height="309" viewBox="0 0 412 309" fill="none" xmlns="http://www.w3.org/2000/svg">
<ellipse cx="293" cy="287.5" rx="119" ry="21.5" fill="url(#paint0_radial_892_14465)" fill-opacity="0.5"/>
<path d="M279 154L277.988 197.988" stroke="#D2D4F8" stroke-width="4" stroke-linecap="square"/>
<path d="M82.4461 76.283C144.904 88.1155 252.903 96.2933 277.576 59.7967L278.992 150.429C244.64 201.533 47.2429 165.258 39.0174 153.715C36.1374 150.252 35.2052 147.936 34.9034 145.406L34.3025 106.065C25.3905 104.797 10.0827 99.9399 3.07828 93.2764L20.8071 51.0839L2.4349 2.44858C24.6167 24.8722 76.0708 8.65033 81.5189 16.8417C81.6957 17.1607 81.8041 17.4763 81.8514 17.7879C81.8868 18.0206 81.8881 18.2512 81.8585 18.4792L82.4461 76.283Z" fill="#A491DD"/>
<path d="M277.629 59.7178C243.298 110.839 45.8725 74.5595 37.6464 63.0159C22.5626 44.8761 50.8995 31.6834 67.8087 26.7362C70.5508 25.9339 84.2609 21.789 81.5189 16.8417C76.0348 8.59632 23.9363 25.0871 2 2M279 150.417C244.669 201.539 47.2435 165.259 39.0174 153.715C34.7689 148.606 34.759 145.994 34.759 141.508M34.3443 106.071C25.146 104.771 9.07903 99.6272 2.41467 92.6132M277.575 59.7178L279 150.929M33.5147 54.4839L34.9044 145.47M81.8514 17.7879L82.4461 76.283M2.4349 2.44858L21.0747 51.7924M21.0748 50.4467L2.41452 94.8561" stroke="#D2D4F8" stroke-width="4"/>
<path d="M83.19 134.281V113.311H79.74V134.281H83.19ZM102.463 134.101V125.941V125.401C102.463 125.191 102.433 125.011 102.433 124.801C102.403 124.411 102.343 123.991 102.253 123.571C102.043 122.731 101.743 121.921 101.173 121.141C100.903 120.751 100.573 120.391 100.183 120.061C99.7927 119.731 99.3727 119.431 98.8927 119.221C98.4127 119.011 97.9027 118.831 97.3927 118.741C96.8827 118.681 96.3727 118.651 95.8927 118.651C94.9027 118.711 93.8827 118.981 93.0127 119.491C92.3827 119.851 91.8727 120.361 91.4827 120.901V119.101H88.0327V134.101H91.4827V126.511C91.4827 126.331 91.5127 126.121 91.5427 125.941C91.5727 125.281 91.7227 124.651 91.9627 124.081C92.2327 123.511 92.5927 122.971 93.0127 122.611C93.4627 122.251 93.9427 122.011 94.4227 121.891C94.9027 121.771 95.3527 121.741 95.8927 121.801C96.4027 121.831 96.8227 121.951 97.1827 122.161C97.5727 122.341 97.9027 122.611 98.1727 122.971C98.4427 123.301 98.6827 123.781 98.8327 124.261C98.8927 124.531 98.9527 124.771 98.9827 125.071C98.9827 125.191 99.0127 125.341 99.0127 125.461V125.941V134.101H102.463ZM122.296 127.891H122.896C122.986 127.471 123.016 127.051 123.016 126.601C123.016 122.281 119.236 118.771 114.556 118.771C109.906 118.771 106.126 122.281 106.126 126.601C106.126 130.921 110.176 134.431 115.126 134.431C118.216 134.431 121.006 133.081 122.656 130.921L119.446 129.571C118.426 130.621 116.836 131.281 115.126 131.281C112.606 131.281 110.476 129.841 109.786 127.891H122.296ZM109.786 125.311C110.386 123.361 112.306 121.921 114.556 121.921C116.836 121.921 118.756 123.361 119.356 125.311H109.786ZM140.3 119.101V121.171C139.64 120.511 138.83 119.911 137.93 119.491C136.94 119.041 135.83 118.801 134.69 118.771C133.58 118.771 132.44 118.951 131.39 119.341C130.34 119.761 129.41 120.361 128.63 121.081C127.1 122.551 126.23 124.591 126.26 126.601C126.23 128.611 127.1 130.651 128.63 132.121C129.41 132.871 130.34 133.471 131.39 133.861C132.44 134.281 133.58 134.461 134.69 134.431C135.83 134.401 136.94 134.161 137.93 133.711C138.83 133.291 139.64 132.721 140.3 132.031V140.101H143.78V119.101H140.3ZM138.47 130.141C137.93 130.561 137.3 130.861 136.67 131.041C136.01 131.221 135.35 131.311 134.69 131.281C133.37 131.221 132.11 130.741 131.18 129.871C130.25 129.031 129.71 127.831 129.71 126.601C129.71 125.371 130.25 124.171 131.18 123.331C132.11 122.461 133.37 121.981 134.69 121.921C135.35 121.891 136.01 121.981 136.67 122.161C137.3 122.341 137.93 122.671 138.47 123.091C139.58 123.901 140.3 125.221 140.3 126.601C140.3 127.981 139.58 129.301 138.47 130.141ZM159.2 119.101V126.691C159.17 126.901 159.17 127.081 159.14 127.261C159.08 127.951 158.96 128.551 158.69 129.121C158.45 129.691 158.09 130.231 157.64 130.591C157.22 130.981 156.74 131.191 156.26 131.311C155.78 131.461 155.3 131.461 154.79 131.401C154.28 131.371 153.86 131.251 153.47 131.041C153.11 130.861 152.78 130.591 152.51 130.231C152.21 129.901 151.97 129.421 151.85 128.941C151.76 128.701 151.73 128.431 151.7 128.161C151.67 128.011 151.67 127.861 151.67 127.741V127.261V119.101H148.22V127.261V127.801C148.22 128.011 148.22 128.191 148.25 128.401C148.28 128.821 148.34 129.211 148.43 129.631C148.61 130.471 148.94 131.281 149.48 132.061C149.75 132.451 150.08 132.841 150.47 133.171C150.86 133.471 151.31 133.771 151.79 133.981C152.27 134.191 152.78 134.371 153.29 134.461C153.8 134.551 154.31 134.581 154.79 134.551C155.75 134.521 156.8 134.221 157.64 133.711C158.27 133.351 158.81 132.841 159.2 132.301V134.101H162.65V119.101H159.2ZM180.653 119.101V121.171C179.993 120.511 179.183 119.911 178.283 119.491C177.293 119.041 176.183 118.801 175.043 118.771C173.933 118.771 172.793 118.951 171.743 119.341C170.693 119.761 169.763 120.361 168.983 121.081C167.453 122.551 166.583 124.591 166.613 126.601C166.583 128.611 167.453 130.651 168.983 132.121C169.763 132.871 170.693 133.471 171.743 133.861C172.793 134.251 173.933 134.461 175.043 134.431C176.183 134.401 177.293 134.161 178.283 133.711C179.183 133.291 179.993 132.721 180.653 132.031V134.101H184.103V119.101H180.653ZM178.823 130.141C178.283 130.561 177.653 130.861 177.023 131.041C176.363 131.221 175.703 131.311 175.043 131.281C173.723 131.221 172.463 130.741 171.533 129.871C170.603 129.031 170.063 127.831 170.063 126.601C170.063 125.371 170.603 124.171 171.533 123.331C172.463 122.461 173.723 121.981 175.043 121.921C175.703 121.891 176.363 121.981 177.023 122.161C177.653 122.341 178.283 122.671 178.823 123.091C179.933 123.901 180.653 125.221 180.653 126.601C180.653 127.981 179.933 129.301 178.823 130.141ZM192.235 134.101V113.101H188.785V134.101H192.235ZM200.326 134.101V119.101H196.846V134.101H200.326ZM198.586 117.511C199.816 117.511 200.776 116.521 200.776 115.321C200.776 114.091 199.816 113.101 198.586 113.101C197.356 113.101 196.396 114.091 196.396 115.321C196.396 116.521 197.356 117.511 198.586 117.511ZM214.869 122.371V119.221H210.609V114.031L207.129 115.831V119.221H203.769V122.371H207.129V128.491C207.129 130.381 207.399 132.301 209.229 133.501C210.219 134.161 211.509 134.371 212.889 134.371C213.549 134.371 214.209 134.311 214.869 134.251V131.071C213.579 131.221 211.869 131.341 211.239 130.921C210.909 130.741 210.609 130.381 210.609 128.491V122.371H214.869ZM234.641 119.131H230.891L229.691 121.711L225.971 130.201L221.261 119.131H217.511L224.201 133.651L221.231 140.131H224.981L234.491 119.431L234.641 119.131Z" fill="#FEFEFE"/>
<mask id="mask0_892_14465" style="mask-type:alpha" maskUnits="userSpaceOnUse" x="166" y="185" width="240" height="113">
<path d="M334.53 297.173L357.626 294.116L391.21 231.899L405.813 204.847L315.989 215.876L288.263 210.273L278.532 198.445L271.317 206.848L166 185.564L219.435 273.874L334.53 297.173Z" fill="#FEFEFE"/>
</mask>
<g mask="url(#mask0_892_14465)">
<path d="M334.53 297.173L357.626 294.116L391.21 231.899L405.813 204.847L315.989 215.876L288.263 210.273L278.532 198.445L271.318 206.848L166 185.564L219.435 273.874L334.53 297.173Z" fill="#FEFEFE"/>
<path d="M166 185.564L237.775 245.916L241.821 249.318L293.169 269.181L384.261 244.773L391.21 231.899L405.813 204.847L322.276 227.5L315.989 215.876L288.263 210.273L299.815 224.314L306.056 231.899L243.373 239.396L271.318 206.848L166 185.564Z" fill="#F9EBE2"/>
<path d="M334.53 297.173L357.626 294.116L311.366 276.22L295.254 269.988L383.132 246.864L390.034 234.077L405.813 204.847L322.276 227.5L315.989 215.876L288.263 210.273L299.815 224.314L306.055 231.899L241.821 249.318L237.775 245.916L245.088 237.399L271.317 206.848L166 185.564L237.775 245.916L241.821 249.318L219.435 273.874L334.53 297.173Z" fill="#FEF8F4"/>
<path d="M334.53 297.173L357.626 294.116L241.821 249.318L262.85 243.615L306.055 231.899L322.276 227.5L315.989 215.876L288.263 210.273L299.815 224.314L315.989 215.876L306.055 231.899L262.85 243.615L241.821 249.318L237.775 245.916L245.296 237.156L271.317 206.848L266.365 205.64L233.307 229.356L166 185.564L237.775 245.916L241.821 249.318L219.435 273.874L334.53 297.173Z" fill="#F9EBE2"/>
<path d="M357.625 294.116L334.529 297.173L219.434 273.874M357.625 294.116L241.821 249.318M357.625 294.116L391.209 231.899L405.812 204.847M219.434 273.874L165.999 185.564M219.434 273.874L241.821 249.318M165.999 185.564L237.774 245.916M165.999 185.564L271.317 206.848M241.821 249.318L306.055 231.899M241.821 249.318L237.774 245.916M405.812 204.847L315.988 215.876M405.812 204.847L322.275 227.5M306.055 231.899L315.988 215.876M306.055 231.899L299.814 224.314M306.055 231.899L322.275 227.5M237.774 245.916L271.317 206.848M315.988 215.876L288.262 210.273M315.988 215.876L299.814 224.314M315.988 215.876L322.275 227.5M288.262 210.273L278.531 198.445L271.317 206.848M288.262 210.273L299.814 224.314" stroke="#FBE6DC" stroke-width="2" stroke-linejoin="bevel"/>
</g>
<defs>
<radialGradient id="paint0_radial_892_14465" cx="0" cy="0" r="1" gradientUnits="userSpaceOnUse" gradientTransform="translate(293 287.5) rotate(90) scale(21.5 119)">
<stop stop-color="#7DA7E7"/>
<stop offset="1" stop-color="#7DA7E7" stop-opacity="0"/>
</radialGradient>
</defs>
</svg>
