<svg width="379" height="296" viewBox="0 0 379 296" fill="none" xmlns="http://www.w3.org/2000/svg">
<ellipse cx="127" cy="274.5" rx="119" ry="21.5" fill="url(#paint0_radial_892_14465)" fill-opacity="0.5"/>
<path d="M112 143L112 184" stroke="#D2D4F8" stroke-width="6" stroke-linecap="square"/>
<mask id="mask0_892_14465" style="mask-type:alpha" maskUnits="userSpaceOnUse" x="0" y="172" width="240" height="113">
<path d="M168.53 284.173L191.626 281.116L225.21 218.899L239.813 191.847L149.989 202.876L122.263 197.273L112.532 185.445L105.317 193.848L-2.73687e-05 172.564L53.4348 260.874L168.53 284.173Z" fill="#FEFEFE"/>
</mask>
<g mask="url(#mask0_892_14465)">
<path d="M168.53 284.173L191.626 281.116L225.21 218.899L239.813 191.847L149.989 202.876L122.263 197.273L112.532 185.445L105.318 193.848L9.47016e-05 172.564L53.4349 260.874L168.53 284.173Z" fill="#FEFEFE"/>
<path d="M9.47016e-05 172.564L71.7753 232.916L75.8215 236.318L127.169 256.181L218.261 231.773L225.21 218.899L239.813 191.847L156.276 214.5L149.989 202.876L122.263 197.273L133.815 211.314L140.056 218.899L77.3728 226.396L105.318 193.848L9.47016e-05 172.564Z" fill="#F9EBE2"/>
<path d="M168.53 284.173L191.626 281.116L145.366 263.22L129.254 256.988L217.132 233.864L224.034 221.077L239.813 191.847L156.276 214.5L149.989 202.876L122.263 197.273L133.815 211.314L140.055 218.899L75.8213 236.318L71.7752 232.916L79.0877 224.399L105.317 193.848L-2.73687e-05 172.564L71.7752 232.916L75.8213 236.318L53.4348 260.874L168.53 284.173Z" fill="#FEF8F4"/>
<path d="M168.53 284.173L191.626 281.116L75.8213 236.318L96.8501 230.615L140.055 218.899L156.276 214.5L149.989 202.876L122.263 197.273L133.815 211.314L149.989 202.876L140.055 218.899L96.8501 230.615L75.8213 236.318L71.7752 232.916L79.2958 224.156L105.317 193.848L100.365 192.64L67.3074 216.356L-2.73687e-05 172.564L71.7752 232.916L75.8213 236.318L53.4348 260.874L168.53 284.173Z" fill="#F9EBE2"/>
<path d="M191.625 281.116L168.529 284.173L53.4341 260.874M191.625 281.116L75.8206 236.318M191.625 281.116L225.209 218.899L239.812 191.847M53.4341 260.874L-0.000758105 172.564M53.4341 260.874L75.8206 236.318M-0.000758105 172.564L71.7745 232.916M-0.000758105 172.564L105.317 193.848M75.8206 236.318L140.055 218.899M75.8206 236.318L71.7745 232.916M239.812 191.847L149.988 202.876M239.812 191.847L156.275 214.5M140.055 218.899L149.988 202.876M140.055 218.899L133.814 211.314M140.055 218.899L156.275 214.5M71.7745 232.916L105.317 193.848M149.988 202.876L122.262 197.273M149.988 202.876L133.814 211.314M149.988 202.876L156.275 214.5M122.262 197.273L112.531 185.445L105.317 193.848M122.262 197.273L133.814 211.314" stroke="#FBE6DC" stroke-width="2" stroke-linejoin="bevel"/>
</g>
<path d="M161 72L109 142H377V2H109L161 72Z" fill="#A491DD" stroke="#D2D4F8" stroke-width="4" stroke-linejoin="bevel"/>
<path d="M195.19 83V62.03H191.74V83H195.19ZM214.463 82.82V74.66V74.12C214.463 73.91 214.433 73.73 214.433 73.52C214.403 73.13 214.343 72.71 214.253 72.29C214.043 71.45 213.743 70.64 213.173 69.86C212.903 69.47 212.573 69.11 212.183 68.78C211.793 68.45 211.373 68.15 210.893 67.94C210.413 67.73 209.903 67.55 209.393 67.46C208.883 67.4 208.373 67.37 207.893 67.37C206.903 67.43 205.883 67.7 205.013 68.21C204.383 68.57 203.873 69.08 203.483 69.62V67.82H200.033V82.82H203.483V75.23C203.483 75.05 203.513 74.84 203.543 74.66C203.573 74 203.723 73.37 203.963 72.8C204.233 72.23 204.593 71.69 205.013 71.33C205.463 70.97 205.943 70.73 206.423 70.61C206.903 70.49 207.353 70.46 207.893 70.52C208.403 70.55 208.823 70.67 209.183 70.88C209.573 71.06 209.903 71.33 210.173 71.69C210.443 72.02 210.683 72.5 210.833 72.98C210.893 73.25 210.953 73.49 210.983 73.79C210.983 73.91 211.013 74.06 211.013 74.18V74.66V82.82H214.463ZM234.296 76.61H234.896C234.986 76.19 235.016 75.77 235.016 75.32C235.016 71 231.236 67.49 226.556 67.49C221.906 67.49 218.126 71 218.126 75.32C218.126 79.64 222.176 83.15 227.126 83.15C230.216 83.15 233.006 81.8 234.656 79.64L231.446 78.29C230.426 79.34 228.836 80 227.126 80C224.606 80 222.476 78.56 221.786 76.61H234.296ZM221.786 74.03C222.386 72.08 224.306 70.64 226.556 70.64C228.836 70.64 230.756 72.08 231.356 74.03H221.786ZM252.3 67.82V69.89C251.64 69.23 250.83 68.63 249.93 68.21C248.94 67.76 247.83 67.52 246.69 67.49C245.58 67.49 244.44 67.67 243.39 68.06C242.34 68.48 241.41 69.08 240.63 69.8C239.1 71.27 238.23 73.31 238.26 75.32C238.23 77.33 239.1 79.37 240.63 80.84C241.41 81.59 242.34 82.19 243.39 82.58C244.44 83 245.58 83.18 246.69 83.15C247.83 83.12 248.94 82.88 249.93 82.43C250.83 82.01 251.64 81.44 252.3 80.75V88.82H255.78V67.82H252.3ZM250.47 78.86C249.93 79.28 249.3 79.58 248.67 79.76C248.01 79.94 247.35 80.03 246.69 80C245.37 79.94 244.11 79.46 243.18 78.59C242.25 77.75 241.71 76.55 241.71 75.32C241.71 74.09 242.25 72.89 243.18 72.05C244.11 71.18 245.37 70.7 246.69 70.64C247.35 70.61 248.01 70.7 248.67 70.88C249.3 71.06 249.93 71.39 250.47 71.81C251.58 72.62 252.3 73.94 252.3 75.32C252.3 76.7 251.58 78.02 250.47 78.86ZM271.2 67.82V75.41C271.17 75.62 271.17 75.8 271.14 75.98C271.08 76.67 270.96 77.27 270.69 77.84C270.45 78.41 270.09 78.95 269.64 79.31C269.22 79.7 268.74 79.91 268.26 80.03C267.78 80.18 267.3 80.18 266.79 80.12C266.28 80.09 265.86 79.97 265.47 79.76C265.11 79.58 264.78 79.31 264.51 78.95C264.21 78.62 263.97 78.14 263.85 77.66C263.76 77.42 263.73 77.15 263.7 76.88C263.67 76.73 263.67 76.58 263.67 76.46V75.98V67.82H260.22V75.98V76.52C260.22 76.73 260.22 76.91 260.25 77.12C260.28 77.54 260.34 77.93 260.43 78.35C260.61 79.19 260.94 80 261.48 80.78C261.75 81.17 262.08 81.56 262.47 81.89C262.86 82.19 263.31 82.49 263.79 82.7C264.27 82.91 264.78 83.09 265.29 83.18C265.8 83.27 266.31 83.3 266.79 83.27C267.75 83.24 268.8 82.94 269.64 82.43C270.27 82.07 270.81 81.56 271.2 81.02V82.82H274.65V67.82H271.2ZM292.653 67.82V69.89C291.993 69.23 291.183 68.63 290.283 68.21C289.293 67.76 288.183 67.52 287.043 67.49C285.933 67.49 284.793 67.67 283.743 68.06C282.693 68.48 281.763 69.08 280.983 69.8C279.453 71.27 278.583 73.31 278.613 75.32C278.583 77.33 279.453 79.37 280.983 80.84C281.763 81.59 282.693 82.19 283.743 82.58C284.793 82.97 285.933 83.18 287.043 83.15C288.183 83.12 289.293 82.88 290.283 82.43C291.183 82.01 291.993 81.44 292.653 80.75V82.82H296.103V67.82H292.653ZM290.823 78.86C290.283 79.28 289.653 79.58 289.023 79.76C288.363 79.94 287.703 80.03 287.043 80C285.723 79.94 284.463 79.46 283.533 78.59C282.603 77.75 282.063 76.55 282.063 75.32C282.063 74.09 282.603 72.89 283.533 72.05C284.463 71.18 285.723 70.7 287.043 70.64C287.703 70.61 288.363 70.7 289.023 70.88C289.653 71.06 290.283 71.39 290.823 71.81C291.933 72.62 292.653 73.94 292.653 75.32C292.653 76.7 291.933 78.02 290.823 78.86ZM304.235 82.82V61.82H300.785V82.82H304.235ZM312.326 82.82V67.82H308.846V82.82H312.326ZM310.586 66.23C311.816 66.23 312.776 65.24 312.776 64.04C312.776 62.81 311.816 61.82 310.586 61.82C309.356 61.82 308.396 62.81 308.396 64.04C308.396 65.24 309.356 66.23 310.586 66.23ZM326.869 71.09V67.94H322.609V62.75L319.129 64.55V67.94H315.769V71.09H319.129V77.21C319.129 79.1 319.399 81.02 321.229 82.22C322.219 82.88 323.509 83.09 324.889 83.09C325.549 83.09 326.209 83.03 326.869 82.97V79.79C325.579 79.94 323.869 80.06 323.239 79.64C322.909 79.46 322.609 79.1 322.609 77.21V71.09H326.869ZM346.641 67.85H342.891L341.691 70.43L337.971 78.92L333.261 67.85H329.511L336.201 82.37L333.231 88.85H336.981L346.491 68.15L346.641 67.85Z" fill="#FEFEFE"/>
<defs>
<radialGradient id="paint0_radial_892_14465" cx="0" cy="0" r="1" gradientUnits="userSpaceOnUse" gradientTransform="translate(127 274.5) rotate(90) scale(21.5 119)">
<stop stop-color="#7DA7E7"/>
<stop offset="1" stop-color="#7DA7E7" stop-opacity="0"/>
</radialGradient>
</defs>
</svg>
