<svg width="250" height="443" viewBox="0 0 250 443" fill="none" xmlns="http://www.w3.org/2000/svg">
<rect x="123" width="6" height="55" fill="#F6E4A1"/>
<rect x="191.047" y="8" width="6" height="55" transform="rotate(22.5 191.047 8)" fill="#F6E4A1"/>
<rect x="55" y="10.2959" width="6" height="55" transform="rotate(-22.5 55 10.2959)" fill="#F6E4A1"/>
<rect x="210.242" y="83.1338" width="6" height="55" transform="rotate(-135 210.242 83.1338)" fill="#F6E4A1"/>
<rect y="48.2422" width="6" height="55" transform="rotate(-45 0 48.2422)" fill="#F6E4A1"/>
<path d="M92.5884 314.093L123.667 323.005L155.609 314.093V334.79L150.141 342.318V369.378L123.667 375L97.7681 369.378V341.977L92.5884 334.79V314.093Z" fill="#EFEFEF"/>
<path d="M92.5884 314.093L123.667 323.005V341.977L155.609 334.79L150.141 342.318L123.667 348.588V375L97.7681 369.378V341.977L92.5884 334.79V314.093Z" fill="#D8D8D8"/>
<path d="M97.7677 341.977L92.5879 334.791L123.666 341.977V348.589L97.7677 341.977Z" fill="#9D9D9D"/>
<path d="M10 188.761L64.3875 94.474L82.2289 87H171.724L186.975 94.474L242.514 188.761L155.609 314.093L123.667 323.005L92.5884 314.093L10 188.761Z" fill="#F6E4A1"/>
<path d="M10 188.761L64.3875 94.474L82.2289 87L52.3014 163.464L123.667 188.761L202.227 163.464L242.514 188.761L155.609 314.093L123.667 323.005L92.5884 314.093L10 188.761Z" fill="#EBC644" fill-opacity="0.4"/>
<path d="M92.5884 314.093L10 188.761L52.3014 163.464L123.667 188.761V323.005L92.5884 314.093Z" fill="#EBC644" fill-opacity="0.7"/>
<ellipse cx="126" cy="418" rx="100" ry="25" fill="url(#paint0_radial_839_14412)" fill-opacity="0.3"/>
<defs>
<radialGradient id="paint0_radial_839_14412" cx="0" cy="0" r="1" gradientUnits="userSpaceOnUse" gradientTransform="translate(126 418) rotate(90) scale(25 100)">
<stop stop-color="#EBC644"/>
<stop offset="1" stop-color="#D9D9D9" stop-opacity="0"/>
</radialGradient>
</defs>
</svg>
