<svg width="1440" height="866" viewBox="0 0 1440 866" fill="none" xmlns="http://www.w3.org/2000/svg">
<path d="M-36 2.37343C161.167 -1.62657 544 27.4984 600 42.3734C664 59.373 660.4 111.673 600 124.873C539.6 138.073 489 143.373 461 148.873C442.721 152.464 395.4 183.073 459 201.873C522.6 220.673 1050.9 240.966 1303.5 280.373C1487 309 1735.5 500.873 1303.5 650.873C871.5 800.873 224.167 855.373 -45.5 863.873L-57.5 800L-104 462.5C271.5 476.833 1001.87 481.496 1097.5 459.5C1147.5 448 1146.5 386.5 1097.5 378C811.014 328.303 229 269.5 119 253.5C50 243.464 26.5 141.5 119 120.5L310.5 92.873C329 90.873 337.5 67.373 310.5 58.873C275.982 48.0062 65.6667 47.2064 -36 50.373V16.5V2.37343Z" fill="#DFECFE"/>
<path d="M-36 2.37343C161.167 -1.62657 544 27.4984 600 42.3734C664 59.373 660.4 111.673 600 124.873C539.6 138.073 489 143.373 461 148.873C442.721 152.464 395.4 183.073 459 201.873C522.6 220.673 1050.9 240.966 1303.5 280.373C1487 309 1735.5 500.873 1303.5 650.873C871.5 800.873 224.167 855.373 -45.5 863.873L-57.5 800L-104 462.5C271.5 476.833 1001.87 481.496 1097.5 459.5C1147.5 448 1146.5 386.5 1097.5 378C811.014 328.303 229 269.5 119 253.5C50 243.464 26.5 141.5 119 120.5L310.5 92.873C329 90.873 337.5 67.373 310.5 58.873C275.982 48.0062 65.6667 47.2064 -36 50.373V16.5V2.37343Z" fill="url(#paint0_linear_345_13001)" fill-opacity="0.4"/>
<path d="M-36 2.37343C161.167 -1.62657 544 27.4984 600 42.3734C664 59.373 660.4 111.673 600 124.873C539.6 138.073 489 143.373 461 148.873C442.721 152.464 395.4 183.073 459 201.873C522.6 220.673 1050.9 240.966 1303.5 280.373C1487 309 1735.5 500.873 1303.5 650.873C871.5 800.873 224.167 855.373 -45.5 863.873L-57.5 800L-104 462.5C271.5 476.833 1001.87 481.496 1097.5 459.5C1147.5 448 1146.5 386.5 1097.5 378C811.014 328.303 229 269.5 119 253.5C50 243.464 26.5 141.5 119 120.5L310.5 92.873C329 90.873 337.5 67.373 310.5 58.873C275.982 48.0062 65.6667 47.2064 -36 50.373V16.5V2.37343Z" fill="url(#paint1_linear_345_13001)" fill-opacity="0.3"/>
<path d="M-36 16.5V50.373C65.6667 47.2064 275.982 48.0062 310.5 58.873C337.5 67.373 329 90.873 310.5 92.873L119 120.5C26.5 141.5 50 243.464 119 253.5C229 269.5 811.014 328.303 1097.5 378C1146.5 386.5 1147.5 448 1097.5 459.5C1001.87 481.496 271.5 476.833 -104 462.5L-57.5 800M-36 16.5V2.37343C161.167 -1.62657 544 27.4984 600 42.3734C664 59.373 660.4 111.673 600 124.873C539.6 138.073 489 143.373 461 148.873C442.721 152.464 395.4 183.073 459 201.873C522.6 220.673 1050.9 240.966 1303.5 280.373C1487 309 1735.5 500.873 1303.5 650.873C871.5 800.873 224.167 855.373 -45.5 863.873L-57.5 800M-36 16.5C151.333 22.8333 533.8 39 565 53C604 70.5 600 100.5 565 112C530.667 115 454.2 121 423 121C384 121 230.73 140.893 186.5 148.873C147 156 133.31 216.201 186.5 229C346.5 267.5 1154.46 308.16 1244 320.5C1556 363.5 1486.5 531.5 1391 575.5C1105.54 707.02 282.718 813.833 -57.5 800" stroke="#ACCBF9" stroke-width="3"/>
<defs>
<linearGradient id="paint0_linear_345_13001" x1="719.533" y1="2" x2="719.533" y2="863.873" gradientUnits="userSpaceOnUse">
<stop offset="0.729167" stop-color="white"/>
<stop offset="1" stop-color="#ACCBF9"/>
</linearGradient>
<linearGradient id="paint1_linear_345_13001" x1="719.533" y1="1.99996" x2="1543" y2="206.5" gradientUnits="userSpaceOnUse">
<stop stop-color="white"/>
<stop offset="1" stop-color="#ACCBF9"/>
</linearGradient>
</defs>
</svg>
