<svg width="312" height="341" viewBox="0 0 312 341" fill="none" xmlns="http://www.w3.org/2000/svg">
<path d="M100.215 160.465H47.625H11L18.5128 170.237L29.7821 178.466H82.8413L93.1715 170.237L100.215 160.465Z" fill="#D2D4F8"/>
<path d="M55.6074 13.8864L43.399 0L55.6074 7.71468L66.8766 3.60019L249.532 58.6316L257.045 68.9178L271.131 66.8606L257.045 74.061L249.532 64.8033L66.8766 9.77193L55.6074 13.8864Z" fill="#D2D4F8"/>
<path d="M153.274 230.412H160.317L163.22 239.155L191.777 241.727L211.498 255.099V261.271L195.534 267.442H119.936L102.562 261.271V255.099L119.936 241.727L150.371 239.155L153.274 230.412Z" fill="#D2D4F8"/>
<path d="M304 221.154H265.966H214.785L222.298 230.926L233.567 239.155H286.627L296.957 230.926L304 221.154Z" fill="#D2D4F8"/>
<path d="M153.274 230.412H160.317V37.9243L153.274 35.8022V230.412Z" fill="#D2D4F8"/>
<path d="M66.876 9.77184L55.6068 13.8863V7.71459L66.876 3.6001V9.77184Z" fill="#A491DD"/>
<path d="M257.044 74.0609L249.531 64.8033V58.6315L257.044 68.9177V74.0609Z" fill="#A491DD"/>
<path d="M152.334 245.327L149.517 241.727L150.371 239.155L146.999 239.44L143.499 242.5L150.371 249.5H163.219L169.999 242.5L166.383 239.44L163.219 239.155L164.073 241.727L161.725 245.327H152.334Z" fill="#A491DD"/>
<path d="M153.273 230.412H160.317L161.768 234.783H151.822L153.273 230.412Z" fill="#A491DD"/>
<path d="M153.273 35.8021L160.317 37.9242V45.0005L153.273 42.7429V35.8021Z" fill="#A491DD"/>
<path d="M11 160.465L55.6074 13.8865M100.215 160.465L55.6074 13.8865M55.6074 13.8865L47.625 160.465M257.045 74.061L304 221.154M257.045 74.061L214.785 221.154M257.045 74.061L265.966 221.154" stroke="#D2D4F8" stroke-width="1.5" stroke-linejoin="bevel"/>
<path d="M29.7821 178.468H82.8413L11 160.467L18.5128 170.239L29.7821 178.468Z" fill="#A491DD"/>
<path d="M102.563 261.272V255.1L195.534 267.444H119.936L102.563 261.272Z" fill="#A491DD"/>
<path d="M233.567 239.157H286.627L214.785 221.156L222.298 230.928L233.567 239.157Z" fill="#A491DD"/>
<ellipse cx="156" cy="316" rx="156" ry="25" fill="url(#paint0_radial_839_14409)" fill-opacity="0.3"/>
<defs>
<radialGradient id="paint0_radial_839_14409" cx="0" cy="0" r="1" gradientUnits="userSpaceOnUse" gradientTransform="translate(156 316) rotate(90) scale(25 156)">
<stop stop-color="#A491DD"/>
<stop offset="1" stop-color="#D9D9D9" stop-opacity="0"/>
</radialGradient>
</defs>
</svg>
