<svg width="1440" height="461" viewBox="0 0 1440 461" fill="none" xmlns="http://www.w3.org/2000/svg">
<g filter="url(#filter0_d_345_12782)">
<path d="M626.559 236.959L650.734 236.167L651.97 286.277L659.789 289.876L661.486 349.783L683.375 357.048L677.332 538.799L661.486 536.217L609.349 527L477 164.572L519.183 223.952L616.4 305.857L618.322 269L623.257 271.534L626.559 236.959Z" fill="#AADBB7"/>
<path d="M625.729 236.238H650.655L651.97 286.277L659.795 290.036L661.457 348.421L683.557 357.013L677.332 538.799L661.486 536.217L663.186 426.667L613.731 357.048L519.183 223.952L616.4 305.857L618.477 269.219L623.257 271.534L625.729 236.238Z" fill="#48A7A1"/>
<path d="M661.486 536.217L663.186 426.667L613.731 357.048L519.183 223.952L616.4 305.857L613.731 357.048L663.186 426.667L661.457 348.421L683.557 357.013L677.332 538.799L661.486 536.217Z" fill="#48A7A1"/>
<path d="M661.486 536.217L663.186 426.667L613.731 357.048L519.183 223.952L606.593 337.389L609.423 299.979L616.4 305.857L614.27 346.706L663.186 406.075L661.486 348.234L672.431 352.641L666.58 537.047L661.486 536.217Z" fill="#125867"/>
<path d="M623.257 271.534L651.97 286.277L651.866 282.13L623.57 267.153L623.257 271.534Z" fill="#125867"/>
<path d="M627.747 236.238L539.813 181.792L521.868 94.9524L544.3 43.7619L560.002 72.4286L600.829 11L613.839 27.3809L622.812 13.0476L656.46 46.5019L658.704 34.9527H676.649L726 117.476L649.282 236.238H627.747Z" fill="#FBE6DC"/>
<path d="M613.84 27.3809L651.974 72.4286L656.461 46.5019L622.812 13.0476L613.84 27.3809Z" fill="#FFB1B1"/>
<path d="M649.285 236.238H627.75L613.953 227.695L645.967 230.486L635.007 211.49L560.005 72.4286L565.479 64.1931L632.465 197.439L645.005 64.1931L613.843 27.3809L615.085 25.397L646.011 56.7091L648.473 38.3712L656.464 46.5019L653.402 64.1931L651.977 72.4286L635.43 208.02L651.667 232.552L649.285 236.238Z" fill="#FFB1B1"/>
</g>
<g filter="url(#filter1_d_345_12782)">
<path d="M543.495 331.45L557.961 330.929L558.701 363.851L563.38 366.215L564.395 405.573L577.494 410.345L573.877 529.752L564.395 528.055L533.197 522L454 283.893L479.242 322.905L537.416 376.714L538.566 352.5L541.519 354.165L543.495 331.45Z" fill="#AADBB7"/>
<path d="M542.998 330.976H557.914L558.701 363.85L563.383 366.32L564.378 404.678L577.602 410.322L573.877 529.752L564.395 528.055L565.413 456.083L535.819 410.345L479.242 322.905L537.416 376.714L538.659 352.644L541.519 354.165L542.998 330.976Z" fill="#48A7A1"/>
<path d="M564.395 528.055L565.413 456.083L535.819 410.345L479.242 322.905L537.416 376.714L535.819 410.345L565.413 456.083L564.378 404.678L577.602 410.323L573.877 529.752L564.395 528.055Z" fill="#48A7A1"/>
<path d="M564.395 528.055L565.413 456.083L535.819 410.345L479.242 322.905L531.548 397.43L533.241 372.852L537.416 376.714L536.142 403.551L565.413 442.555L564.395 404.555L570.945 407.45L567.443 528.601L564.395 528.055Z" fill="#125867"/>
<path d="M541.519 354.165L558.701 363.851L558.639 361.126L541.707 351.287L541.519 354.165Z" fill="#125867"/>
<path d="M544.206 330.976L491.587 295.206L480.849 238.155L494.272 204.524L503.668 223.357L528.098 183L535.884 193.762L541.253 184.345L561.388 206.324L562.73 198.736H573.469L603 252.952L557.093 330.976H544.206Z" fill="#FBE6DC"/>
<path d="M535.884 193.762L558.703 223.357L561.388 206.324L541.253 184.345L535.884 193.762Z" fill="#FFB1B1"/>
<path d="M557.094 330.976H544.208L535.952 325.363L555.109 327.197L548.55 314.717L503.67 223.357L506.945 217.947L547.029 305.486L554.533 217.947L535.886 193.762L536.629 192.458L555.135 213.03L556.608 200.982L561.39 206.324L559.558 217.947L558.705 223.357L548.804 312.438L558.519 328.554L557.094 330.976Z" fill="#FFB1B1"/>
</g>
<g filter="url(#filter2_d_345_12782)">
<path d="M162.859 240.767L141.5 240L140.408 288.515L133.5 292L132 350L112.66 357.033L118 533L132 530.5L178.065 521.576L295 170.684L257.73 228.175L171.835 307.472L170.137 271.788L165.777 274.242L162.859 240.767Z" fill="#AADBB7"/>
<path d="M163.593 240.069H141.57L140.408 288.515L133.495 292.155L132.026 348.682L112.5 357L118 533L132 530.5L130.498 424.437L174.194 357.033L257.73 228.175L171.835 307.472L170 272L165.777 274.242L163.593 240.069Z" fill="#48A7A1"/>
<path d="M132 530.5L130.498 424.437L174.194 357.033L257.73 228.175L171.835 307.472L174.194 357.033L130.498 424.437L132.026 348.682L112.5 357L118 533L132 530.5Z" fill="#48A7A1"/>
<path d="M132 530.5L130.498 424.437L174.194 357.033L257.73 228.175L180.5 338L178 301.781L171.835 307.472L173.717 347.021L130.498 404.5L132 348.5L122.33 352.767L127.5 531.304L132 530.5Z" fill="#125867"/>
<path d="M165.777 274.242L140.408 288.515L140.5 284.5L165.5 270L165.777 274.242Z" fill="#125867"/>
<path d="M161.81 240.069L239.502 187.356L255.358 103.28L235.538 53.7191L221.665 81.4734L185.593 22L174.098 37.8596L166.17 23.9824L136.441 56.3719L134.459 45.1903H118.603L75 125.087L142.783 240.069H161.81Z" fill="#F6E4A1"/>
<path d="M174.098 37.8596L140.404 81.4734L136.44 56.3719L166.17 23.9824L174.098 37.8596Z" fill="#EBC644"/>
<path d="M142.78 240.069H161.807L173.998 231.798L145.712 234.5L155.396 216.108L221.662 81.4734L216.826 73.5L157.641 202.505L146.561 73.5L174.095 37.8596L172.998 35.9388L145.673 66.2542L143.498 48.5L136.438 56.3719L139.143 73.5L140.402 81.4734L155.021 212.749L140.676 236.5L142.78 240.069Z" fill="#EBC644"/>
</g>
<g filter="url(#filter3_d_345_12782)">
<path d="M1405.49 297.665L1388.11 297.039L1387.22 336.661L1381.6 339.507L1380.38 386.875L1364.64 392.619L1368.99 536.33L1380.38 534.288L1417.86 527L1513 240.429L1482.68 287.381L1412.79 352.143L1411.41 323L1407.86 325.004L1405.49 297.665Z" fill="#AADBB7"/>
<path d="M1406.08 297.095H1388.16L1387.22 336.661L1381.59 339.633L1380.4 385.798L1364.51 392.592L1368.99 536.33L1380.38 534.288L1379.16 447.667L1414.71 392.619L1482.68 287.381L1412.79 352.143L1411.3 323.173L1407.86 325.004L1406.08 297.095Z" fill="#48A7A1"/>
<path d="M1380.38 534.288L1379.16 447.667L1414.71 392.619L1482.68 287.381L1412.79 352.143L1414.71 392.619L1379.16 447.667L1380.4 385.798L1364.51 392.592L1368.99 536.33L1380.38 534.288Z" fill="#48A7A1"/>
<path d="M1380.38 534.288L1379.16 447.667L1414.71 392.619L1482.68 287.381L1419.84 377.075L1417.8 347.495L1412.79 352.143L1414.32 384.442L1379.16 431.385L1380.38 385.65L1372.51 389.135L1376.72 534.944L1380.38 534.288Z" fill="#125867"/>
<path d="M1407.86 325.004L1387.22 336.661L1387.29 333.382L1407.63 321.54L1407.86 325.004Z" fill="#125867"/>
<path d="M1404.63 297.095L1467.84 254.045L1480.75 185.381L1464.62 144.905L1453.33 167.571L1423.98 119L1414.63 131.952L1408.18 120.619L1383.99 147.071L1382.38 137.939H1369.48L1334 203.19L1389.15 297.095H1404.63Z" fill="#DFECFE"/>
<path d="M1414.63 131.952L1387.22 167.571L1383.99 147.071L1408.18 120.619L1414.63 131.952Z" fill="#7DA7E7"/>
<path d="M1389.15 297.095H1404.63L1414.55 290.34L1391.53 292.547L1399.41 277.527L1453.33 167.571L1449.39 161.06L1401.24 266.417L1392.22 161.06L1414.63 131.952L1413.73 130.384L1391.5 155.142L1389.73 140.642L1383.99 147.071L1386.19 161.06L1387.21 167.571L1399.11 274.783L1387.44 294.18L1389.15 297.095Z" fill="#7DA7E7"/>
</g>
<g filter="url(#filter4_d_345_12782)">
<path d="M861.479 285.299L843.13 284.639L842.191 326.397L836.257 329.397L834.968 379.319L818.354 385.373L822.941 536.833L834.968 534.681L874.542 527L975 224.976L942.982 274.46L869.19 342.714L867.731 312L863.985 314.112L861.479 285.299Z" fill="#AADBB7"/>
<path d="M862.11 284.699H843.19L842.191 326.397L836.252 329.53L834.991 378.185L818.216 385.344L822.941 536.833L834.968 534.681L833.678 443.389L871.216 385.373L942.982 274.46L869.19 342.714L867.614 312.182L863.985 314.112L862.11 284.699Z" fill="#48A7A1"/>
<path d="M834.968 534.681L833.678 443.389L871.216 385.373L942.982 274.46L869.19 342.714L871.216 385.373L833.678 443.389L834.991 378.185L818.216 385.344L822.941 536.833L834.968 534.681Z" fill="#48A7A1"/>
<path d="M834.968 534.681L833.678 443.389L871.216 385.373L942.982 274.46L876.634 368.99L874.486 337.816L869.19 342.714L870.807 376.755L833.678 426.229L834.968 378.028L826.661 381.701L831.102 535.373L834.968 534.681Z" fill="#125867"/>
<path d="M863.985 314.112L842.191 326.397L842.27 322.941L863.748 310.461L863.985 314.112Z" fill="#125867"/>
<path d="M860.577 284.698L927.322 239.327L940.944 166.96L923.917 124.302L911.998 148.19L881.009 97L871.134 110.651L864.323 98.7063L838.783 126.585L837.08 116.961H823.459L786 185.73L844.232 284.698H860.577Z" fill="#F6E4A1"/>
<path d="M871.134 110.651L842.188 148.19L838.783 126.585L864.323 98.7063L871.134 110.651Z" fill="#EBC644"/>
<path d="M844.229 284.698H860.575L871.048 277.579L846.748 279.905L855.067 264.075L911.996 148.19L907.841 141.328L856.997 252.366L847.478 141.328L871.132 110.651L870.189 108.997L846.715 135.091L844.846 119.809L838.781 126.585L841.104 141.328L842.186 148.19L854.746 261.184L842.422 281.626L844.229 284.698Z" fill="#EBC644"/>
</g>
<g filter="url(#filter5_d_345_12782)">
<path d="M786.304 318.149L802.032 317.584L802.836 353.322L807.923 355.889L809.027 398.613L823.268 403.794L819.336 533.415L809.027 531.573L775.107 525L689 266.524L716.444 308.873L779.694 367.286L780.945 341L784.155 342.807L786.304 318.149Z" fill="#AADBB7"/>
<path d="M785.763 317.635H801.98L802.836 353.322L807.927 356.003L809.008 397.642L823.386 403.769L819.336 533.415L809.027 531.573L810.133 453.444L777.957 403.794L716.444 308.873L779.694 367.286L781.045 341.156L784.155 342.807L785.763 317.635Z" fill="#48A7A1"/>
<path d="M809.027 531.573L810.133 453.444L777.957 403.794L716.444 308.873L779.694 367.286L777.957 403.794L810.133 453.444L809.008 397.642L823.386 403.769L819.336 533.415L809.027 531.573Z" fill="#48A7A1"/>
<path d="M809.027 531.573L810.133 453.444L777.957 403.794L716.444 308.873L773.314 389.773L775.155 363.093L779.694 367.286L778.308 396.418L810.133 438.759L809.027 397.508L816.148 400.651L812.341 532.165L809.027 531.573Z" fill="#125867"/>
<path d="M784.155 342.807L802.836 353.322L802.768 350.364L784.359 339.683L784.155 342.807Z" fill="#125867"/>
<path d="M787.077 317.635L729.867 278.805L718.191 216.873L732.785 180.365L743.002 200.81L769.563 157L778.028 168.683L783.866 158.46L805.757 182.319L807.217 174.083H818.892L851 232.936L801.087 317.635H787.077Z" fill="#DFECFE"/>
<path d="M778.028 168.683L802.839 200.81L805.758 182.319L783.866 158.46L778.028 168.683Z" fill="#7DA7E7"/>
<path d="M801.089 317.635H787.079L778.102 311.542L798.93 313.533L791.8 299.985L743.004 200.81L746.565 194.936L790.146 289.964L798.305 194.936L778.03 168.683L778.838 167.268L798.959 189.599L800.561 176.521L805.759 182.319L803.768 194.936L802.841 200.81L792.075 297.511L802.639 315.006L801.089 317.635Z" fill="#7DA7E7"/>
</g>
<g filter="url(#filter6_d_345_12782)">
<path d="M400.515 284.665L417.893 284.039L418.782 323.661L424.402 326.507L425.623 373.875L441.358 379.619L437.014 523.33L425.623 521.288L388.143 514L293 227.429L323.324 274.381L393.211 339.143L394.593 310L398.141 312.004L400.515 284.665Z" fill="#AADBB7"/>
<path d="M399.917 284.095H417.836L418.782 323.661L424.407 326.633L425.601 372.798L441.489 379.592L437.014 523.33L425.623 521.288L426.845 434.667L391.292 379.619L323.324 274.381L393.211 339.143L394.705 310.173L398.141 312.004L399.917 284.095Z" fill="#48A7A1"/>
<path d="M425.623 521.288L426.845 434.667L391.292 379.619L323.324 274.381L393.211 339.143L391.292 379.619L426.845 434.667L425.601 372.798L441.489 379.592L437.014 523.33L425.623 521.288Z" fill="#48A7A1"/>
<path d="M425.623 521.288L426.845 434.667L391.292 379.619L323.324 274.381L386.161 364.075L388.195 334.495L393.211 339.143L391.68 371.442L426.845 418.385L425.623 372.65L433.49 376.135L429.284 521.944L425.623 521.288Z" fill="#125867"/>
<path d="M398.141 312.004L418.782 323.661L418.707 320.382L398.366 308.54L398.141 312.004Z" fill="#125867"/>
<path d="M401.369 284.095L338.155 241.045L325.254 172.381L341.38 131.905L352.668 154.571L382.018 106L391.371 118.952L397.821 107.619L422.01 134.071L423.622 124.939H436.523L472 190.19L416.849 284.095H401.369Z" fill="#DFECFE"/>
<path d="M391.371 118.952L418.785 154.571L422.01 134.071L397.821 107.619L391.371 118.952Z" fill="#7DA7E7"/>
<path d="M416.852 284.095H401.371L391.452 277.34L414.466 279.547L406.587 264.527L352.671 154.571L356.605 148.06L404.76 253.417L413.775 148.06L391.373 118.952L392.266 117.384L414.498 142.142L416.268 127.642L422.012 134.071L419.811 148.06L418.787 154.571L406.892 261.783L418.563 281.18L416.852 284.095Z" fill="#7DA7E7"/>
</g>
<g filter="url(#filter7_d_345_12782)">
<path d="M454.735 397.156L444.832 396.801L444.325 419.234L441.123 420.846L440.427 447.664L431.461 450.917L433.936 532.282L440.427 531.126L461.785 527L516 364.75L498.72 391.333L458.896 428L458.109 411.5L456.087 412.634L454.735 397.156Z" fill="#AADBB7"/>
<path d="M455.075 396.833H444.864L444.325 419.234L441.12 420.917L440.439 447.055L431.386 450.901L433.936 532.282L440.427 531.126L439.731 482.083L459.99 450.917L498.72 391.333L458.896 428L458.045 411.598L456.087 412.634L455.075 396.833Z" fill="#48A7A1"/>
<path d="M440.427 531.126L439.731 482.083L459.99 450.917L498.72 391.333L458.896 428L459.99 450.917L439.731 482.083L440.439 447.055L431.386 450.901L433.936 532.282L440.427 531.126Z" fill="#48A7A1"/>
<path d="M440.427 531.126L439.731 482.083L459.99 450.917L498.72 391.333L462.914 442.116L461.755 425.368L458.896 428L459.769 446.287L439.731 472.865L440.427 446.971L435.944 448.944L438.341 531.498L440.427 531.126Z" fill="#125867"/>
<path d="M456.087 412.634L444.325 419.234L444.368 417.378L455.959 410.673L456.087 412.634Z" fill="#125867"/>
<path d="M454.248 396.833L490.269 372.459L497.62 333.583L488.431 310.667L481.999 323.5L465.275 296L459.945 303.333L456.27 296.917L442.486 311.893L441.567 306.723H434.216L414 343.667L445.427 396.833H454.248Z" fill="#D2D4F8"/>
<path d="M459.945 303.333L444.324 323.5L442.486 311.893L456.27 296.917L459.945 303.333Z" fill="#A491DD"/>
<path d="M445.425 396.833H454.247L459.899 393.009L446.785 394.258L451.274 385.754L481.998 323.5L479.756 319.813L452.316 379.464L447.178 319.813L459.944 303.333L459.435 302.445L446.767 316.463L445.758 308.253L442.485 311.893L443.739 319.813L444.323 323.5L451.101 384.201L444.45 395.183L445.425 396.833Z" fill="#A491DD"/>
</g>
<g filter="url(#filter8_d_345_12782)">
<path d="M1062.86 245.767L1041.5 245L1040.41 293.515L1033.5 297L1032 355L1012.66 362.033L1018 538L1032 535.5L1078.06 526.576L1195 175.684L1157.73 233.175L1071.84 312.472L1070.14 276.788L1065.78 279.242L1062.86 245.767Z" fill="#AADBB7"/>
<path d="M1063.59 245.069H1041.57L1040.41 293.515L1033.49 297.155L1032.03 353.682L1012.5 362L1018 538L1032 535.5L1030.5 429.437L1074.19 362.033L1157.73 233.175L1071.84 312.472L1070 277L1065.78 279.242L1063.59 245.069Z" fill="#48A7A1"/>
<path d="M1032 535.5L1030.5 429.437L1074.19 362.033L1157.73 233.175L1071.84 312.472L1074.19 362.033L1030.5 429.437L1032.03 353.682L1012.5 362L1018 538L1032 535.5Z" fill="#48A7A1"/>
<path d="M1032 535.5L1030.5 429.437L1074.19 362.033L1157.73 233.175L1080.5 343L1078 306.781L1071.84 312.472L1073.72 352.021L1030.5 409.5L1032 353.5L1022.33 357.767L1027.5 536.304L1032 535.5Z" fill="#125867"/>
<path d="M1065.78 279.242L1040.41 293.515L1040.5 289.5L1065.5 275L1065.78 279.242Z" fill="#125867"/>
<path d="M1061.81 245.069L1139.5 192.356L1155.36 108.28L1135.54 58.7191L1121.66 86.4734L1085.59 27L1074.1 42.8596L1066.17 28.9824L1036.44 61.3719L1034.46 50.1903H1018.6L975 130.087L1042.78 245.069H1061.81Z" fill="#D2D4F8"/>
<path d="M1074.1 42.8596L1040.4 86.4734L1036.44 61.3719L1066.17 28.9824L1074.1 42.8596Z" fill="#A491DD"/>
<path d="M1042.78 245.069H1061.81L1074 236.798L1045.71 239.5L1055.4 221.108L1121.66 86.4734L1116.83 78.5L1057.64 207.505L1046.56 78.5L1074.09 42.8596L1073 40.9388L1045.67 71.2542L1043.5 53.5L1036.44 61.3719L1039.14 78.5L1040.4 86.4734L1055.02 217.749L1040.68 241.5L1042.78 245.069Z" fill="#A491DD"/>
</g>
<g filter="url(#filter9_d_345_12782)">
<path d="M1189.3 321.273L1173.67 320.711L1172.87 356.255L1167.81 358.808L1166.71 401.3L1152.56 406.452L1156.47 535.369L1166.71 533.538L1200.42 527L1286 269.929L1258.73 312.048L1195.87 370.143L1194.62 344L1191.43 345.797L1189.3 321.273Z" fill="#AADBB7"/>
<path d="M1189.83 320.762H1173.72L1172.87 356.255L1167.81 358.921L1166.73 400.334L1152.44 406.428L1156.47 535.369L1166.71 533.538L1165.61 455.833L1197.59 406.452L1258.73 312.048L1195.87 370.143L1194.52 344.155L1191.43 345.797L1189.83 320.762Z" fill="#48A7A1"/>
<path d="M1166.71 533.538L1165.61 455.833L1197.59 406.452L1258.73 312.048L1195.87 370.143L1197.59 406.452L1165.61 455.833L1166.73 400.334L1152.44 406.428L1156.47 535.369L1166.71 533.538Z" fill="#48A7A1"/>
<path d="M1166.71 533.538L1165.61 455.833L1197.59 406.452L1258.73 312.048L1202.21 392.508L1200.38 365.973L1195.87 370.143L1197.24 399.117L1165.61 441.227L1166.71 400.201L1159.64 403.327L1163.42 534.126L1166.71 533.538Z" fill="#125867"/>
<path d="M1191.43 345.797L1172.87 356.255L1172.93 353.313L1191.23 342.69L1191.43 345.797Z" fill="#125867"/>
<path d="M1188.53 320.762L1245.39 282.143L1256.99 220.548L1242.48 184.238L1232.33 204.571L1205.93 161L1197.52 172.619L1191.72 162.452L1169.96 186.182L1168.51 177.99H1156.91L1125 236.524L1174.6 320.762H1188.53Z" fill="#FBE6DC"/>
<path d="M1197.52 172.619L1172.86 204.571L1169.96 186.182L1191.72 162.452L1197.52 172.619Z" fill="#FFB1B1"/>
<path d="M1174.6 320.762H1188.53L1197.45 314.702L1176.75 316.682L1183.83 303.208L1232.33 204.571L1228.79 198.73L1185.48 293.242L1177.37 198.73L1197.52 172.619L1196.72 171.212L1176.72 193.422L1175.13 180.414L1169.96 186.182L1171.94 198.73L1172.86 204.571L1183.56 300.747L1173.06 318.147L1174.6 320.762Z" fill="#FFB1B1"/>
</g>
<g filter="url(#filter10_d_345_12782)">
<path d="M969.505 334.45L955.039 333.929L954.299 366.851L949.62 369.215L948.605 408.573L935.506 413.345L939.123 532.752L948.605 531.055L979.803 525L1059 286.893L1033.76 325.905L975.584 379.714L974.434 355.5L971.481 357.165L969.505 334.45Z" fill="#AADBB7"/>
<path d="M970.002 333.976H955.086L954.299 366.85L949.617 369.32L948.622 407.678L935.398 413.322L939.123 532.752L948.605 531.055L947.587 459.083L977.181 413.345L1033.76 325.905L975.584 379.714L974.341 355.644L971.481 357.165L970.002 333.976Z" fill="#48A7A1"/>
<path d="M948.605 531.055L947.587 459.083L977.181 413.345L1033.76 325.905L975.584 379.714L977.181 413.345L947.587 459.083L948.622 407.678L935.398 413.323L939.123 532.752L948.605 531.055Z" fill="#48A7A1"/>
<path d="M948.605 531.055L947.587 459.083L977.181 413.345L1033.76 325.905L981.452 400.43L979.759 375.852L975.584 379.714L976.858 406.551L947.587 445.555L948.605 407.555L942.055 410.45L945.557 531.601L948.605 531.055Z" fill="#125867"/>
<path d="M971.481 357.165L954.299 366.851L954.361 364.126L971.293 354.287L971.481 357.165Z" fill="#125867"/>
<path d="M968.794 333.976L1021.41 298.206L1032.15 241.155L1018.73 207.524L1009.33 226.357L984.902 186L977.116 196.762L971.747 187.345L951.612 209.324L950.27 201.736H939.531L910 255.952L955.907 333.976H968.794Z" fill="#D2D4F8"/>
<path d="M977.116 196.762L954.297 226.357L951.612 209.324L971.747 187.345L977.116 196.762Z" fill="#A491DD"/>
<path d="M955.906 333.976H968.792L977.048 328.363L957.891 330.197L964.45 317.717L1009.33 226.357L1006.05 220.947L965.971 308.486L958.467 220.947L977.114 196.762L976.371 195.458L957.865 216.03L956.392 203.982L951.61 209.324L953.442 220.947L954.295 226.357L964.196 315.438L954.481 331.554L955.906 333.976Z" fill="#A491DD"/>
</g>
<g filter="url(#filter11_d_345_12782)">
<path d="M910.93 394.476L900.25 394.092L899.704 418.371L896.25 420.114L895.5 449.139L885.83 452.659L888.5 540.717L895.5 539.466L918.532 535L977 359.405L958.365 388.175L915.418 427.857L914.568 410L912.388 411.228L910.93 394.476Z" fill="#AADBB7"/>
<path d="M911.297 394.127H900.285L899.704 418.371L896.247 420.192L895.513 448.479L885.75 452.642L888.5 540.717L895.5 539.466L894.749 486.389L916.597 452.659L958.365 388.175L915.418 427.857L914.5 410.106L912.388 411.228L911.297 394.127Z" fill="#48A7A1"/>
<path d="M895.5 539.466L894.749 486.389L916.597 452.659L958.365 388.175L915.418 427.857L916.597 452.659L894.749 486.389L895.513 448.479L885.75 452.642L888.5 540.717L895.5 539.466Z" fill="#48A7A1"/>
<path d="M895.5 539.466L894.749 486.389L916.597 452.659L958.365 388.175L919.75 443.134L918.5 425.009L915.418 427.857L916.359 447.648L894.749 476.412L895.5 448.388L890.665 450.524L893.25 539.868L895.5 539.466Z" fill="#125867"/>
<path d="M912.388 411.228L899.704 418.371L899.75 416.361L912.25 409.105L912.388 411.228Z" fill="#125867"/>
<path d="M910.405 394.127L949.251 367.748L957.179 325.675L947.269 300.873L940.332 314.762L922.296 285L916.549 292.937L912.585 285.992L897.72 302.201L896.729 296.605H888.801L867 336.587L900.891 394.127H910.405Z" fill="#FBE6DC"/>
<path d="M916.549 292.937L899.702 314.762L897.72 302.201L912.585 285.992L916.549 292.937Z" fill="#FFB1B1"/>
<path d="M900.89 394.127H910.403L916.499 389.988L902.356 391.34L907.198 382.137L940.331 314.762L937.913 310.772L908.321 375.329L902.781 310.772L916.547 292.937L915.999 291.975L902.337 307.146L901.249 298.261L897.719 302.201L899.071 310.772L899.701 314.762L907.011 380.456L899.838 392.341L900.89 394.127Z" fill="#FFB1B1"/>
</g>
<g filter="url(#filter12_d_345_12782)">
<path d="M1346.73 397.156L1336.83 396.801L1336.33 419.234L1333.12 420.846L1332.43 447.664L1323.46 450.917L1325.94 532.282L1332.43 531.126L1353.78 527L1408 364.75L1390.72 391.333L1350.9 428L1350.11 411.5L1348.09 412.634L1346.73 397.156Z" fill="#AADBB7"/>
<path d="M1347.08 396.833H1336.86L1336.33 419.234L1333.12 420.917L1332.44 447.055L1323.39 450.901L1325.94 532.282L1332.43 531.126L1331.73 482.083L1351.99 450.917L1390.72 391.333L1350.9 428L1350.05 411.598L1348.09 412.634L1347.08 396.833Z" fill="#48A7A1"/>
<path d="M1332.43 531.126L1331.73 482.083L1351.99 450.917L1390.72 391.333L1350.9 428L1351.99 450.917L1331.73 482.083L1332.44 447.055L1323.39 450.901L1325.94 532.282L1332.43 531.126Z" fill="#48A7A1"/>
<path d="M1332.43 531.126L1331.73 482.083L1351.99 450.917L1390.72 391.333L1354.91 442.116L1353.75 425.368L1350.9 428L1351.77 446.287L1331.73 472.865L1332.43 446.971L1327.94 448.944L1330.34 531.498L1332.43 531.126Z" fill="#125867"/>
<path d="M1348.09 412.634L1336.33 419.234L1336.37 417.378L1347.96 410.673L1348.09 412.634Z" fill="#125867"/>
<path d="M1346.25 396.833L1382.27 372.459L1389.62 333.583L1380.43 310.667L1374 323.5L1357.27 296L1351.95 303.333L1348.27 296.917L1334.49 311.893L1333.57 306.723H1326.22L1306 343.667L1337.43 396.833H1346.25Z" fill="#D2D4F8"/>
<path d="M1351.95 303.333L1336.32 323.5L1334.49 311.893L1348.27 296.917L1351.95 303.333Z" fill="#A491DD"/>
<path d="M1337.43 396.833H1346.25L1351.9 393.009L1338.78 394.258L1343.27 385.754L1374 323.5L1371.76 319.813L1344.32 379.464L1339.18 319.813L1351.94 303.333L1351.44 302.445L1338.77 316.463L1337.76 308.253L1334.48 311.893L1335.74 319.813L1336.32 323.5L1343.1 384.201L1336.45 395.183L1337.43 396.833Z" fill="#A491DD"/>
</g>
<g filter="url(#filter13_d_345_12782)">
<path d="M1299.5 334.45L1313.96 333.929L1314.7 366.851L1319.38 369.215L1320.4 408.573L1333.49 413.345L1329.88 532.752L1320.4 531.055L1289.2 525L1210 286.893L1235.24 325.905L1293.42 379.714L1294.57 355.5L1297.52 357.165L1299.5 334.45Z" fill="#AADBB7"/>
<path d="M1299 333.976H1313.91L1314.7 366.85L1319.38 369.32L1320.38 407.678L1333.6 413.322L1329.88 532.752L1320.4 531.055L1321.41 459.083L1291.82 413.345L1235.24 325.905L1293.42 379.714L1294.66 355.644L1297.52 357.165L1299 333.976Z" fill="#48A7A1"/>
<path d="M1320.4 531.055L1321.41 459.083L1291.82 413.345L1235.24 325.905L1293.42 379.714L1291.82 413.345L1321.41 459.083L1320.38 407.678L1333.6 413.323L1329.88 532.752L1320.4 531.055Z" fill="#48A7A1"/>
<path d="M1320.4 531.055L1321.41 459.083L1291.82 413.345L1235.24 325.905L1287.55 400.43L1289.24 375.852L1293.42 379.714L1292.14 406.551L1321.41 445.555L1320.4 407.555L1326.94 410.45L1323.44 531.601L1320.4 531.055Z" fill="#125867"/>
<path d="M1297.52 357.165L1314.7 366.851L1314.64 364.126L1297.71 354.287L1297.52 357.165Z" fill="#125867"/>
<path d="M1300.21 333.976L1247.59 298.206L1236.85 241.155L1250.27 207.524L1259.67 226.357L1284.1 186L1291.88 196.762L1297.25 187.345L1317.39 209.324L1318.73 201.736H1329.47L1359 255.952L1313.09 333.976H1300.21Z" fill="#F6E4A1"/>
<path d="M1291.88 196.762L1314.7 226.357L1317.39 209.324L1297.25 187.345L1291.88 196.762Z" fill="#EBC644"/>
<path d="M1313.09 333.976H1300.21L1291.95 328.363L1311.11 330.197L1304.55 317.717L1259.67 226.357L1262.95 220.947L1303.03 308.486L1310.53 220.947L1291.89 196.762L1292.63 195.458L1311.13 216.03L1312.61 203.982L1317.39 209.324L1315.56 220.947L1314.71 226.357L1304.8 315.438L1314.52 331.554L1313.09 333.976Z" fill="#EBC644"/>
</g>
<g filter="url(#filter14_d_345_12782)">
<path d="M1133.28 371.862L1145.12 371.438L1145.73 398.241L1149.56 400.167L1150.39 432.21L1161.12 436.095L1158.15 533.311L1150.39 531.93L1124.85 527L1060 333.143L1080.67 364.905L1128.3 408.714L1129.24 389L1131.66 390.356L1133.28 371.862Z" fill="#AADBB7"/>
<path d="M1132.87 371.476H1145.08L1145.73 398.241L1149.56 400.252L1150.38 431.481L1161.2 436.077L1158.15 533.311L1150.39 531.93L1151.22 473.333L1126.99 436.095L1080.67 364.905L1128.3 408.714L1129.32 389.117L1131.66 390.355L1132.87 371.476Z" fill="#48A7A1"/>
<path d="M1150.39 531.93L1151.22 473.333L1126.99 436.095L1080.67 364.905L1128.3 408.714L1126.99 436.095L1151.22 473.333L1150.38 431.481L1161.2 436.077L1158.15 533.311L1150.39 531.93Z" fill="#48A7A1"/>
<path d="M1150.39 531.93L1151.22 473.333L1126.99 436.095L1080.67 364.905L1123.5 425.58L1124.88 405.57L1128.3 408.714L1127.26 430.564L1151.22 462.319L1150.39 431.381L1155.75 433.738L1152.89 532.374L1150.39 531.93Z" fill="#125867"/>
<path d="M1131.66 390.356L1145.73 398.241L1145.68 396.023L1131.81 388.012L1131.66 390.356Z" fill="#125867"/>
<path d="M1133.86 371.476L1090.78 342.354L1081.98 295.905L1092.97 268.524L1100.67 283.857L1120.67 251L1127.05 259.762L1131.44 252.095L1147.93 269.989L1149.03 263.812H1157.82L1182 307.952L1144.41 371.476H1133.86Z" fill="#F6E4A1"/>
<path d="M1127.05 259.762L1145.73 283.857L1147.93 269.989L1131.44 252.095L1127.05 259.762Z" fill="#EBC644"/>
<path d="M1144.41 371.476H1133.86L1127.1 366.907L1142.79 368.399L1137.42 358.239L1100.67 283.857L1103.35 279.452L1136.17 350.723L1142.32 279.452L1127.05 259.762L1127.66 258.701L1142.81 275.449L1144.01 265.64L1147.93 269.989L1146.43 279.452L1145.73 283.857L1137.62 356.383L1145.58 369.504L1144.41 371.476Z" fill="#EBC644"/>
</g>
<g filter="url(#filter15_d_345_12782)">
<path d="M688.115 357.247L675.202 356.784L674.542 386.112L670.366 388.218L669.459 423.28L657.767 427.532L660.995 533.906L669.459 532.395L697.307 527L768 314.881L745.469 349.635L693.541 397.572L692.515 376L689.879 377.483L688.115 357.247Z" fill="#AADBB7"/>
<path d="M688.559 356.826H675.244L674.542 386.112L670.363 388.312L669.475 422.483L657.67 427.512L660.995 533.906L669.459 532.395L668.551 468.278L694.967 427.532L745.469 349.635L693.541 397.572L692.432 376.128L689.879 377.483L688.559 356.826Z" fill="#48A7A1"/>
<path d="M669.459 532.395L668.551 468.278L694.967 427.532L745.469 349.635L693.541 397.572L694.967 427.532L668.551 468.278L669.475 422.483L657.67 427.512L660.995 533.906L669.459 532.395Z" fill="#48A7A1"/>
<path d="M669.459 532.395L668.551 468.278L694.967 427.532L745.469 349.635L698.78 416.026L697.268 394.131L693.541 397.572L694.679 421.479L668.551 456.226L669.459 422.373L663.613 424.953L666.739 532.88L669.459 532.395Z" fill="#125867"/>
<path d="M689.879 377.483L674.542 386.112L674.598 383.685L689.711 374.919L689.879 377.483Z" fill="#125867"/>
<path d="M687.48 356.825L734.449 324.96L744.034 274.135L732.053 244.175L723.665 260.952L701.858 225L694.909 234.587L690.116 226.198L672.144 245.778L670.945 239.019H661.36L635 287.317L675.978 356.825H687.48Z" fill="#F6E4A1"/>
<path d="M694.909 234.587L674.54 260.952L672.144 245.778L690.116 226.198L694.909 234.587Z" fill="#EBC644"/>
<path d="M675.976 356.825H687.479L694.849 351.825L677.749 353.459L683.603 342.341L723.664 260.952L720.74 256.132L684.961 334.118L678.262 256.132L694.907 234.587L694.244 233.426L677.725 251.752L676.41 241.02L672.142 245.778L673.777 256.132L674.538 260.952L683.377 340.31L674.704 354.668L675.976 356.825Z" fill="#EBC644"/>
</g>
<g filter="url(#filter16_d_345_12782)">
<path d="M297.696 320.149L281.968 319.584L281.164 355.322L276.077 357.889L274.973 400.613L260.732 405.794L264.664 535.415L274.973 533.573L308.893 527L395 268.524L367.556 310.873L304.306 369.286L303.055 343L299.845 344.807L297.696 320.149Z" fill="#AADBB7"/>
<path d="M298.237 319.635H282.02L281.164 355.322L276.073 358.003L274.992 399.642L260.614 405.769L264.664 535.415L274.973 533.573L273.867 455.444L306.043 405.794L367.556 310.873L304.306 369.286L302.955 343.156L299.845 344.807L298.237 319.635Z" fill="#48A7A1"/>
<path d="M274.973 533.573L273.867 455.444L306.043 405.794L367.556 310.873L304.306 369.286L306.043 405.794L273.867 455.444L274.992 399.642L260.614 405.769L264.664 535.415L274.973 533.573Z" fill="#48A7A1"/>
<path d="M274.973 533.573L273.867 455.444L306.043 405.794L367.556 310.873L310.686 391.773L308.845 365.093L304.306 369.286L305.692 398.418L273.867 440.759L274.973 399.508L267.852 402.651L271.659 534.165L274.973 533.573Z" fill="#125867"/>
<path d="M299.845 344.807L281.164 355.322L281.232 352.364L299.641 341.683L299.845 344.807Z" fill="#125867"/>
<path d="M296.923 319.635L354.133 280.805L365.809 218.873L351.215 182.365L340.998 202.81L314.437 159L305.972 170.683L300.134 160.46L278.243 184.319L276.783 176.083H265.108L233 234.936L282.913 319.635H296.923Z" fill="#F6E4A1"/>
<path d="M305.972 170.683L281.161 202.81L278.243 184.319L300.134 160.46L305.972 170.683Z" fill="#EBC644"/>
<path d="M282.911 319.635H296.921L305.898 313.542L285.07 315.533L292.2 301.985L340.996 202.81L337.435 196.936L293.854 291.964L285.695 196.936L305.97 170.683L305.162 169.268L285.041 191.599L283.439 178.521L278.241 184.319L280.232 196.936L281.159 202.81L291.925 299.511L281.362 317.006L282.911 319.635Z" fill="#EBC644"/>
</g>
<g filter="url(#filter17_d_345_12782)">
<path d="M226.121 367.613L214.18 367.184L213.569 394.375L209.707 396.328L208.868 428.836L198.056 432.778L201.041 531.403L208.868 530.002L234.623 525L300 328.333L279.163 360.556L231.14 405L230.19 385L227.752 386.375L226.121 367.613Z" fill="#AADBB7"/>
<path d="M226.532 367.222H214.219L213.569 394.375L209.704 396.415L208.883 428.097L197.966 432.759L201.041 531.403L208.868 530.002L208.028 470.556L232.458 432.778L279.163 360.556L231.14 405L230.114 385.119L227.752 386.375L226.532 367.222Z" fill="#48A7A1"/>
<path d="M208.868 530.002L208.028 470.556L232.458 432.778L279.163 360.556L231.14 405L232.458 432.778L208.028 470.556L208.883 428.097L197.966 432.759L201.041 531.403L208.868 530.002Z" fill="#48A7A1"/>
<path d="M208.868 530.002L208.028 470.556L232.458 432.778L279.163 360.556L235.984 422.11L234.586 401.81L231.14 405L232.192 427.166L208.028 459.382L208.868 427.995L203.462 430.387L206.352 530.452L208.868 530.002Z" fill="#125867"/>
<path d="M227.752 386.375L213.569 394.375L213.62 392.125L227.598 383.998L227.752 386.375Z" fill="#125867"/>
<path d="M225.534 367.222L268.972 337.678L277.836 290.556L266.755 262.778L258.999 278.333L238.832 245L232.405 253.889L227.972 246.111L211.351 264.265L210.243 257.998H201.378L177 302.778L214.897 367.222H225.534Z" fill="#FBE6DC"/>
<path d="M232.405 253.889L213.567 278.333L211.351 264.265L227.972 246.111L232.405 253.889Z" fill="#FFB1B1"/>
<path d="M214.895 367.222H225.533L232.349 362.586L216.535 364.101L221.948 353.793L258.997 278.333L256.294 273.864L223.204 346.169L217.009 273.864L232.403 253.889L231.79 252.812L216.513 269.803L215.296 259.853L211.349 264.265L212.862 273.864L213.565 278.333L221.739 351.91L213.719 365.222L214.895 367.222Z" fill="#FFB1B1"/>
</g>
<g filter="url(#filter18_d_345_12782)">
<path d="M32.7027 331.077L17.9455 330.548L17.1907 364.051L12.4182 366.458L11.3818 406.512L-1.98016 411.369L1.7091 532.889L11.3818 531.163L43.2084 525L124 282.679L98.2498 322.381L38.9043 377.143L37.731 352.5L34.7184 354.194L32.7027 331.077Z" fill="#AADBB7"/>
<path d="M33.2099 330.595H17.9937L17.1907 364.051L12.4144 366.565L11.4 405.602L-2.0909 411.346L1.7091 532.889L11.3818 531.163L10.344 457.917L40.5339 411.369L98.2498 322.381L38.9043 377.143L37.6364 352.646L34.7184 354.194L33.2099 330.595Z" fill="#48A7A1"/>
<path d="M11.3818 531.163L10.344 457.917L40.5339 411.369L98.2498 322.381L38.9043 377.143L40.5339 411.369L10.344 457.917L11.4 405.602L-2.0909 411.346L1.7091 532.889L11.3818 531.163Z" fill="#48A7A1"/>
<path d="M11.3818 531.163L10.344 457.917L40.5339 411.369L98.2498 322.381L44.8909 398.225L43.1636 373.213L38.9043 377.143L40.2046 404.455L10.344 444.149L11.3818 405.476L4.70084 408.423L8.27274 531.718L11.3818 531.163Z" fill="#125867"/>
<path d="M34.7184 354.194L17.1907 364.051L17.2546 361.279L34.5273 351.265L34.7184 354.194Z" fill="#125867"/>
<path d="M31.9775 330.595L85.656 294.192L96.6108 236.131L82.9173 201.905L73.3319 221.071L48.4097 180L40.4675 190.952L34.9901 181.369L14.4499 203.737L13.0805 196.015H2.12572L-28 251.19L18.8318 330.595H31.9775Z" fill="#D2D4F8"/>
<path d="M40.4674 190.952L17.1885 221.071L14.4498 203.737L34.99 181.369L40.4674 190.952Z" fill="#A491DD"/>
<path d="M18.8298 330.595H31.9756L40.3983 324.883L20.8557 326.749L27.5461 314.048L73.3299 221.071L69.9887 215.565L29.0978 304.654L21.4424 215.565L40.4656 190.952L39.7074 189.626L20.8289 210.561L19.3256 198.301L14.4479 203.737L16.3167 215.565L17.1866 221.071L27.2876 311.729L17.3762 328.131L18.8298 330.595Z" fill="#A491DD"/>
</g>
<g filter="url(#filter19_d_345_12782)">
<path d="M96.0704 384.476L106.75 384.092L107.296 408.371L110.75 410.114L111.5 439.139L121.17 442.659L118.5 530.717L111.5 529.466L88.4676 525L30 349.405L48.635 378.175L91.5824 417.857L92.4315 400L94.6117 401.228L96.0704 384.476Z" fill="#AADBB7"/>
<path d="M95.7033 384.127H106.715L107.296 408.371L110.753 410.192L111.487 438.479L121.25 442.642L118.5 530.717L111.5 529.466L112.251 476.389L90.4031 442.659L48.635 378.175L91.5824 417.857L92.5 400.106L94.6117 401.228L95.7033 384.127Z" fill="#48A7A1"/>
<path d="M111.5 529.466L112.251 476.389L90.4031 442.659L48.635 378.175L91.5824 417.857L90.4031 442.659L112.251 476.389L111.487 438.479L121.25 442.642L118.5 530.717L111.5 529.466Z" fill="#48A7A1"/>
<path d="M111.5 529.466L112.251 476.389L90.4031 442.659L48.635 378.175L87.25 433.134L88.5 415.009L91.5824 417.857L90.6414 437.648L112.251 466.412L111.5 438.388L116.335 440.524L113.75 529.868L111.5 529.466Z" fill="#125867"/>
<path d="M94.6117 401.228L107.296 408.371L107.25 406.361L94.75 399.105L94.6117 401.228Z" fill="#125867"/>
<path d="M96.5953 384.127L57.749 357.748L49.8212 315.675L59.7309 290.873L66.6678 304.762L84.7035 275L90.4512 282.937L94.4151 275.992L109.28 292.201L110.271 286.605H118.199L140 326.587L106.109 384.127H96.5953Z" fill="#DFECFE"/>
<path d="M90.4512 282.937L107.298 304.762L109.28 292.201L94.4151 275.992L90.4512 282.937Z" fill="#7DA7E7"/>
<path d="M106.11 384.127H96.5966L90.5012 379.988L104.644 381.34L99.8022 372.137L66.6691 304.762L69.0871 300.772L98.6793 365.329L104.219 300.772L90.4526 282.937L91.0012 281.975L104.663 297.146L105.751 288.261L109.281 292.201L107.929 300.772L107.299 304.762L99.9893 370.456L107.162 382.341L106.11 384.127Z" fill="#7DA7E7"/>
</g>
<defs>
<filter id="filter0_d_345_12782" x="466" y="0" width="279" height="557.799" filterUnits="userSpaceOnUse" color-interpolation-filters="sRGB">
<feFlood flood-opacity="0" result="BackgroundImageFix"/>
<feColorMatrix in="SourceAlpha" type="matrix" values="0 0 0 0 0 0 0 0 0 0 0 0 0 0 0 0 0 0 127 0" result="hardAlpha"/>
<feOffset dx="4" dy="4"/>
<feGaussianBlur stdDeviation="7.5"/>
<feComposite in2="hardAlpha" operator="out"/>
<feColorMatrix type="matrix" values="0 0 0 0 0.280747 0 0 0 0 0.654167 0 0 0 0 0.631939 0 0 0 0.1 0"/>
<feBlend mode="normal" in2="BackgroundImageFix" result="effect1_dropShadow_345_12782"/>
<feBlend mode="normal" in="SourceGraphic" in2="effect1_dropShadow_345_12782" result="shape"/>
</filter>
<filter id="filter1_d_345_12782" x="443" y="172" width="179" height="376.752" filterUnits="userSpaceOnUse" color-interpolation-filters="sRGB">
<feFlood flood-opacity="0" result="BackgroundImageFix"/>
<feColorMatrix in="SourceAlpha" type="matrix" values="0 0 0 0 0 0 0 0 0 0 0 0 0 0 0 0 0 0 127 0" result="hardAlpha"/>
<feOffset dx="4" dy="4"/>
<feGaussianBlur stdDeviation="7.5"/>
<feComposite in2="hardAlpha" operator="out"/>
<feColorMatrix type="matrix" values="0 0 0 0 0.280747 0 0 0 0 0.654167 0 0 0 0 0.631939 0 0 0 0.1 0"/>
<feBlend mode="normal" in2="BackgroundImageFix" result="effect1_dropShadow_345_12782"/>
<feBlend mode="normal" in="SourceGraphic" in2="effect1_dropShadow_345_12782" result="shape"/>
</filter>
<filter id="filter2_d_345_12782" x="64" y="11" width="250" height="541" filterUnits="userSpaceOnUse" color-interpolation-filters="sRGB">
<feFlood flood-opacity="0" result="BackgroundImageFix"/>
<feColorMatrix in="SourceAlpha" type="matrix" values="0 0 0 0 0 0 0 0 0 0 0 0 0 0 0 0 0 0 127 0" result="hardAlpha"/>
<feOffset dx="4" dy="4"/>
<feGaussianBlur stdDeviation="7.5"/>
<feComposite in2="hardAlpha" operator="out"/>
<feColorMatrix type="matrix" values="0 0 0 0 0.280747 0 0 0 0 0.654167 0 0 0 0 0.631939 0 0 0 0.1 0"/>
<feBlend mode="normal" in2="BackgroundImageFix" result="effect1_dropShadow_345_12782"/>
<feBlend mode="normal" in="SourceGraphic" in2="effect1_dropShadow_345_12782" result="shape"/>
</filter>
<filter id="filter3_d_345_12782" x="1323" y="108" width="209" height="447.33" filterUnits="userSpaceOnUse" color-interpolation-filters="sRGB">
<feFlood flood-opacity="0" result="BackgroundImageFix"/>
<feColorMatrix in="SourceAlpha" type="matrix" values="0 0 0 0 0 0 0 0 0 0 0 0 0 0 0 0 0 0 127 0" result="hardAlpha"/>
<feOffset dx="4" dy="4"/>
<feGaussianBlur stdDeviation="7.5"/>
<feComposite in2="hardAlpha" operator="out"/>
<feColorMatrix type="matrix" values="0 0 0 0 0.280747 0 0 0 0 0.654167 0 0 0 0 0.631939 0 0 0 0.1 0"/>
<feBlend mode="normal" in2="BackgroundImageFix" result="effect1_dropShadow_345_12782"/>
<feBlend mode="normal" in="SourceGraphic" in2="effect1_dropShadow_345_12782" result="shape"/>
</filter>
<filter id="filter4_d_345_12782" x="775" y="86" width="219" height="469.833" filterUnits="userSpaceOnUse" color-interpolation-filters="sRGB">
<feFlood flood-opacity="0" result="BackgroundImageFix"/>
<feColorMatrix in="SourceAlpha" type="matrix" values="0 0 0 0 0 0 0 0 0 0 0 0 0 0 0 0 0 0 127 0" result="hardAlpha"/>
<feOffset dx="4" dy="4"/>
<feGaussianBlur stdDeviation="7.5"/>
<feComposite in2="hardAlpha" operator="out"/>
<feColorMatrix type="matrix" values="0 0 0 0 0.280747 0 0 0 0 0.654167 0 0 0 0 0.631939 0 0 0 0.1 0"/>
<feBlend mode="normal" in2="BackgroundImageFix" result="effect1_dropShadow_345_12782"/>
<feBlend mode="normal" in="SourceGraphic" in2="effect1_dropShadow_345_12782" result="shape"/>
</filter>
<filter id="filter5_d_345_12782" x="678" y="146" width="192" height="406.415" filterUnits="userSpaceOnUse" color-interpolation-filters="sRGB">
<feFlood flood-opacity="0" result="BackgroundImageFix"/>
<feColorMatrix in="SourceAlpha" type="matrix" values="0 0 0 0 0 0 0 0 0 0 0 0 0 0 0 0 0 0 127 0" result="hardAlpha"/>
<feOffset dx="4" dy="4"/>
<feGaussianBlur stdDeviation="7.5"/>
<feComposite in2="hardAlpha" operator="out"/>
<feColorMatrix type="matrix" values="0 0 0 0 0.280747 0 0 0 0 0.654167 0 0 0 0 0.631939 0 0 0 0.1 0"/>
<feBlend mode="normal" in2="BackgroundImageFix" result="effect1_dropShadow_345_12782"/>
<feBlend mode="normal" in="SourceGraphic" in2="effect1_dropShadow_345_12782" result="shape"/>
</filter>
<filter id="filter6_d_345_12782" x="282" y="95" width="209" height="447.33" filterUnits="userSpaceOnUse" color-interpolation-filters="sRGB">
<feFlood flood-opacity="0" result="BackgroundImageFix"/>
<feColorMatrix in="SourceAlpha" type="matrix" values="0 0 0 0 0 0 0 0 0 0 0 0 0 0 0 0 0 0 127 0" result="hardAlpha"/>
<feOffset dx="4" dy="4"/>
<feGaussianBlur stdDeviation="7.5"/>
<feComposite in2="hardAlpha" operator="out"/>
<feColorMatrix type="matrix" values="0 0 0 0 0.280747 0 0 0 0 0.654167 0 0 0 0 0.631939 0 0 0 0.1 0"/>
<feBlend mode="normal" in2="BackgroundImageFix" result="effect1_dropShadow_345_12782"/>
<feBlend mode="normal" in="SourceGraphic" in2="effect1_dropShadow_345_12782" result="shape"/>
</filter>
<filter id="filter7_d_345_12782" x="403" y="285" width="132" height="266.282" filterUnits="userSpaceOnUse" color-interpolation-filters="sRGB">
<feFlood flood-opacity="0" result="BackgroundImageFix"/>
<feColorMatrix in="SourceAlpha" type="matrix" values="0 0 0 0 0 0 0 0 0 0 0 0 0 0 0 0 0 0 127 0" result="hardAlpha"/>
<feOffset dx="4" dy="4"/>
<feGaussianBlur stdDeviation="7.5"/>
<feComposite in2="hardAlpha" operator="out"/>
<feColorMatrix type="matrix" values="0 0 0 0 0.280747 0 0 0 0 0.654167 0 0 0 0 0.631939 0 0 0 0.1 0"/>
<feBlend mode="normal" in2="BackgroundImageFix" result="effect1_dropShadow_345_12782"/>
<feBlend mode="normal" in="SourceGraphic" in2="effect1_dropShadow_345_12782" result="shape"/>
</filter>
<filter id="filter8_d_345_12782" x="964" y="16" width="250" height="541" filterUnits="userSpaceOnUse" color-interpolation-filters="sRGB">
<feFlood flood-opacity="0" result="BackgroundImageFix"/>
<feColorMatrix in="SourceAlpha" type="matrix" values="0 0 0 0 0 0 0 0 0 0 0 0 0 0 0 0 0 0 127 0" result="hardAlpha"/>
<feOffset dx="4" dy="4"/>
<feGaussianBlur stdDeviation="7.5"/>
<feComposite in2="hardAlpha" operator="out"/>
<feColorMatrix type="matrix" values="0 0 0 0 0.280747 0 0 0 0 0.654167 0 0 0 0 0.631939 0 0 0 0.1 0"/>
<feBlend mode="normal" in2="BackgroundImageFix" result="effect1_dropShadow_345_12782"/>
<feBlend mode="normal" in="SourceGraphic" in2="effect1_dropShadow_345_12782" result="shape"/>
</filter>
<filter id="filter9_d_345_12782" x="1114" y="150" width="191" height="404.369" filterUnits="userSpaceOnUse" color-interpolation-filters="sRGB">
<feFlood flood-opacity="0" result="BackgroundImageFix"/>
<feColorMatrix in="SourceAlpha" type="matrix" values="0 0 0 0 0 0 0 0 0 0 0 0 0 0 0 0 0 0 127 0" result="hardAlpha"/>
<feOffset dx="4" dy="4"/>
<feGaussianBlur stdDeviation="7.5"/>
<feComposite in2="hardAlpha" operator="out"/>
<feColorMatrix type="matrix" values="0 0 0 0 0.280747 0 0 0 0 0.654167 0 0 0 0 0.631939 0 0 0 0.1 0"/>
<feBlend mode="normal" in2="BackgroundImageFix" result="effect1_dropShadow_345_12782"/>
<feBlend mode="normal" in="SourceGraphic" in2="effect1_dropShadow_345_12782" result="shape"/>
</filter>
<filter id="filter10_d_345_12782" x="899" y="175" width="179" height="376.752" filterUnits="userSpaceOnUse" color-interpolation-filters="sRGB">
<feFlood flood-opacity="0" result="BackgroundImageFix"/>
<feColorMatrix in="SourceAlpha" type="matrix" values="0 0 0 0 0 0 0 0 0 0 0 0 0 0 0 0 0 0 127 0" result="hardAlpha"/>
<feOffset dx="4" dy="4"/>
<feGaussianBlur stdDeviation="7.5"/>
<feComposite in2="hardAlpha" operator="out"/>
<feColorMatrix type="matrix" values="0 0 0 0 0.280747 0 0 0 0 0.654167 0 0 0 0 0.631939 0 0 0 0.1 0"/>
<feBlend mode="normal" in2="BackgroundImageFix" result="effect1_dropShadow_345_12782"/>
<feBlend mode="normal" in="SourceGraphic" in2="effect1_dropShadow_345_12782" result="shape"/>
</filter>
<filter id="filter11_d_345_12782" x="856" y="274" width="140" height="285.717" filterUnits="userSpaceOnUse" color-interpolation-filters="sRGB">
<feFlood flood-opacity="0" result="BackgroundImageFix"/>
<feColorMatrix in="SourceAlpha" type="matrix" values="0 0 0 0 0 0 0 0 0 0 0 0 0 0 0 0 0 0 127 0" result="hardAlpha"/>
<feOffset dx="4" dy="4"/>
<feGaussianBlur stdDeviation="7.5"/>
<feComposite in2="hardAlpha" operator="out"/>
<feColorMatrix type="matrix" values="0 0 0 0 0.280747 0 0 0 0 0.654167 0 0 0 0 0.631939 0 0 0 0.1 0"/>
<feBlend mode="normal" in2="BackgroundImageFix" result="effect1_dropShadow_345_12782"/>
<feBlend mode="normal" in="SourceGraphic" in2="effect1_dropShadow_345_12782" result="shape"/>
</filter>
<filter id="filter12_d_345_12782" x="1295" y="285" width="132" height="266.282" filterUnits="userSpaceOnUse" color-interpolation-filters="sRGB">
<feFlood flood-opacity="0" result="BackgroundImageFix"/>
<feColorMatrix in="SourceAlpha" type="matrix" values="0 0 0 0 0 0 0 0 0 0 0 0 0 0 0 0 0 0 127 0" result="hardAlpha"/>
<feOffset dx="4" dy="4"/>
<feGaussianBlur stdDeviation="7.5"/>
<feComposite in2="hardAlpha" operator="out"/>
<feColorMatrix type="matrix" values="0 0 0 0 0.280747 0 0 0 0 0.654167 0 0 0 0 0.631939 0 0 0 0.1 0"/>
<feBlend mode="normal" in2="BackgroundImageFix" result="effect1_dropShadow_345_12782"/>
<feBlend mode="normal" in="SourceGraphic" in2="effect1_dropShadow_345_12782" result="shape"/>
</filter>
<filter id="filter13_d_345_12782" x="1199" y="175" width="179" height="376.752" filterUnits="userSpaceOnUse" color-interpolation-filters="sRGB">
<feFlood flood-opacity="0" result="BackgroundImageFix"/>
<feColorMatrix in="SourceAlpha" type="matrix" values="0 0 0 0 0 0 0 0 0 0 0 0 0 0 0 0 0 0 127 0" result="hardAlpha"/>
<feOffset dx="4" dy="4"/>
<feGaussianBlur stdDeviation="7.5"/>
<feComposite in2="hardAlpha" operator="out"/>
<feColorMatrix type="matrix" values="0 0 0 0 0.280747 0 0 0 0 0.654167 0 0 0 0 0.631939 0 0 0 0.1 0"/>
<feBlend mode="normal" in2="BackgroundImageFix" result="effect1_dropShadow_345_12782"/>
<feBlend mode="normal" in="SourceGraphic" in2="effect1_dropShadow_345_12782" result="shape"/>
</filter>
<filter id="filter14_d_345_12782" x="1049" y="240" width="152" height="312.311" filterUnits="userSpaceOnUse" color-interpolation-filters="sRGB">
<feFlood flood-opacity="0" result="BackgroundImageFix"/>
<feColorMatrix in="SourceAlpha" type="matrix" values="0 0 0 0 0 0 0 0 0 0 0 0 0 0 0 0 0 0 127 0" result="hardAlpha"/>
<feOffset dx="4" dy="4"/>
<feGaussianBlur stdDeviation="7.5"/>
<feComposite in2="hardAlpha" operator="out"/>
<feColorMatrix type="matrix" values="0 0 0 0 0.280747 0 0 0 0 0.654167 0 0 0 0 0.631939 0 0 0 0.1 0"/>
<feBlend mode="normal" in2="BackgroundImageFix" result="effect1_dropShadow_345_12782"/>
<feBlend mode="normal" in="SourceGraphic" in2="effect1_dropShadow_345_12782" result="shape"/>
</filter>
<filter id="filter15_d_345_12782" x="624" y="214" width="163" height="338.906" filterUnits="userSpaceOnUse" color-interpolation-filters="sRGB">
<feFlood flood-opacity="0" result="BackgroundImageFix"/>
<feColorMatrix in="SourceAlpha" type="matrix" values="0 0 0 0 0 0 0 0 0 0 0 0 0 0 0 0 0 0 127 0" result="hardAlpha"/>
<feOffset dx="4" dy="4"/>
<feGaussianBlur stdDeviation="7.5"/>
<feComposite in2="hardAlpha" operator="out"/>
<feColorMatrix type="matrix" values="0 0 0 0 0.280747 0 0 0 0 0.654167 0 0 0 0 0.631939 0 0 0 0.1 0"/>
<feBlend mode="normal" in2="BackgroundImageFix" result="effect1_dropShadow_345_12782"/>
<feBlend mode="normal" in="SourceGraphic" in2="effect1_dropShadow_345_12782" result="shape"/>
</filter>
<filter id="filter16_d_345_12782" x="222" y="148" width="192" height="406.415" filterUnits="userSpaceOnUse" color-interpolation-filters="sRGB">
<feFlood flood-opacity="0" result="BackgroundImageFix"/>
<feColorMatrix in="SourceAlpha" type="matrix" values="0 0 0 0 0 0 0 0 0 0 0 0 0 0 0 0 0 0 127 0" result="hardAlpha"/>
<feOffset dx="4" dy="4"/>
<feGaussianBlur stdDeviation="7.5"/>
<feComposite in2="hardAlpha" operator="out"/>
<feColorMatrix type="matrix" values="0 0 0 0 0.280747 0 0 0 0 0.654167 0 0 0 0 0.631939 0 0 0 0.1 0"/>
<feBlend mode="normal" in2="BackgroundImageFix" result="effect1_dropShadow_345_12782"/>
<feBlend mode="normal" in="SourceGraphic" in2="effect1_dropShadow_345_12782" result="shape"/>
</filter>
<filter id="filter17_d_345_12782" x="166" y="234" width="153" height="316.403" filterUnits="userSpaceOnUse" color-interpolation-filters="sRGB">
<feFlood flood-opacity="0" result="BackgroundImageFix"/>
<feColorMatrix in="SourceAlpha" type="matrix" values="0 0 0 0 0 0 0 0 0 0 0 0 0 0 0 0 0 0 127 0" result="hardAlpha"/>
<feOffset dx="4" dy="4"/>
<feGaussianBlur stdDeviation="7.5"/>
<feComposite in2="hardAlpha" operator="out"/>
<feColorMatrix type="matrix" values="0 0 0 0 0.280747 0 0 0 0 0.654167 0 0 0 0 0.631939 0 0 0 0.1 0"/>
<feBlend mode="normal" in2="BackgroundImageFix" result="effect1_dropShadow_345_12782"/>
<feBlend mode="normal" in="SourceGraphic" in2="effect1_dropShadow_345_12782" result="shape"/>
</filter>
<filter id="filter18_d_345_12782" x="-39" y="169" width="182" height="382.889" filterUnits="userSpaceOnUse" color-interpolation-filters="sRGB">
<feFlood flood-opacity="0" result="BackgroundImageFix"/>
<feColorMatrix in="SourceAlpha" type="matrix" values="0 0 0 0 0 0 0 0 0 0 0 0 0 0 0 0 0 0 127 0" result="hardAlpha"/>
<feOffset dx="4" dy="4"/>
<feGaussianBlur stdDeviation="7.5"/>
<feComposite in2="hardAlpha" operator="out"/>
<feColorMatrix type="matrix" values="0 0 0 0 0.280747 0 0 0 0 0.654167 0 0 0 0 0.631939 0 0 0 0.1 0"/>
<feBlend mode="normal" in2="BackgroundImageFix" result="effect1_dropShadow_345_12782"/>
<feBlend mode="normal" in="SourceGraphic" in2="effect1_dropShadow_345_12782" result="shape"/>
</filter>
<filter id="filter19_d_345_12782" x="19" y="264" width="140" height="285.717" filterUnits="userSpaceOnUse" color-interpolation-filters="sRGB">
<feFlood flood-opacity="0" result="BackgroundImageFix"/>
<feColorMatrix in="SourceAlpha" type="matrix" values="0 0 0 0 0 0 0 0 0 0 0 0 0 0 0 0 0 0 127 0" result="hardAlpha"/>
<feOffset dx="4" dy="4"/>
<feGaussianBlur stdDeviation="7.5"/>
<feComposite in2="hardAlpha" operator="out"/>
<feColorMatrix type="matrix" values="0 0 0 0 0.280747 0 0 0 0 0.654167 0 0 0 0 0.631939 0 0 0 0.1 0"/>
<feBlend mode="normal" in2="BackgroundImageFix" result="effect1_dropShadow_345_12782"/>
<feBlend mode="normal" in="SourceGraphic" in2="effect1_dropShadow_345_12782" result="shape"/>
</filter>
</defs>
</svg>
